Toren-Proportional.ufo
<glyph name="exclam" format="1">
  <advance width="256"/>
  <unicode hex="0021"/>
  <outline>
    <contour>
      <point x="152" y="192" type="line"/>
      <point x="183" y="656" type="line"/>
      <point x="184" y="659"/>
      <point x="184" y="661"/>
      <point x="184" y="664" type="curve" smooth="yes"/>
      <point x="184" y="696"/>
      <point x="160" y="720"/>
      <point x="128" y="720" type="curve" smooth="yes"/>
      <point x="96" y="720"/>
      <point x="72" y="696"/>
      <point x="72" y="664" type="curve" smooth="yes"/>
      <point x="72" y="661"/>
      <point x="72" y="659"/>
      <point x="73" y="656" type="curve"/>
      <point x="104" y="192" type="line"/>
    </contour>
    <contour>
      <point x="192" y="48" type="curve" smooth="yes"/>
      <point x="192" y="84"/>
      <point x="164" y="112"/>
      <point x="128" y="112" type="curve" smooth="yes"/>
      <point x="92" y="112"/>
      <point x="64" y="84"/>
      <point x="64" y="48" type="curve" smooth="yes"/>
      <point x="64" y="12"/>
      <point x="92" y="-16"/>
      <point x="128" y="-16" type="curve" smooth="yes"/>
      <point x="164" y="-16"/>
      <point x="192" y="12"/>
    </contour>
  </outline>
</glyph>
<glyph name="quotedbl" format="1">
  <advance width="400"/>
  <unicode hex="0022"/>
  <outline>
    <contour>
      <point x="304" y="432" type="line"/>
      <point x="334" y="640" type="line" smooth="yes"/>
      <point x="336" y="652"/>
      <point x="336" y="660"/>
      <point x="336" y="664" type="curve" smooth="yes"/>
      <point x="336" y="692"/>
      <point x="324" y="720"/>
      <point x="288" y="720" type="curve" smooth="yes"/>
      <point x="252" y="720"/>
      <point x="240" y="692"/>
      <point x="240" y="664" type="curve" smooth="yes"/>
      <point x="240" y="660"/>
      <point x="240" y="652"/>
      <point x="242" y="640" type="curve" smooth="yes"/>
      <point x="272" y="432" type="line"/>
    </contour>
    <contour>
      <point x="128" y="432" type="line"/>
      <point x="158" y="640" type="line" smooth="yes"/>
      <point x="160" y="652"/>
      <point x="160" y="660"/>
      <point x="160" y="664" type="curve" smooth="yes"/>
      <point x="160" y="692"/>
      <point x="148" y="720"/>
      <point x="112" y="720" type="curve" smooth="yes"/>
      <point x="76" y="720"/>
      <point x="64" y="692"/>
      <point x="64" y="664" type="curve" smooth="yes"/>
      <point x="64" y="660"/>
      <point x="64" y="652"/>
      <point x="66" y="640" type="curve" smooth="yes"/>
      <point x="96" y="432" type="line"/>
    </contour>
  </outline>
</glyph>
<glyph name="dollar" format="1">
  <advance width="528"/>
  <unicode hex="0024"/>
  <outline>
    <contour>
      <point x="240" y="432" type="line"/>
      <point x="160" y="459"/>
      <point x="114" y="482"/>
      <point x="114" y="540" type="curve" smooth="yes"/>
      <point x="114" y="596"/>
      <point x="168" y="648"/>
      <point x="240" y="655" type="curve"/>
    </contour>
    <contour>
      <point x="288" y="314" type="line"/>
      <point x="368" y="287"/>
      <point x="422" y="264"/>
      <point x="422" y="186" type="curve" smooth="yes"/>
      <point x="422" y="117"/>
      <point x="367" y="56"/>
      <point x="288" y="49" type="curve"/>
    </contour>
    <contour>
      <point x="288" y="-128" type="line"/>
      <point x="288" y="1" type="line"/>
      <point x="413" y="8"/>
      <point x="496" y="107"/>
      <point x="496" y="214" type="curve" smooth="yes"/>
      <point x="496" y="328"/>
      <point x="428" y="369"/>
      <point x="288" y="416" type="curve"/>
      <point x="288" y="655" type="line"/>
      <point x="343" y="651"/>
      <point x="377" y="626"/>
      <point x="387" y="604" type="curve"/>
      <point x="366" y="596"/>
      <point x="352" y="576"/>
      <point x="352" y="552" type="curve" smooth="yes"/>
      <point x="352" y="520"/>
      <point x="376" y="496"/>
      <point x="408" y="496" type="curve" smooth="yes"/>
      <point x="440" y="496"/>
      <point x="464" y="520"/>
      <point x="464" y="552" type="curve" smooth="yes"/>
      <point x="464" y="613"/>
      <point x="398" y="696"/>
      <point x="288" y="703" type="curve"/>
      <point x="288" y="816" type="line"/>
      <point x="240" y="816" type="line"/>
      <point x="240" y="703" type="line"/>
      <point x="130" y="696"/>
      <point x="50" y="616"/>
      <point x="50" y="522" type="curve" smooth="yes"/>
      <point x="50" y="416"/>
      <point x="116" y="371"/>
      <point x="240" y="330" type="curve"/>
      <point x="240" y="49" type="line"/>
      <point x="180" y="53"/>
      <point x="136" y="82"/>
      <point x="117" y="112" type="curve"/>
      <point x="133" y="121"/>
      <point x="144" y="139"/>
      <point x="144" y="160" type="curve" smooth="yes"/>
      <point x="144" y="192"/>
      <point x="120" y="216"/>
      <point x="88" y="216" type="curve" smooth="yes"/>
      <point x="56" y="216"/>
      <point x="32" y="192"/>
      <point x="32" y="160" type="curve" smooth="yes"/>
      <point x="32" y="99"/>
      <point x="113" y="8"/>
      <point x="240" y="0" type="curve"/>
      <point x="240" y="-128" type="line"/>
    </contour>
  </outline>
</glyph>
<glyph name="percent" format="1">
  <advance width="608"/>
  <unicode hex="0025"/>
  <outline>
    <contour>
      <point x="32" y="552" type="curve" smooth="yes"/>
      <point x="32" y="462"/>
      <point x="78" y="388"/>
      <point x="156" y="388" type="curve" smooth="yes"/>
      <point x="234" y="388"/>
      <point x="280" y="462"/>
      <point x="280" y="552" type="curve" smooth="yes"/>
      <point x="280" y="634"/>
      <point x="234" y="708"/>
      <point x="156" y="708" type="curve" smooth="yes"/>
      <point x="78" y="708"/>
      <point x="32" y="634"/>
    </contour>
    <contour>
      <point x="448" y="704" type="line"/>
      <point x="96" y="0" type="line"/>
      <point x="160" y="0" type="line"/>
      <point x="512" y="704" type="line"/>
    </contour>
    <contour>
      <point x="156" y="680" type="curve" smooth="yes"/>
      <point x="210" y="680"/>
      <point x="222" y="616"/>
      <point x="222" y="552" type="curve" smooth="yes"/>
      <point x="222" y="480"/>
      <point x="210" y="416"/>
      <point x="156" y="416" type="curve" smooth="yes"/>
      <point x="102" y="416"/>
      <point x="90" y="480"/>
      <point x="90" y="552" type="curve" smooth="yes"/>
      <point x="90" y="616"/>
      <point x="102" y="680"/>
    </contour>
    <contour>
      <point x="328" y="160" type="curve" smooth="yes"/>
      <point x="328" y="70"/>
      <point x="374" y="-4"/>
      <point x="452" y="-4" type="curve" smooth="yes"/>
      <point x="530" y="-4"/>
      <point x="576" y="70"/>
      <point x="576" y="160" type="curve" smooth="yes"/>
      <point x="576" y="242"/>
      <point x="530" y="316"/>
      <point x="452" y="316" type="curve" smooth="yes"/>
      <point x="374" y="316"/>
      <point x="328" y="242"/>
    </contour>
    <contour>
      <point x="452" y="288" type="curve" smooth="yes"/>
      <point x="506" y="288"/>
      <point x="518" y="224"/>
      <point x="518" y="160" type="curve" smooth="yes"/>
      <point x="518" y="88"/>
      <point x="506" y="24"/>
      <point x="452" y="24" type="curve" smooth="yes"/>
      <point x="398" y="24"/>
      <point x="386" y="88"/>
      <point x="386" y="160" type="curve" smooth="yes"/>
      <point x="386" y="224"/>
      <point x="398" y="288"/>
    </contour>
  </outline>
</glyph>
<glyph name="quotesingle" format="1">
  <advance width="160"/>
  <unicode hex="0027"/>
  <outline>
    <contour>
      <point x="96" y="432" type="line"/>
      <point x="126" y="640" type="line" smooth="yes"/>
      <point x="128" y="652"/>
      <point x="128" y="660"/>
      <point x="128" y="664" type="curve" smooth="yes"/>
      <point x="128" y="692"/>
      <point x="116" y="720"/>
      <point x="80" y="720" type="curve" smooth="yes"/>
      <point x="44" y="720"/>
      <point x="32" y="692"/>
      <point x="32" y="664" type="curve" smooth="yes"/>
      <point x="32" y="660"/>
      <point x="32" y="652"/>
      <point x="34" y="640" type="curve" smooth="yes"/>
      <point x="64" y="432" type="line"/>
    </contour>
  </outline>
</glyph>
<glyph name="parenleft" format="1">
  <advance width="272"/>
  <unicode hex="0028"/>
  <outline>
    <contour>
      <point x="112" y="336" type="curve" smooth="yes"/>
      <point x="112" y="464"/>
      <point x="136" y="632"/>
      <point x="264" y="760" type="curve"/>
      <point x="240" y="784" type="line"/>
      <point x="80" y="656"/>
      <point x="32" y="480"/>
      <point x="32" y="336" type="curve" smooth="yes"/>
      <point x="32" y="192"/>
      <point x="80" y="16"/>
      <point x="240" y="-112" type="curve"/>
      <point x="264" y="-88" type="line"/>
      <point x="136" y="40"/>
      <point x="112" y="208"/>
    </contour>
  </outline>
</glyph>
<glyph name="parenright" format="1">
  <advance width="272"/>
  <unicode hex="0029"/>
  <outline>
    <contour>
      <point x="160" y="336" type="curve" smooth="yes"/>
      <point x="160" y="208"/>
      <point x="136" y="40"/>
      <point x="8" y="-88" type="curve"/>
      <point x="32" y="-112" type="line"/>
      <point x="192" y="16"/>
      <point x="240" y="192"/>
      <point x="240" y="336" type="curve" smooth="yes"/>
      <point x="240" y="480"/>
      <point x="192" y="656"/>
      <point x="32" y="784" type="curve"/>
      <point x="8" y="760" type="line"/>
      <point x="136" y="632"/>
      <point x="160" y="464"/>
    </contour>
  </outline>
</glyph>
<glyph name="period" format="1">
  <advance width="248"/>
  <unicode hex="002E"/>
  <outline>
    <contour>
      <point x="188" y="48" type="curve" smooth="yes"/>
      <point x="188" y="84"/>
      <point x="160" y="112"/>
      <point x="124" y="112" type="curve" smooth="yes"/>
      <point x="88" y="112"/>
      <point x="60" y="84"/>
      <point x="60" y="48" type="curve" smooth="yes"/>
      <point x="60" y="12"/>
      <point x="88" y="-16"/>
      <point x="124" y="-16" type="curve" smooth="yes"/>
      <point x="160" y="-16"/>
      <point x="188" y="12"/>
    </contour>
  </outline>
</glyph>
<glyph name="zero" format="1">
  <advance width="636"/>
  <unicode hex="0030"/>
  <outline>
    <contour>
      <point x="70" y="352" type="curve" smooth="yes"/>
      <point x="70" y="128"/>
      <point x="174" y="-16"/>
      <point x="318" y="-16" type="curve" smooth="yes"/>
      <point x="462" y="-16"/>
      <point x="566" y="128"/>
      <point x="566" y="352" type="curve" smooth="yes"/>
      <point x="566" y="576"/>
      <point x="462" y="720"/>
      <point x="318" y="720" type="curve" smooth="yes"/>
      <point x="174" y="720"/>
      <point x="70" y="576"/>
    </contour>
    <contour>
      <point x="166" y="352" type="curve" smooth="yes"/>
      <point x="166" y="544"/>
      <point x="222" y="672"/>
      <point x="318" y="672" type="curve" smooth="yes"/>
      <point x="352" y="672"/>
      <point x="382" y="656"/>
      <point x="406" y="626" type="curve"/>
      <point x="214" y="106" type="line"/>
      <point x="184" y="162"/>
      <point x="166" y="248"/>
    </contour>
    <contour>
      <point x="318" y="32" type="curve" smooth="yes"/>
      <point x="290" y="32"/>
      <point x="264" y="44"/>
      <point x="242" y="66" type="curve"/>
      <point x="432" y="580" type="line"/>
      <point x="458" y="524"/>
      <point x="470" y="446"/>
      <point x="470" y="352" type="curve" smooth="yes"/>
      <point x="470" y="160"/>
      <point x="414" y="32"/>
    </contour>
  </outline>
</glyph>
<glyph name="one" format="1">
  <advance width="472"/>
  <unicode hex="0031"/>
  <outline>
    <contour>
      <point x="412" y="0" type="line"/>
      <point x="412" y="24" type="line"/>
      <point x="284" y="48" type="line"/>
      <point x="284" y="704" type="line"/>
      <point x="228" y="704" type="line"/>
      <point x="204" y="640"/>
      <point x="140" y="624"/>
      <point x="92" y="624" type="curve" smooth="yes"/>
      <point x="60" y="624" type="line"/>
      <point x="60" y="576" type="line"/>
      <point x="196" y="576" type="line"/>
      <point x="196" y="48" type="line"/>
      <point x="68" y="24" type="line"/>
      <point x="68" y="0" type="line"/>
    </contour>
  </outline>
</glyph>
<glyph name="two" format="1">
  <advance width="554"/>
  <unicode hex="0032"/>
  <outline>
    <contour>
      <point x="30" y="0" type="line"/>
      <point x="462" y="0" type="line"/>
      <point x="494" y="160" type="line"/>
      <point x="462" y="160" type="line"/>
      <point x="422" y="80" type="line"/>
      <point x="182" y="80" type="line"/>
      <point x="326" y="224" type="line" smooth="yes"/>
      <point x="442" y="340"/>
      <point x="478" y="400"/>
      <point x="478" y="496" type="curve" smooth="yes"/>
      <point x="478" y="608"/>
      <point x="406" y="720"/>
      <point x="270" y="720" type="curve" smooth="yes"/>
      <point x="158" y="720"/>
      <point x="62" y="640"/>
      <point x="62" y="480" type="curve"/>
      <point x="102" y="480" type="line"/>
      <point x="118" y="592"/>
      <point x="174" y="648"/>
      <point x="238" y="648" type="curve" smooth="yes"/>
      <point x="334" y="648"/>
      <point x="382" y="576"/>
      <point x="382" y="496" type="curve" smooth="yes"/>
      <point x="382" y="416"/>
      <point x="342" y="336"/>
      <point x="222" y="216" type="curve" smooth="yes"/>
      <point x="30" y="24" type="line"/>
    </contour>
  </outline>
</glyph>
<glyph name="three" format="1">
  <advance width="558"/>
  <unicode hex="0033"/>
  <outline>
    <contour>
      <point x="284" y="-16" type="curve" smooth="yes"/>
      <point x="424" y="-16"/>
      <point x="508" y="92"/>
      <point x="508" y="208" type="curve" smooth="yes"/>
      <point x="508" y="308"/>
      <point x="446" y="430"/>
      <point x="244" y="432" type="curve"/>
      <point x="492" y="680" type="line"/>
      <point x="492" y="704" type="line"/>
      <point x="108" y="704" type="line"/>
      <point x="76" y="544" type="line"/>
      <point x="108" y="544" type="line"/>
      <point x="148" y="624" type="line"/>
      <point x="340" y="624" type="line"/>
      <point x="124" y="408" type="line"/>
      <point x="124" y="360" type="line"/>
      <point x="220" y="360" type="line" smooth="yes"/>
      <point x="356" y="360"/>
      <point x="412" y="292"/>
      <point x="412" y="208" type="curve" smooth="yes"/>
      <point x="412" y="124"/>
      <point x="352" y="52"/>
      <point x="252" y="52" type="curve" smooth="yes"/>
      <point x="184" y="52"/>
      <point x="116" y="112"/>
      <point x="100" y="208" type="curve"/>
      <point x="60" y="208" type="line"/>
      <point x="60" y="64"/>
      <point x="168" y="-16"/>
    </contour>
  </outline>
</glyph>
<glyph name="four" format="1">
  <advance width="522"/>
  <unicode hex="0034"/>
  <outline>
    <contour>
      <point x="440" y="24" type="line"/>
      <point x="376" y="48" type="line"/>
      <point x="376" y="192" type="line"/>
      <point x="472" y="192" type="line"/>
      <point x="472" y="240" type="line"/>
      <point x="376" y="240" type="line"/>
      <point x="376" y="704" type="line"/>
      <point x="292" y="704" type="line"/>
      <point x="60" y="240" type="line"/>
      <point x="60" y="192" type="line"/>
      <point x="284" y="192" type="line"/>
      <point x="284" y="48" type="line"/>
      <point x="220" y="24" type="line"/>
      <point x="220" y="0" type="line"/>
      <point x="440" y="0" type="line"/>
    </contour>
    <contour>
      <point x="284" y="560" type="line"/>
      <point x="284" y="240" type="line"/>
      <point x="124" y="240" type="line"/>
    </contour>
  </outline>
</glyph>
<glyph name="five" format="1">
  <advance width="558"/>
  <unicode hex="0035"/>
  <outline>
    <contour>
      <point x="274" y="-16" type="curve" smooth="yes"/>
      <point x="410" y="-16"/>
      <point x="498" y="96"/>
      <point x="498" y="208" type="curve" smooth="yes"/>
      <point x="498" y="320"/>
      <point x="434" y="466"/>
      <point x="226" y="466" type="curve" smooth="yes"/>
      <point x="160" y="466" type="line"/>
      <point x="186" y="624" type="line"/>
      <point x="378" y="624" type="line"/>
      <point x="418" y="544" type="line"/>
      <point x="450" y="544" type="line"/>
      <point x="418" y="704" type="line"/>
      <point x="138" y="704" type="line"/>
      <point x="90" y="440" type="line"/>
      <point x="90" y="392" type="line"/>
      <point x="210" y="392" type="line" smooth="yes"/>
      <point x="346" y="392"/>
      <point x="398" y="304"/>
      <point x="398" y="208" type="curve" smooth="yes"/>
      <point x="398" y="128"/>
      <point x="338" y="56"/>
      <point x="242" y="56" type="curve" smooth="yes"/>
      <point x="178" y="56"/>
      <point x="106" y="112"/>
      <point x="90" y="224" type="curve"/>
      <point x="50" y="224" type="line"/>
      <point x="50" y="64"/>
      <point x="162" y="-16"/>
    </contour>
  </outline>
</glyph>
<glyph name="six" format="1">
  <advance width="560"/>
  <unicode hex="0036"/>
  <outline>
    <contour>
      <point x="290" y="-16" type="curve" smooth="yes"/>
      <point x="434" y="-16"/>
      <point x="530" y="80"/>
      <point x="530" y="208" type="curve" smooth="yes"/>
      <point x="530" y="336"/>
      <point x="434" y="432"/>
      <point x="290" y="432" type="curve" smooth="yes"/>
      <point x="248" y="432"/>
      <point x="206" y="416"/>
      <point x="172" y="396" type="curve"/>
      <point x="196" y="506"/>
      <point x="272" y="620"/>
      <point x="434" y="664" type="curve"/>
      <point x="434" y="704" type="line"/>
      <point x="266" y="704"/>
      <point x="50" y="512"/>
      <point x="50" y="240" type="curve" smooth="yes"/>
      <point x="50" y="80"/>
      <point x="146" y="-16"/>
    </contour>
    <contour>
      <point x="290" y="384" type="curve" smooth="yes"/>
      <point x="370" y="384"/>
      <point x="434" y="320"/>
      <point x="434" y="208" type="curve" smooth="yes"/>
      <point x="434" y="96"/>
      <point x="370" y="32"/>
      <point x="290" y="32" type="curve" smooth="yes"/>
      <point x="210" y="32"/>
      <point x="146" y="96"/>
      <point x="146" y="208" type="curve" smooth="yes"/>
      <point x="146" y="304"/>
      <point x="194" y="384"/>
    </contour>
  </outline>
</glyph>
<glyph name="seven" format="1">
  <advance width="526"/>
  <unicode hex="0037"/>
  <outline>
    <contour>
      <point x="476" y="704" type="line"/>
      <point x="92" y="704" type="line"/>
      <point x="60" y="544" type="line"/>
      <point x="92" y="544" type="line"/>
      <point x="132" y="624" type="line"/>
      <point x="380" y="624" type="line"/>
      <point x="108" y="0" type="line"/>
      <point x="188" y="0" type="line"/>
      <point x="476" y="680" type="line"/>
    </contour>
  </outline>
</glyph>
<glyph name="eight" format="1">
  <advance width="488"/>
  <unicode hex="0038"/>
  <outline>
    <contour>
      <point x="232" y="-16" type="curve" smooth="yes"/>
      <point x="376" y="-16"/>
      <point x="448" y="64"/>
      <point x="448" y="176" type="curve" smooth="yes"/>
      <point x="448" y="224"/>
      <point x="440" y="256"/>
      <point x="360" y="336" type="curve" smooth="yes"/>
      <point x="290" y="406" type="line"/>
      <point x="354" y="456"/>
      <point x="400" y="496"/>
      <point x="400" y="584" type="curve" smooth="yes"/>
      <point x="400" y="624"/>
      <point x="360" y="720"/>
      <point x="240" y="720" type="curve" smooth="yes"/>
      <point x="120" y="720"/>
      <point x="64" y="640"/>
      <point x="64" y="560" type="curve" smooth="yes"/>
      <point x="64" y="504"/>
      <point x="104" y="448"/>
      <point x="144" y="408" type="curve" smooth="yes"/>
      <point x="182" y="370" type="line"/>
      <point x="94" y="292"/>
      <point x="40" y="224"/>
      <point x="40" y="144" type="curve" smooth="yes"/>
      <point x="40" y="48"/>
      <point x="128" y="-16"/>
    </contour>
    <contour>
      <point x="216" y="480" type="line" smooth="yes"/>
      <point x="184" y="512"/>
      <point x="152" y="560"/>
      <point x="152" y="584" type="curve" smooth="yes"/>
      <point x="152" y="632"/>
      <point x="192" y="672"/>
      <point x="240" y="672" type="curve" smooth="yes"/>
      <point x="288" y="672"/>
      <point x="328" y="632"/>
      <point x="328" y="584" type="curve" smooth="yes"/>
      <point x="328" y="520"/>
      <point x="302" y="488"/>
      <point x="256" y="440" type="curve"/>
    </contour>
    <contour>
      <point x="232" y="32" type="curve" smooth="yes"/>
      <point x="160" y="32"/>
      <point x="120" y="104"/>
      <point x="120" y="160" type="curve" smooth="yes"/>
      <point x="120" y="198"/>
      <point x="140" y="254"/>
      <point x="216" y="336" type="curve"/>
      <point x="288" y="264" type="line" smooth="yes"/>
      <point x="318" y="234"/>
      <point x="344" y="200"/>
      <point x="344" y="160" type="curve" smooth="yes"/>
      <point x="344" y="104"/>
      <point x="304" y="32"/>
    </contour>
  </outline>
</glyph>
<glyph name="nine" format="1">
  <advance width="560"/>
  <unicode hex="0039"/>
  <outline>
    <contour>
      <point x="156" y="-16" type="line"/>
      <point x="324" y="-16"/>
      <point x="540" y="176"/>
      <point x="540" y="448" type="curve" smooth="yes"/>
      <point x="540" y="608"/>
      <point x="444" y="704"/>
      <point x="300" y="704" type="curve" smooth="yes"/>
      <point x="156" y="704"/>
      <point x="60" y="608"/>
      <point x="60" y="480" type="curve" smooth="yes"/>
      <point x="60" y="352"/>
      <point x="156" y="256"/>
      <point x="300" y="256" type="curve" smooth="yes"/>
      <point x="344" y="256"/>
      <point x="384" y="272"/>
      <point x="418" y="292" type="curve"/>
      <point x="396" y="184"/>
      <point x="318" y="70"/>
      <point x="156" y="24" type="curve"/>
    </contour>
    <contour>
      <point x="300" y="304" type="curve" smooth="yes"/>
      <point x="220" y="304"/>
      <point x="156" y="368"/>
      <point x="156" y="480" type="curve" smooth="yes"/>
      <point x="156" y="592"/>
      <point x="220" y="656"/>
      <point x="300" y="656" type="curve" smooth="yes"/>
      <point x="380" y="656"/>
      <point x="444" y="592"/>
      <point x="444" y="480" type="curve" smooth="yes"/>
      <point x="444" y="384"/>
      <point x="396" y="304"/>
    </contour>
  </outline>
</glyph>
<glyph name="colon" format="1">
  <advance width="256"/>
  <unicode hex="003A"/>
  <outline>
    <contour>
      <point x="192" y="432" type="curve" smooth="yes"/>
      <point x="192" y="468"/>
      <point x="164" y="496"/>
      <point x="128" y="496" type="curve" smooth="yes"/>
      <point x="92" y="496"/>
      <point x="64" y="468"/>
      <point x="64" y="432" type="curve" smooth="yes"/>
      <point x="64" y="396"/>
      <point x="92" y="368"/>
      <point x="128" y="368" type="curve" smooth="yes"/>
      <point x="164" y="368"/>
      <point x="192" y="396"/>
    </contour>
    <contour>
      <point x="192" y="48" type="curve" smooth="yes"/>
      <point x="192" y="84"/>
      <point x="164" y="112"/>
      <point x="128" y="112" type="curve" smooth="yes"/>
      <point x="92" y="112"/>
      <point x="64" y="84"/>
      <point x="64" y="48" type="curve" smooth="yes"/>
      <point x="64" y="12"/>
      <point x="92" y="-16"/>
      <point x="128" y="-16" type="curve" smooth="yes"/>
      <point x="164" y="-16"/>
      <point x="192" y="12"/>
    </contour>
  </outline>
</glyph>
<glyph name="semicolon" format="1">
  <advance width="264"/>
  <unicode hex="003B"/>
  <outline>
    <contour>
      <point x="192" y="432" type="curve" smooth="yes"/>
      <point x="192" y="468"/>
      <point x="164" y="496"/>
      <point x="128" y="496" type="curve" smooth="yes"/>
      <point x="92" y="496"/>
      <point x="64" y="468"/>
      <point x="64" y="432" type="curve" smooth="yes"/>
      <point x="64" y="396"/>
      <point x="92" y="368"/>
      <point x="128" y="368" type="curve" smooth="yes"/>
      <point x="164" y="368"/>
      <point x="192" y="396"/>
    </contour>
    <contour>
      <point x="96" y="-176" type="line"/>
      <point x="160" y="-128"/>
      <point x="200" y="-64"/>
      <point x="200" y="16" type="curve" smooth="yes"/>
      <point x="200" y="77"/>
      <point x="171" y="109"/>
      <point x="134" y="112" type="curve"/>
      <point x="134" y="112"/>
      <point x="133" y="112"/>
      <point x="133" y="112" type="curve"/>
      <point x="128" y="112"/>
      <point x="128" y="112"/>
      <point x="128" y="112" type="curve"/>
      <point x="92" y="112"/>
      <point x="64" y="84"/>
      <point x="64" y="48" type="curve" smooth="yes"/>
      <point x="64" y="12"/>
      <point x="92" y="-16"/>
      <point x="128" y="-16" type="curve" smooth="yes"/>
      <point x="131" y="-16"/>
      <point x="133" y="-16"/>
      <point x="136" y="-15" type="curve"/>
      <point x="134" y="-75"/>
      <point x="110" y="-114"/>
      <point x="72" y="-152" type="curve"/>
    </contour>
  </outline>
</glyph>
<glyph name="equal" format="1">
  <advance width="544"/>
  <unicode hex="003D"/>
  <outline>
    <contour>
      <point x="512" y="304" type="line"/>
      <point x="512" y="368" type="line"/>
      <point x="32" y="368" type="line"/>
      <point x="32" y="304" type="line"/>
    </contour>
    <contour>
      <point x="512" y="112" type="line"/>
      <point x="512" y="176" type="line"/>
      <point x="32" y="176" type="line"/>
      <point x="32" y="112" type="line"/>
    </contour>
  </outline>
</glyph>
<glyph name="greater" format="1">
  <advance width="480"/>
  <unicode hex="003E"/>
  <outline>
    <contour>
      <point x="32" y="64" type="line"/>
      <point x="32" y="0" type="line"/>
      <point x="448" y="208" type="line"/>
      <point x="448" y="272" type="line"/>
      <point x="32" y="480" type="line"/>
      <point x="32" y="416" type="line"/>
      <point x="384" y="240" type="line"/>
    </contour>
  </outline>
</glyph>
<glyph name="question" format="1">
  <advance width="440"/>
  <unicode hex="003F"/>
  <outline>
    <contour>
      <point x="224" y="192" type="line"/>
      <point x="224" y="416"/>
      <point x="408" y="392"/>
      <point x="408" y="560" type="curve" smooth="yes"/>
      <point x="408" y="672"/>
      <point x="328" y="720"/>
      <point x="216" y="720" type="curve" smooth="yes"/>
      <point x="96" y="720"/>
      <point x="32" y="624"/>
      <point x="32" y="552" type="curve" smooth="yes"/>
      <point x="32" y="520"/>
      <point x="56" y="496"/>
      <point x="88" y="496" type="curve" smooth="yes"/>
      <point x="120" y="496"/>
      <point x="144" y="520"/>
      <point x="144" y="552" type="curve" smooth="yes"/>
      <point x="144" y="575"/>
      <point x="132" y="594"/>
      <point x="113" y="603" type="curve"/>
      <point x="119" y="639"/>
      <point x="158" y="672"/>
      <point x="216" y="672" type="curve" smooth="yes"/>
      <point x="280" y="672"/>
      <point x="312" y="624"/>
      <point x="312" y="560" type="curve" smooth="yes"/>
      <point x="312" y="432"/>
      <point x="176" y="448"/>
      <point x="176" y="192" type="curve"/>
    </contour>
    <contour>
      <point x="264" y="48" type="curve" smooth="yes"/>
      <point x="264" y="84"/>
      <point x="236" y="112"/>
      <point x="200" y="112" type="curve" smooth="yes"/>
      <point x="164" y="112"/>
      <point x="136" y="84"/>
      <point x="136" y="48" type="curve" smooth="yes"/>
      <point x="136" y="12"/>
      <point x="164" y="-16"/>
      <point x="200" y="-16" type="curve" smooth="yes"/>
      <point x="236" y="-16"/>
      <point x="264" y="12"/>
    </contour>
  </outline>
</glyph>
<glyph name="A" format="1">
  <advance width="660"/>
  <unicode hex="0041"/>
  <outline>
    <contour>
      <point x="416" y="256" type="line"/>
      <point x="202" y="256" type="line"/>
      <point x="308" y="530" type="line"/>
    </contour>
    <contour>
      <point x="184" y="24" type="line"/>
      <point x="120" y="48" type="line"/>
      <point x="182" y="208" type="line"/>
      <point x="434" y="208" type="line"/>
      <point x="496" y="48" type="line"/>
      <point x="432" y="24" type="line"/>
      <point x="432" y="0" type="line"/>
      <point x="660" y="0" type="line"/>
      <point x="660" y="24" type="line"/>
      <point x="596" y="48" type="line"/>
      <point x="344" y="704" type="line"/>
      <point x="312" y="704" type="line"/>
      <point x="260" y="652" type="line"/>
      <point x="284" y="594" type="line"/>
      <point x="64" y="48" type="line"/>
      <point x="0" y="24" type="line"/>
      <point x="0" y="0" type="line"/>
      <point x="184" y="0" type="line"/>
    </contour>
  </outline>
</glyph>
<glyph name="B" format="1">
  <advance width="614"/>
  <unicode hex="0042"/>
  <outline>
    <contour>
      <point x="368" y="0" type="line" smooth="yes"/>
      <point x="480" y="0"/>
      <point x="576" y="64"/>
      <point x="576" y="192" type="curve" smooth="yes"/>
      <point x="576" y="294"/>
      <point x="514" y="351"/>
      <point x="432" y="369" type="curve"/>
      <point x="494" y="392"/>
      <point x="536" y="440"/>
      <point x="536" y="520" type="curve" smooth="yes"/>
      <point x="536" y="640"/>
      <point x="440" y="704"/>
      <point x="328" y="704" type="curve" smooth="yes"/>
      <point x="32" y="704" type="line"/>
      <point x="32" y="680" type="line"/>
      <point x="96" y="656" type="line"/>
      <point x="96" y="48" type="line"/>
      <point x="32" y="24" type="line"/>
      <point x="32" y="0" type="line"/>
    </contour>
    <contour>
      <point x="188" y="656" type="line"/>
      <point x="300" y="656" type="line" smooth="yes"/>
      <point x="372" y="656"/>
      <point x="436" y="608"/>
      <point x="436" y="520" type="curve" smooth="yes"/>
      <point x="436" y="432"/>
      <point x="372" y="384"/>
      <point x="300" y="384" type="curve" smooth="yes"/>
      <point x="188" y="384" type="line"/>
    </contour>
    <contour>
      <point x="188" y="48" type="line"/>
      <point x="188" y="336" type="line"/>
      <point x="340" y="336" type="line" smooth="yes"/>
      <point x="412" y="336"/>
      <point x="476" y="288"/>
      <point x="476" y="192" type="curve" smooth="yes"/>
      <point x="476" y="96"/>
      <point x="412" y="48"/>
      <point x="340" y="48" type="curve" smooth="yes"/>
    </contour>
  </outline>
</glyph>
<glyph name="C" format="1">
  <advance width="684"/>
  <unicode hex="0043"/>
  <outline>
    <contour>
      <point x="646" y="224" type="curve"/>
      <point x="614" y="224" type="line"/>
      <point x="558" y="80"/>
      <point x="462" y="48"/>
      <point x="374" y="48" type="curve" smooth="yes"/>
      <point x="254" y="48"/>
      <point x="138" y="144"/>
      <point x="138" y="352" type="curve" smooth="yes"/>
      <point x="138" y="552"/>
      <point x="254" y="668"/>
      <point x="374" y="668" type="curve" smooth="yes"/>
      <point x="466" y="668"/>
      <point x="558" y="578"/>
      <point x="570" y="496" type="curve"/>
      <point x="602" y="496" type="line"/>
      <point x="602" y="704" type="line"/>
      <point x="578" y="704" type="line"/>
      <point x="530" y="656" type="line"/>
      <point x="488" y="696"/>
      <point x="432" y="720"/>
      <point x="374" y="720" type="curve" smooth="yes"/>
      <point x="190" y="720"/>
      <point x="38" y="592"/>
      <point x="38" y="352" type="curve" smooth="yes"/>
      <point x="38" y="112"/>
      <point x="190" y="-16"/>
      <point x="342" y="-16" type="curve" smooth="yes"/>
      <point x="494" y="-16"/>
      <point x="606" y="52"/>
    </contour>
  </outline>
</glyph>
<glyph name="D" format="1">
  <advance width="694"/>
  <unicode hex="0044"/>
  <outline>
    <contour>
      <point x="324" y="704" type="curve" smooth="yes"/>
      <point x="36" y="704" type="line"/>
      <point x="36" y="680" type="line"/>
      <point x="100" y="656" type="line"/>
      <point x="100" y="48" type="line"/>
      <point x="36" y="24" type="line"/>
      <point x="36" y="0" type="line"/>
      <point x="324" y="0" type="line" smooth="yes"/>
      <point x="484" y="0"/>
      <point x="644" y="112"/>
      <point x="644" y="352" type="curve" smooth="yes"/>
      <point x="644" y="592"/>
      <point x="484" y="704"/>
    </contour>
    <contour>
      <point x="324" y="656" type="line" smooth="yes"/>
      <point x="420" y="656"/>
      <point x="544" y="576"/>
      <point x="544" y="352" type="curve" smooth="yes"/>
      <point x="544" y="128"/>
      <point x="420" y="48"/>
      <point x="324" y="48" type="curve" smooth="yes"/>
      <point x="192" y="48" type="line"/>
      <point x="192" y="656" type="line"/>
    </contour>
  </outline>
</glyph>
<glyph name="E" format="1">
  <advance width="600"/>
  <unicode hex="0045"/>
  <outline>
    <contour>
      <point x="580" y="210" type="line"/>
      <point x="552" y="224" type="line"/>
      <point x="464" y="48" type="line"/>
      <point x="192" y="48" type="line"/>
      <point x="192" y="352" type="line"/>
      <point x="364" y="352" type="line"/>
      <point x="396" y="272" type="line"/>
      <point x="420" y="272" type="line"/>
      <point x="420" y="480" type="line"/>
      <point x="396" y="480" type="line"/>
      <point x="364" y="400" type="line"/>
      <point x="192" y="400" type="line"/>
      <point x="192" y="656" type="line"/>
      <point x="448" y="656" type="line"/>
      <point x="520" y="512" type="line"/>
      <point x="548" y="526" type="line"/>
      <point x="512" y="704" type="line"/>
      <point x="36" y="704" type="line"/>
      <point x="36" y="680" type="line"/>
      <point x="100" y="656" type="line"/>
      <point x="100" y="48" type="line"/>
      <point x="36" y="24" type="line"/>
      <point x="36" y="0" type="line"/>
      <point x="536" y="0" type="line"/>
    </contour>
  </outline>
</glyph>
<glyph name="F" format="1">
  <advance width="568"/>
  <unicode hex="0046"/>
  <outline>
    <contour>
      <point x="256" y="24" type="line"/>
      <point x="192" y="48" type="line"/>
      <point x="192" y="352" type="line"/>
      <point x="364" y="352" type="line"/>
      <point x="396" y="272" type="line"/>
      <point x="420" y="272" type="line"/>
      <point x="420" y="480" type="line"/>
      <point x="396" y="480" type="line"/>
      <point x="364" y="400" type="line"/>
      <point x="192" y="400" type="line"/>
      <point x="192" y="656" type="line"/>
      <point x="448" y="656" type="line"/>
      <point x="520" y="512" type="line"/>
      <point x="548" y="526" type="line"/>
      <point x="512" y="704" type="line"/>
      <point x="36" y="704" type="line"/>
      <point x="36" y="680" type="line"/>
      <point x="100" y="656" type="line"/>
      <point x="100" y="48" type="line"/>
      <point x="36" y="24" type="line"/>
      <point x="36" y="0" type="line"/>
      <point x="256" y="0" type="line"/>
    </contour>
  </outline>
</glyph>
<glyph name="G" format="1">
  <advance width="724"/>
  <unicode hex="0047"/>
  <outline>
    <contour>
      <point x="578" y="0" type="line"/>
      <point x="610" y="0" type="line"/>
      <point x="610" y="304" type="line"/>
      <point x="674" y="328" type="line"/>
      <point x="674" y="352" type="line"/>
      <point x="454" y="352" type="line"/>
      <point x="454" y="328" type="line"/>
      <point x="518" y="304" type="line"/>
      <point x="518" y="96" type="line"/>
      <point x="484" y="54"/>
      <point x="440" y="40"/>
      <point x="386" y="40" type="curve" smooth="yes"/>
      <point x="266" y="40"/>
      <point x="150" y="144"/>
      <point x="150" y="352" type="curve" smooth="yes"/>
      <point x="150" y="552"/>
      <point x="266" y="668"/>
      <point x="386" y="668" type="curve" smooth="yes"/>
      <point x="478" y="668"/>
      <point x="570" y="578"/>
      <point x="582" y="496" type="curve"/>
      <point x="614" y="496" type="line"/>
      <point x="614" y="704" type="line"/>
      <point x="590" y="704" type="line"/>
      <point x="542" y="656" type="line"/>
      <point x="500" y="696"/>
      <point x="444" y="720"/>
      <point x="386" y="720" type="curve" smooth="yes"/>
      <point x="202" y="720"/>
      <point x="50" y="592"/>
      <point x="50" y="352" type="curve" smooth="yes"/>
      <point x="50" y="112"/>
      <point x="202" y="-16"/>
      <point x="354" y="-16" type="curve" smooth="yes"/>
      <point x="436" y="-16"/>
      <point x="492" y="4"/>
      <point x="532" y="48" type="curve"/>
    </contour>
  </outline>
</glyph>
<glyph name="H" format="1">
  <advance width="680"/>
  <unicode hex="0048"/>
  <outline>
    <contour>
      <point x="256" y="24" type="line"/>
      <point x="192" y="48" type="line"/>
      <point x="192" y="352" type="line"/>
      <point x="488" y="352" type="line"/>
      <point x="488" y="48" type="line"/>
      <point x="424" y="24" type="line"/>
      <point x="424" y="0" type="line"/>
      <point x="644" y="0" type="line"/>
      <point x="644" y="24" type="line"/>
      <point x="580" y="48" type="line"/>
      <point x="580" y="656" type="line"/>
      <point x="644" y="680" type="line"/>
      <point x="644" y="704" type="line"/>
      <point x="424" y="704" type="line"/>
      <point x="424" y="680" type="line"/>
      <point x="488" y="656" type="line"/>
      <point x="488" y="400" type="line"/>
      <point x="192" y="400" type="line"/>
      <point x="192" y="656" type="line"/>
      <point x="256" y="680" type="line"/>
      <point x="256" y="704" type="line"/>
      <point x="36" y="704" type="line"/>
      <point x="36" y="680" type="line"/>
      <point x="100" y="656" type="line"/>
      <point x="100" y="48" type="line"/>
      <point x="36" y="24" type="line"/>
      <point x="36" y="0" type="line"/>
      <point x="256" y="0" type="line"/>
    </contour>
  </outline>
</glyph>
<glyph name="I" format="1">
  <advance width="292"/>
  <unicode hex="0049"/>
  <outline>
    <contour>
      <point x="256" y="24" type="line"/>
      <point x="192" y="48" type="line"/>
      <point x="192" y="656" type="line"/>
      <point x="256" y="680" type="line"/>
      <point x="256" y="704" type="line"/>
      <point x="36" y="704" type="line"/>
      <point x="36" y="680" type="line"/>
      <point x="100" y="656" type="line"/>
      <point x="100" y="48" type="line"/>
      <point x="36" y="24" type="line"/>
      <point x="36" y="0" type="line"/>
      <point x="256" y="0" type="line"/>
    </contour>
  </outline>
</glyph>
<glyph name="J" format="1">
  <advance width="440"/>
  <unicode hex="004A"/>
  <outline>
    <contour>
      <point x="160" y="-16" type="curve" smooth="yes"/>
      <point x="296" y="-16"/>
      <point x="352" y="80"/>
      <point x="352" y="192" type="curve" smooth="yes"/>
      <point x="352" y="656" type="line"/>
      <point x="416" y="688" type="line"/>
      <point x="416" y="704" type="line"/>
      <point x="196" y="704" type="line"/>
      <point x="196" y="688" type="line"/>
      <point x="260" y="656" type="line"/>
      <point x="260" y="160" type="line" smooth="yes"/>
      <point x="260" y="64"/>
      <point x="199" y="32"/>
      <point x="152" y="32" type="curve" smooth="yes"/>
      <point x="129" y="32"/>
      <point x="114" y="32"/>
      <point x="101" y="38" type="curve"/>
      <point x="108" y="47"/>
      <point x="112" y="59"/>
      <point x="112" y="72" type="curve" smooth="yes"/>
      <point x="112" y="104"/>
      <point x="88" y="128"/>
      <point x="56" y="128" type="curve" smooth="yes"/>
      <point x="24" y="128"/>
      <point x="0" y="104"/>
      <point x="0" y="72" type="curve" smooth="yes"/>
      <point x="0" y="70"/>
      <point x="0" y="68"/>
      <point x="0" y="67" type="curve"/>
      <point x="0" y="70"/>
      <point x="0" y="67"/>
      <point x="0" y="66" type="curve"/>
      <point x="1" y="64"/>
      <point x="1" y="62"/>
      <point x="1" y="61" type="curve"/>
      <point x="10" y="12"/>
      <point x="78" y="-16"/>
    </contour>
  </outline>
</glyph>
<glyph name="K" format="1">
  <advance width="604"/>
  <unicode hex="004B"/>
  <outline>
    <contour>
      <point x="250" y="16" type="line"/>
      <point x="186" y="48" type="line"/>
      <point x="186" y="378" type="line"/>
      <point x="430" y="0" type="line"/>
      <point x="574" y="0" type="line"/>
      <point x="574" y="16" type="line"/>
      <point x="510" y="48" type="line"/>
      <point x="266" y="424" type="line"/>
      <point x="534" y="688" type="line"/>
      <point x="534" y="704" type="line"/>
      <point x="382" y="704" type="line"/>
      <point x="382" y="688" type="line"/>
      <point x="446" y="656" type="line"/>
      <point x="186" y="396" type="line"/>
      <point x="186" y="656" type="line"/>
      <point x="250" y="688" type="line"/>
      <point x="250" y="704" type="line"/>
      <point x="30" y="704" type="line"/>
      <point x="30" y="688" type="line"/>
      <point x="94" y="656" type="line"/>
      <point x="94" y="48" type="line"/>
      <point x="30" y="16" type="line"/>
      <point x="30" y="0" type="line"/>
      <point x="250" y="0" type="line"/>
    </contour>
  </outline>
</glyph>
<glyph name="L" format="1">
  <advance width="562"/>
  <unicode hex="004C"/>
  <outline>
    <contour>
      <point x="542" y="210" type="line"/>
      <point x="514" y="224" type="line"/>
      <point x="426" y="48" type="line"/>
      <point x="186" y="48" type="line"/>
      <point x="186" y="656" type="line"/>
      <point x="250" y="680" type="line"/>
      <point x="250" y="704" type="line"/>
      <point x="30" y="704" type="line"/>
      <point x="30" y="680" type="line"/>
      <point x="94" y="656" type="line"/>
      <point x="94" y="48" type="line"/>
      <point x="30" y="24" type="line"/>
      <point x="30" y="0" type="line"/>
      <point x="498" y="0" type="line"/>
    </contour>
  </outline>
</glyph>
<glyph name="M" format="1">
  <advance width="840"/>
  <unicode hex="004D"/>
  <outline>
    <contour>
      <point x="220" y="16" type="line"/>
      <point x="156" y="48" type="line"/>
      <point x="156" y="508" type="line"/>
      <point x="376" y="0" type="line"/>
      <point x="412" y="0" type="line"/>
      <point x="648" y="508" type="line"/>
      <point x="648" y="48" type="line"/>
      <point x="584" y="16" type="line"/>
      <point x="584" y="0" type="line"/>
      <point x="804" y="0" type="line"/>
      <point x="804" y="16" type="line"/>
      <point x="740" y="48" type="line"/>
      <point x="740" y="656" type="line"/>
      <point x="804" y="688" type="line"/>
      <point x="804" y="704" type="line"/>
      <point x="676" y="704" type="line"/>
      <point x="416" y="124" type="line"/>
      <point x="164" y="704" type="line"/>
      <point x="36" y="704" type="line"/>
      <point x="36" y="688" type="line"/>
      <point x="100" y="648" type="line"/>
      <point x="100" y="48" type="line"/>
      <point x="36" y="16" type="line"/>
      <point x="36" y="0" type="line"/>
      <point x="220" y="0" type="line"/>
    </contour>
  </outline>
</glyph>
<glyph name="N" format="1">
  <advance width="668"/>
  <unicode hex="004E"/>
  <outline>
    <contour>
      <point x="222" y="24" type="line"/>
      <point x="158" y="56" type="line"/>
      <point x="158" y="568" type="line"/>
      <point x="510" y="0" type="line"/>
      <point x="574" y="0" type="line"/>
      <point x="574" y="648" type="line"/>
      <point x="638" y="680" type="line"/>
      <point x="638" y="704" type="line"/>
      <point x="446" y="704" type="line"/>
      <point x="446" y="680" type="line"/>
      <point x="510" y="648" type="line"/>
      <point x="510" y="172" type="line"/>
      <point x="174" y="704" type="line"/>
      <point x="30" y="704" type="line"/>
      <point x="30" y="680" type="line"/>
      <point x="94" y="648" type="line"/>
      <point x="94" y="56" type="line"/>
      <point x="30" y="24" type="line"/>
      <point x="30" y="0" type="line"/>
      <point x="222" y="0" type="line"/>
    </contour>
  </outline>
</glyph>
<glyph name="O" format="1">
  <advance width="716"/>
  <unicode hex="004F"/>
  <outline>
    <contour>
      <point x="38" y="352" type="curve" smooth="yes"/>
      <point x="38" y="112"/>
      <point x="182" y="-16"/>
      <point x="358" y="-16" type="curve" smooth="yes"/>
      <point x="538" y="-16"/>
      <point x="678" y="112"/>
      <point x="678" y="352" type="curve" smooth="yes"/>
      <point x="678" y="592"/>
      <point x="538" y="720"/>
      <point x="358" y="720" type="curve" smooth="yes"/>
      <point x="182" y="720"/>
      <point x="38" y="592"/>
    </contour>
    <contour>
      <point x="358" y="668" type="curve" smooth="yes"/>
      <point x="474" y="668"/>
      <point x="578" y="576"/>
      <point x="578" y="352" type="curve" smooth="yes"/>
      <point x="578" y="128"/>
      <point x="474" y="36"/>
      <point x="358" y="36" type="curve" smooth="yes"/>
      <point x="246" y="36"/>
      <point x="138" y="128"/>
      <point x="138" y="352" type="curve" smooth="yes"/>
      <point x="138" y="576"/>
      <point x="246" y="668"/>
    </contour>
  </outline>
</glyph>
<glyph name="P" format="1">
  <advance width="562"/>
  <unicode hex="0050"/>
  <outline>
    <contour>
      <point x="192" y="656" type="line"/>
      <point x="296" y="656" type="line" smooth="yes"/>
      <point x="368" y="656"/>
      <point x="432" y="608"/>
      <point x="432" y="520" type="curve" smooth="yes"/>
      <point x="432" y="432"/>
      <point x="368" y="384"/>
      <point x="296" y="384" type="curve" smooth="yes"/>
      <point x="192" y="384" type="line"/>
    </contour>
    <contour>
      <point x="240" y="24" type="line"/>
      <point x="192" y="48" type="line"/>
      <point x="192" y="336" type="line"/>
      <point x="324" y="336" type="line" smooth="yes"/>
      <point x="436" y="336"/>
      <point x="532" y="400"/>
      <point x="532" y="520" type="curve" smooth="yes"/>
      <point x="532" y="640"/>
      <point x="436" y="704"/>
      <point x="324" y="704" type="curve" smooth="yes"/>
      <point x="36" y="704" type="line"/>
      <point x="36" y="680" type="line"/>
      <point x="100" y="656" type="line"/>
      <point x="100" y="48" type="line"/>
      <point x="36" y="24" type="line"/>
      <point x="36" y="0" type="line"/>
      <point x="240" y="0" type="line"/>
    </contour>
  </outline>
</glyph>
<glyph name="Q" format="1">
  <advance width="726"/>
  <unicode hex="0051"/>
  <outline>
    <contour>
      <point x="590" y="-88" type="curve" smooth="yes"/>
      <point x="644" y="-88"/>
      <point x="678" y="-48"/>
      <point x="710" y="-16" type="curve"/>
      <point x="694" y="0" type="line"/>
      <point x="662" y="-24"/>
      <point x="646" y="-32"/>
      <point x="630" y="-32" type="curve" smooth="yes"/>
      <point x="604" y="-32"/>
      <point x="580" y="-14"/>
      <point x="558" y="8" type="curve" smooth="yes"/>
      <point x="534" y="34" type="line"/>
      <point x="622" y="92"/>
      <point x="678" y="200"/>
      <point x="678" y="352" type="curve" smooth="yes"/>
      <point x="678" y="592"/>
      <point x="538" y="720"/>
      <point x="358" y="720" type="curve" smooth="yes"/>
      <point x="182" y="720"/>
      <point x="38" y="592"/>
      <point x="38" y="352" type="curve" smooth="yes"/>
      <point x="38" y="112"/>
      <point x="182" y="-16"/>
      <point x="358" y="-16" type="curve" smooth="yes"/>
      <point x="392" y="-16"/>
      <point x="426" y="-12"/>
      <point x="456" y="-2" type="curve"/>
      <point x="494" y="-40" type="line" smooth="yes"/>
      <point x="526" y="-72"/>
      <point x="554" y="-88"/>
    </contour>
    <contour>
      <point x="414" y="152" type="line" smooth="yes"/>
      <point x="382" y="184"/>
      <point x="338" y="200"/>
      <point x="302" y="200" type="curve" smooth="yes"/>
      <point x="246" y="200"/>
      <point x="212" y="160"/>
      <point x="190" y="136" type="curve"/>
      <point x="158" y="186"/>
      <point x="138" y="258"/>
      <point x="138" y="352" type="curve" smooth="yes"/>
      <point x="138" y="576"/>
      <point x="246" y="668"/>
      <point x="358" y="668" type="curve" smooth="yes"/>
      <point x="474" y="668"/>
      <point x="578" y="576"/>
      <point x="578" y="352" type="curve" smooth="yes"/>
      <point x="578" y="218"/>
      <point x="540" y="130"/>
      <point x="484" y="82" type="curve"/>
    </contour>
    <contour>
      <point x="358" y="36" type="curve" smooth="yes"/>
      <point x="300" y="36"/>
      <point x="244" y="62"/>
      <point x="202" y="116" type="curve"/>
      <point x="212" y="124"/>
      <point x="240" y="144"/>
      <point x="278" y="144" type="curve" smooth="yes"/>
      <point x="302" y="144"/>
      <point x="328" y="126"/>
      <point x="350" y="104" type="curve" smooth="yes"/>
      <point x="412" y="44" type="line"/>
      <point x="394" y="38"/>
      <point x="376" y="36"/>
    </contour>
  </outline>
</glyph>
<glyph name="R" format="1">
  <advance width="646"/>
  <unicode hex="0052"/>
  <outline>
    <contour>
      <point x="186" y="656" type="line"/>
      <point x="306" y="656" type="line" smooth="yes"/>
      <point x="378" y="656"/>
      <point x="442" y="608"/>
      <point x="442" y="520" type="curve" smooth="yes"/>
      <point x="442" y="432"/>
      <point x="378" y="384"/>
      <point x="306" y="384" type="curve" smooth="yes"/>
      <point x="186" y="384" type="line"/>
    </contour>
    <contour>
      <point x="250" y="24" type="line"/>
      <point x="186" y="48" type="line"/>
      <point x="186" y="336" type="line"/>
      <point x="298" y="336" type="line"/>
      <point x="466" y="0" type="line"/>
      <point x="606" y="0" type="line"/>
      <point x="606" y="24" type="line"/>
      <point x="542" y="48" type="line"/>
      <point x="388" y="342" type="line"/>
      <point x="476" y="360"/>
      <point x="542" y="420"/>
      <point x="542" y="520" type="curve" smooth="yes"/>
      <point x="542" y="640"/>
      <point x="446" y="704"/>
      <point x="334" y="704" type="curve" smooth="yes"/>
      <point x="30" y="704" type="line"/>
      <point x="30" y="680" type="line"/>
      <point x="94" y="656" type="line"/>
      <point x="94" y="48" type="line"/>
      <point x="30" y="24" type="line"/>
      <point x="30" y="0" type="line"/>
      <point x="250" y="0" type="line"/>
    </contour>
  </outline>
</glyph>
<glyph name="S" format="1">
  <advance width="548"/>
  <unicode hex="0053"/>
  <outline>
    <contour>
      <point x="298" y="-8" type="curve" smooth="yes"/>
      <point x="426" y="-8"/>
      <point x="498" y="72"/>
      <point x="498" y="184" type="curve" smooth="yes"/>
      <point x="498" y="296"/>
      <point x="402" y="344"/>
      <point x="290" y="408" type="curve" smooth="yes"/>
      <point x="178" y="472"/>
      <point x="130" y="500"/>
      <point x="130" y="568" type="curve" smooth="yes"/>
      <point x="130" y="616"/>
      <point x="178" y="668"/>
      <point x="258" y="668" type="curve" smooth="yes"/>
      <point x="354" y="668"/>
      <point x="402" y="578"/>
      <point x="418" y="496" type="curve"/>
      <point x="450" y="496" type="line"/>
      <point x="450" y="704" type="line"/>
      <point x="426" y="704" type="line"/>
      <point x="382" y="660" type="line"/>
      <point x="348" y="692"/>
      <point x="304" y="712"/>
      <point x="250" y="712" type="curve" smooth="yes"/>
      <point x="114" y="712"/>
      <point x="50" y="630"/>
      <point x="50" y="528" type="curve" smooth="yes"/>
      <point x="50" y="432"/>
      <point x="144" y="382"/>
      <point x="274" y="308" type="curve" smooth="yes"/>
      <point x="386" y="244"/>
      <point x="402" y="200"/>
      <point x="402" y="152" type="curve" smooth="yes"/>
      <point x="402" y="88"/>
      <point x="370" y="44"/>
      <point x="282" y="44" type="curve" smooth="yes"/>
      <point x="170" y="44"/>
      <point x="90" y="160"/>
      <point x="82" y="256" type="curve"/>
      <point x="50" y="256" type="line"/>
      <point x="50" y="0" type="line"/>
      <point x="74" y="0" type="line"/>
      <point x="136" y="62" type="line"/>
      <point x="178" y="20"/>
      <point x="234" y="-8"/>
    </contour>
  </outline>
</glyph>
<glyph name="T" format="1">
  <advance width="632"/>
  <unicode hex="0054"/>
  <outline>
    <contour>
      <point x="426" y="24" type="line"/>
      <point x="362" y="48" type="line"/>
      <point x="362" y="656" type="line"/>
      <point x="508" y="656" type="line"/>
      <point x="580" y="528" type="line"/>
      <point x="612" y="544" type="line"/>
      <point x="564" y="704" type="line"/>
      <point x="68" y="704" type="line"/>
      <point x="20" y="544" type="line"/>
      <point x="52" y="528" type="line"/>
      <point x="124" y="656" type="line"/>
      <point x="270" y="656" type="line"/>
      <point x="270" y="48" type="line"/>
      <point x="206" y="24" type="line"/>
      <point x="206" y="0" type="line"/>
      <point x="426" y="0" type="line"/>
    </contour>
  </outline>
</glyph>
<glyph name="U" format="1">
  <advance width="576"/>
  <unicode hex="0055"/>
  <outline>
    <contour>
      <point x="392" y="184" type="line" smooth="yes"/>
      <point x="392" y="104"/>
      <point x="290" y="36"/>
      <point x="242" y="36" type="curve" smooth="yes"/>
      <point x="194" y="36"/>
      <point x="92" y="104"/>
      <point x="92" y="184" type="curve" smooth="yes"/>
      <point x="92" y="656" type="line"/>
      <point x="156" y="680" type="line"/>
      <point x="156" y="704" type="line"/>
      <point x="-64" y="704" type="line"/>
      <point x="-64" y="680" type="line"/>
      <point x="0" y="656" type="line"/>
      <point x="0" y="208" type="line" smooth="yes"/>
      <point x="0" y="80"/>
      <point x="130" y="-16"/>
      <point x="226" y="-16" type="curve" smooth="yes"/>
      <point x="322" y="-16"/>
      <point x="448" y="80"/>
      <point x="448" y="208" type="curve" smooth="yes"/>
      <point x="448" y="656" type="line"/>
      <point x="512" y="680" type="line"/>
      <point x="512" y="704" type="line"/>
      <point x="328" y="704" type="line"/>
      <point x="328" y="680" type="line"/>
      <point x="392" y="656" type="line"/>
    </contour>
  </outline>
</glyph>
<glyph name="V" format="1">
  <advance width="660"/>
  <unicode hex="0056"/>
  <outline>
    <contour>
      <point x="330" y="0" type="line"/>
      <point x="362" y="0" type="line"/>
      <point x="586" y="656" type="line"/>
      <point x="650" y="680" type="line"/>
      <point x="650" y="704" type="line"/>
      <point x="466" y="704" type="line"/>
      <point x="466" y="680" type="line"/>
      <point x="530" y="656" type="line"/>
      <point x="368" y="168" type="line"/>
      <point x="174" y="656" type="line"/>
      <point x="238" y="680" type="line"/>
      <point x="238" y="704" type="line"/>
      <point x="10" y="704" type="line"/>
      <point x="10" y="680" type="line"/>
      <point x="74" y="656" type="line"/>
    </contour>
  </outline>
</glyph>
<glyph name="W" format="1">
  <advance width="1008"/>
  <unicode hex="0057"/>
  <outline>
    <contour>
      <point x="328" y="0" type="line"/>
      <point x="360" y="0" type="line"/>
      <point x="510" y="438" type="line"/>
      <point x="680" y="0" type="line"/>
      <point x="712" y="0" type="line"/>
      <point x="936" y="656" type="line"/>
      <point x="1000" y="680" type="line"/>
      <point x="1000" y="704" type="line"/>
      <point x="816" y="704" type="line"/>
      <point x="816" y="680" type="line"/>
      <point x="880" y="656" type="line"/>
      <point x="718" y="168" type="line"/>
      <point x="524" y="656" type="line"/>
      <point x="588" y="680" type="line"/>
      <point x="588" y="704" type="line"/>
      <point x="360" y="704" type="line"/>
      <point x="360" y="680" type="line"/>
      <point x="424" y="656" type="line"/>
      <point x="480" y="512" type="line"/>
      <point x="366" y="168" type="line"/>
      <point x="172" y="656" type="line"/>
      <point x="236" y="680" type="line"/>
      <point x="236" y="704" type="line"/>
      <point x="8" y="704" type="line"/>
      <point x="8" y="680" type="line"/>
      <point x="72" y="656" type="line"/>
    </contour>
  </outline>
</glyph>
<glyph name="X" format="1">
  <advance width="658"/>
  <unicode hex="0058"/>
  <outline>
    <contour>
      <point x="194" y="24" type="line"/>
      <point x="130" y="48" type="line"/>
      <point x="302" y="310" type="line"/>
      <point x="474" y="48" type="line"/>
      <point x="410" y="24" type="line"/>
      <point x="410" y="0" type="line"/>
      <point x="650" y="0" type="line"/>
      <point x="650" y="24" type="line"/>
      <point x="586" y="48" type="line"/>
      <point x="364" y="388" type="line"/>
      <point x="538" y="656" type="line"/>
      <point x="602" y="680" type="line"/>
      <point x="602" y="704" type="line"/>
      <point x="418" y="704" type="line"/>
      <point x="418" y="680" type="line"/>
      <point x="482" y="656" type="line"/>
      <point x="336" y="432" type="line"/>
      <point x="188" y="656" type="line"/>
      <point x="252" y="680" type="line"/>
      <point x="252" y="704" type="line"/>
      <point x="8" y="704" type="line"/>
      <point x="8" y="680" type="line"/>
      <point x="74" y="656" type="line"/>
      <point x="274" y="352" type="line"/>
      <point x="74" y="48" type="line"/>
      <point x="8" y="24" type="line"/>
      <point x="8" y="0" type="line"/>
      <point x="194" y="0" type="line"/>
    </contour>
  </outline>
</glyph>
<glyph name="Y" format="1">
  <advance width="616"/>
  <unicode hex="0059"/>
  <outline>
    <contour>
      <point x="262" y="288" type="line"/>
      <point x="262" y="48" type="line"/>
      <point x="198" y="24" type="line"/>
      <point x="198" y="0" type="line"/>
      <point x="418" y="0" type="line"/>
      <point x="418" y="24" type="line"/>
      <point x="354" y="48" type="line"/>
      <point x="354" y="288" type="line"/>
      <point x="532" y="656" type="line"/>
      <point x="596" y="680" type="line"/>
      <point x="596" y="704" type="line"/>
      <point x="412" y="704" type="line"/>
      <point x="412" y="680" type="line"/>
      <point x="476" y="656" type="line"/>
      <point x="328" y="360" type="line"/>
      <point x="180" y="656" type="line"/>
      <point x="244" y="680" type="line"/>
      <point x="244" y="704" type="line"/>
      <point x="20" y="704" type="line"/>
      <point x="20" y="680" type="line"/>
      <point x="84" y="656" type="line"/>
    </contour>
  </outline>
</glyph>
<glyph name="Z" format="1">
  <advance width="568"/>
  <unicode hex="005A"/>
  <outline>
    <contour>
      <point x="504" y="0" type="line"/>
      <point x="548" y="210" type="line"/>
      <point x="520" y="224" type="line"/>
      <point x="432" y="48" type="line"/>
      <point x="150" y="48" type="line"/>
      <point x="532" y="688" type="line"/>
      <point x="532" y="704" type="line"/>
      <point x="68" y="704" type="line"/>
      <point x="32" y="526" type="line"/>
      <point x="60" y="512" type="line"/>
      <point x="132" y="656" type="line"/>
      <point x="402" y="656" type="line"/>
      <point x="20" y="16" type="line"/>
      <point x="20" y="0" type="line"/>
    </contour>
  </outline>
</glyph>
<glyph name="underscore" format="1">
  <advance width="544"/>
  <unicode hex="005F"/>
  <outline>
    <contour>
      <point x="528" y="64" type="line"/>
      <point x="16" y="64" type="line"/>
      <point x="16" y="0" type="line"/>
      <point x="528" y="0" type="line"/>
    </contour>
  </outline>
</glyph>
<glyph name="a" format="1">
  <advance width="476"/>
  <unicode hex="0061"/>
  <outline>
    <contour>
      <point x="218" y="38" type="curve" smooth="yes"/>
      <point x="154" y="38"/>
      <point x="142" y="96"/>
      <point x="142" y="128" type="curve" smooth="yes"/>
      <point x="142" y="192"/>
      <point x="178" y="240"/>
      <point x="286" y="240" type="curve" smooth="yes"/>
      <point x="326" y="240" type="line"/>
      <point x="326" y="96" type="line"/>
      <point x="290" y="60"/>
      <point x="246" y="38"/>
    </contour>
    <contour>
      <point x="338" y="50" type="curve"/>
      <point x="338" y="0" type="line"/>
      <point x="442" y="0" type="line"/>
      <point x="442" y="24" type="line"/>
      <point x="410" y="56" type="line"/>
      <point x="410" y="320" type="line" smooth="yes"/>
      <point x="410" y="432"/>
      <point x="374" y="496"/>
      <point x="238" y="496" type="curve" smooth="yes"/>
      <point x="140" y="496"/>
      <point x="62" y="436"/>
      <point x="58" y="372" type="curve"/>
      <point x="58" y="370"/>
      <point x="58" y="372"/>
      <point x="58" y="372" type="curve"/>
      <point x="58" y="372"/>
      <point x="58" y="370"/>
      <point x="58" y="368" type="curve" smooth="yes"/>
      <point x="58" y="336"/>
      <point x="82" y="312"/>
      <point x="114" y="312" type="curve" smooth="yes"/>
      <point x="146" y="312"/>
      <point x="170" y="336"/>
      <point x="170" y="368" type="curve" smooth="yes"/>
      <point x="170" y="388"/>
      <point x="162" y="406"/>
      <point x="146" y="416" type="curve"/>
      <point x="162" y="436"/>
      <point x="196" y="448"/>
      <point x="238" y="448" type="curve" smooth="yes"/>
      <point x="310" y="448"/>
      <point x="326" y="400"/>
      <point x="326" y="352" type="curve" smooth="yes"/>
      <point x="326" y="288" type="line"/>
      <point x="286" y="288" type="line" smooth="yes"/>
      <point x="138" y="288"/>
      <point x="46" y="224"/>
      <point x="46" y="128" type="curve" smooth="yes"/>
      <point x="46" y="56"/>
      <point x="98" y="-16"/>
      <point x="210" y="-16" type="curve" smooth="yes"/>
      <point x="250" y="-16"/>
      <point x="290" y="2"/>
    </contour>
  </outline>
</glyph>
<glyph name="b" format="1">
  <advance width="560"/>
  <unicode hex="0062"/>
  <outline>
    <contour>
      <point x="312" y="-16" type="curve" smooth="yes"/>
      <point x="456" y="-16"/>
      <point x="520" y="104"/>
      <point x="520" y="240" type="curve" smooth="yes"/>
      <point x="520" y="376"/>
      <point x="456" y="496"/>
      <point x="312" y="496" type="curve" smooth="yes"/>
      <point x="272" y="496"/>
      <point x="232" y="480"/>
      <point x="196" y="444" type="curve" smooth="yes"/>
      <point x="188" y="436" type="line"/>
      <point x="188" y="704" type="line"/>
      <point x="40" y="704" type="line"/>
      <point x="40" y="680" type="line"/>
      <point x="104" y="648" type="line"/>
      <point x="104" y="32" type="line"/>
      <point x="200" y="0" type="line" smooth="yes"/>
      <point x="224" y="-8"/>
      <point x="280" y="-16"/>
    </contour>
    <contour>
      <point x="312" y="32" type="curve" smooth="yes"/>
      <point x="264" y="32"/>
      <point x="216" y="56"/>
      <point x="196" y="76" type="curve" smooth="yes"/>
      <point x="188" y="84" type="line"/>
      <point x="188" y="388" type="line"/>
      <point x="196" y="396" type="line" smooth="yes"/>
      <point x="232" y="432"/>
      <point x="264" y="448"/>
      <point x="312" y="448" type="curve" smooth="yes"/>
      <point x="392" y="448"/>
      <point x="416" y="344"/>
      <point x="416" y="240" type="curve" smooth="yes"/>
      <point x="416" y="136"/>
      <point x="392" y="32"/>
    </contour>
  </outline>
</glyph>
<glyph name="c" format="1">
  <advance width="478"/>
  <unicode hex="0063"/>
  <outline>
    <contour>
      <point x="448" y="112" type="curve"/>
      <point x="424" y="124" type="line"/>
      <point x="400" y="96"/>
      <point x="360" y="48"/>
      <point x="288" y="48" type="curve" smooth="yes"/>
      <point x="224" y="48"/>
      <point x="136" y="88"/>
      <point x="136" y="240" type="curve" smooth="yes"/>
      <point x="136" y="392"/>
      <point x="200" y="448"/>
      <point x="264" y="448" type="curve" smooth="yes"/>
      <point x="290" y="448"/>
      <point x="336" y="444"/>
      <point x="354" y="416" type="curve"/>
      <point x="338" y="406"/>
      <point x="328" y="390"/>
      <point x="328" y="368" type="curve" smooth="yes"/>
      <point x="328" y="336"/>
      <point x="352" y="312"/>
      <point x="384" y="312" type="curve" smooth="yes"/>
      <point x="416" y="312"/>
      <point x="440" y="336"/>
      <point x="440" y="368" type="curve" smooth="yes"/>
      <point x="440" y="448"/>
      <point x="344" y="496"/>
      <point x="264" y="496" type="curve" smooth="yes"/>
      <point x="128" y="496"/>
      <point x="40" y="384"/>
      <point x="40" y="240" type="curve" smooth="yes"/>
      <point x="40" y="96"/>
      <point x="128" y="-16"/>
      <point x="264" y="-16" type="curve" smooth="yes"/>
      <point x="384" y="-16"/>
      <point x="432" y="80"/>
    </contour>
  </outline>
</glyph>
<glyph name="d" format="1">
  <advance width="558"/>
  <unicode hex="0064"/>
  <outline>
    <contour>
      <point x="264" y="32" type="curve" smooth="yes"/>
      <point x="200" y="32"/>
      <point x="136" y="88"/>
      <point x="136" y="240" type="curve" smooth="yes"/>
      <point x="136" y="392"/>
      <point x="200" y="448"/>
      <point x="264" y="448" type="curve" smooth="yes"/>
      <point x="312" y="448"/>
      <point x="336" y="436"/>
      <point x="372" y="400" type="curve" smooth="yes"/>
      <point x="380" y="392" type="line"/>
      <point x="380" y="80" type="line"/>
      <point x="344" y="44"/>
      <point x="304" y="32"/>
    </contour>
    <contour>
      <point x="380" y="32" type="curve" smooth="yes"/>
      <point x="392" y="44" type="line"/>
      <point x="392" y="0" type="line"/>
      <point x="528" y="0" type="line"/>
      <point x="528" y="24" type="line"/>
      <point x="464" y="48" type="line"/>
      <point x="464" y="704" type="line"/>
      <point x="316" y="704" type="line"/>
      <point x="316" y="680" type="line"/>
      <point x="380" y="656" type="line"/>
      <point x="380" y="478" type="line"/>
      <point x="372" y="480" type="line" smooth="yes"/>
      <point x="348" y="488"/>
      <point x="296" y="496"/>
      <point x="264" y="496" type="curve" smooth="yes"/>
      <point x="128" y="496"/>
      <point x="40" y="384"/>
      <point x="40" y="240" type="curve" smooth="yes"/>
      <point x="40" y="96"/>
      <point x="128" y="-16"/>
      <point x="264" y="-16" type="curve" smooth="yes"/>
      <point x="296" y="-16"/>
      <point x="344" y="-4"/>
    </contour>
  </outline>
</glyph>
<glyph name="e" format="1">
  <advance width="504.986273336"/>
  <unicode hex="0065"/>
  <outline>
    <contour>
      <point x="264" y="448" type="curve" smooth="yes"/>
      <point x="328" y="448"/>
      <point x="380" y="376"/>
      <point x="368" y="304" type="curve"/>
      <point x="140" y="304" type="line"/>
      <point x="156" y="408"/>
      <point x="210" y="448"/>
    </contour>
    <contour>
      <point x="460" y="112" type="curve"/>
      <point x="436" y="124" type="line"/>
      <point x="410" y="92"/>
      <point x="364" y="48"/>
      <point x="296" y="48" type="curve" smooth="yes"/>
      <point x="232" y="48"/>
      <point x="136" y="88"/>
      <point x="136" y="240" type="curve" smooth="yes"/>
      <point x="136" y="246"/>
      <point x="136" y="252"/>
      <point x="136" y="256" type="curve"/>
      <point x="464" y="256" type="line"/>
      <point x="474" y="384"/>
      <point x="408" y="496"/>
      <point x="264" y="496" type="curve" smooth="yes"/>
      <point x="128" y="496"/>
      <point x="40" y="384"/>
      <point x="40" y="240" type="curve" smooth="yes"/>
      <point x="40" y="96"/>
      <point x="136" y="-16"/>
      <point x="272" y="-16" type="curve" smooth="yes"/>
      <point x="392" y="-16"/>
      <point x="444" y="80"/>
    </contour>
  </outline>
</glyph>
<glyph name="f" format="1">
  <advance width="330"/>
  <unicode hex="0066"/>
  <outline>
    <contour>
      <point x="242" y="24" type="line"/>
      <point x="178" y="48" type="line"/>
      <point x="178" y="432" type="line"/>
      <point x="314" y="432" type="line"/>
      <point x="314" y="480" type="line"/>
      <point x="178" y="480" type="line"/>
      <point x="178" y="560" type="line" smooth="yes"/>
      <point x="178" y="626"/>
      <point x="210" y="694"/>
      <point x="260" y="698" type="curve"/>
      <point x="258" y="692"/>
      <point x="258" y="686"/>
      <point x="258" y="680" type="curve" smooth="yes"/>
      <point x="258" y="648"/>
      <point x="282" y="624"/>
      <point x="314" y="624" type="curve" smooth="yes"/>
      <point x="346" y="624"/>
      <point x="370" y="648"/>
      <point x="370" y="680" type="curve" smooth="yes"/>
      <point x="370" y="682"/>
      <point x="370" y="684"/>
      <point x="370" y="684" type="curve"/>
      <point x="370" y="684"/>
      <point x="370" y="686"/>
      <point x="370" y="688" type="curve"/>
      <point x="368" y="688"/>
      <point x="368" y="688"/>
      <point x="368" y="688" type="curve"/>
      <point x="368" y="700"/>
      <point x="362" y="712"/>
      <point x="354" y="720" type="curve" smooth="yes"/>
      <point x="344" y="732"/>
      <point x="326" y="740"/>
      <point x="298" y="740" type="curve" smooth="yes"/>
      <point x="170" y="740"/>
      <point x="94" y="648"/>
      <point x="94" y="488" type="curve" smooth="yes"/>
      <point x="94" y="480" type="line"/>
      <point x="30" y="480" type="line"/>
      <point x="30" y="432" type="line"/>
      <point x="94" y="432" type="line"/>
      <point x="94" y="48" type="line"/>
      <point x="30" y="24" type="line"/>
      <point x="30" y="0" type="line"/>
      <point x="242" y="0" type="line"/>
    </contour>
  </outline>
</glyph>
<glyph name="g" format="1">
  <advance width="512"/>
  <unicode hex="0067"/>
  <outline>
    <contour>
      <point x="348" y="320" type="curve" smooth="yes"/>
      <point x="348" y="256"/>
      <point x="312" y="208"/>
      <point x="256" y="208" type="curve" smooth="yes"/>
      <point x="204" y="208"/>
      <point x="164" y="256"/>
      <point x="164" y="320" type="curve" smooth="yes"/>
      <point x="164" y="392"/>
      <point x="204" y="432"/>
      <point x="256" y="432" type="curve" smooth="yes"/>
      <point x="312" y="432"/>
      <point x="348" y="392"/>
    </contour>
    <contour>
      <point x="248" y="-208" type="curve" smooth="yes"/>
      <point x="388" y="-208"/>
      <point x="480" y="-160"/>
      <point x="480" y="-64" type="curve" smooth="yes"/>
      <point x="480" y="32"/>
      <point x="412" y="80"/>
      <point x="304" y="80" type="curve" smooth="yes"/>
      <point x="152" y="80" type="line" smooth="yes"/>
      <point x="132" y="80"/>
      <point x="112" y="96"/>
      <point x="112" y="120" type="curve" smooth="yes"/>
      <point x="112" y="144"/>
      <point x="128" y="160"/>
      <point x="152" y="160" type="curve" smooth="yes"/>
      <point x="256" y="160" type="line" smooth="yes"/>
      <point x="384" y="160"/>
      <point x="440" y="232"/>
      <point x="440" y="320" type="curve" smooth="yes"/>
      <point x="440" y="355"/>
      <point x="431" y="388"/>
      <point x="412" y="414" type="curve"/>
      <point x="496" y="456" type="line"/>
      <point x="496" y="480" type="line"/>
      <point x="256" y="480" type="line" smooth="yes"/>
      <point x="132" y="480"/>
      <point x="72" y="408"/>
      <point x="72" y="320" type="curve" smooth="yes"/>
      <point x="72" y="268"/>
      <point x="95" y="221"/>
      <point x="138" y="192" type="curve"/>
      <point x="87" y="189"/>
      <point x="48" y="148"/>
      <point x="48" y="96" type="curve" smooth="yes"/>
      <point x="48" y="42"/>
      <point x="80" y="0"/>
      <point x="144" y="0" type="curve" smooth="yes"/>
      <point x="248" y="0" type="line" smooth="yes"/>
      <point x="344" y="0"/>
      <point x="408" y="-24"/>
      <point x="408" y="-80" type="curve" smooth="yes"/>
      <point x="408" y="-136"/>
      <point x="336" y="-168"/>
      <point x="248" y="-168" type="curve" smooth="yes"/>
      <point x="193" y="-168"/>
      <point x="144" y="-153"/>
      <point x="122" y="-133" type="curve"/>
      <point x="136" y="-123"/>
      <point x="144" y="-107"/>
      <point x="144" y="-88" type="curve" smooth="yes"/>
      <point x="144" y="-56"/>
      <point x="120" y="-32"/>
      <point x="88" y="-32" type="curve" smooth="yes"/>
      <point x="56" y="-32"/>
      <point x="32" y="-56"/>
      <point x="32" y="-88" type="curve" smooth="yes"/>
      <point x="32" y="-152"/>
      <point x="116" y="-208"/>
    </contour>
  </outline>
</glyph>
<glyph name="h" format="1">
  <advance width="544"/>
  <unicode hex="0068"/>
  <outline>
    <contour>
      <point x="236" y="24" type="line"/>
      <point x="172" y="48" type="line"/>
      <point x="172" y="376" type="line"/>
      <point x="180" y="384" type="line" smooth="yes"/>
      <point x="216" y="420"/>
      <point x="256" y="440"/>
      <point x="288" y="440" type="curve" smooth="yes"/>
      <point x="336" y="440"/>
      <point x="372" y="400"/>
      <point x="372" y="320" type="curve" smooth="yes"/>
      <point x="372" y="48" type="line"/>
      <point x="308" y="24" type="line"/>
      <point x="308" y="0" type="line"/>
      <point x="520" y="0" type="line"/>
      <point x="520" y="24" type="line"/>
      <point x="456" y="48" type="line"/>
      <point x="456" y="304" type="line" smooth="yes"/>
      <point x="456" y="416"/>
      <point x="432" y="496"/>
      <point x="320" y="496" type="curve" smooth="yes"/>
      <point x="280" y="496"/>
      <point x="228" y="480"/>
      <point x="180" y="432" type="curve" smooth="yes"/>
      <point x="172" y="424" type="line"/>
      <point x="172" y="704" type="line"/>
      <point x="24" y="704" type="line"/>
      <point x="24" y="680" type="line"/>
      <point x="88" y="656" type="line"/>
      <point x="88" y="48" type="line"/>
      <point x="24" y="24" type="line"/>
      <point x="24" y="0" type="line"/>
      <point x="236" y="0" type="line"/>
    </contour>
  </outline>
</glyph>
<glyph name="i" format="1">
  <advance width="272"/>
  <unicode hex="0069"/>
  <outline>
    <contour>
      <point x="138" y="720" type="curve" smooth="yes"/>
      <point x="106" y="720"/>
      <point x="82" y="696"/>
      <point x="82" y="664" type="curve" smooth="yes"/>
      <point x="82" y="632"/>
      <point x="106" y="608"/>
      <point x="138" y="608" type="curve" smooth="yes"/>
      <point x="170" y="608"/>
      <point x="194" y="632"/>
      <point x="194" y="664" type="curve" smooth="yes"/>
      <point x="194" y="696"/>
      <point x="170" y="720"/>
    </contour>
    <contour>
      <point x="242" y="24" type="line"/>
      <point x="178" y="48" type="line"/>
      <point x="178" y="480" type="line"/>
      <point x="30" y="480" type="line"/>
      <point x="30" y="456" type="line"/>
      <point x="94" y="432" type="line"/>
      <point x="94" y="48" type="line"/>
      <point x="30" y="24" type="line"/>
      <point x="30" y="0" type="line"/>
      <point x="242" y="0" type="line"/>
    </contour>
  </outline>
</glyph>
<glyph name="k" format="1">
  <advance width="540"/>
  <unicode hex="006B"/>
  <outline>
    <contour>
      <point x="242" y="24" type="line"/>
      <point x="178" y="48" type="line"/>
      <point x="178" y="166" type="line"/>
      <point x="256" y="244" type="line"/>
      <point x="354" y="48" type="line"/>
      <point x="290" y="24" type="line"/>
      <point x="290" y="0" type="line"/>
      <point x="510" y="0" type="line"/>
      <point x="510" y="24" type="line"/>
      <point x="446" y="48" type="line"/>
      <point x="318" y="306" type="line"/>
      <point x="468" y="456" type="line"/>
      <point x="468" y="480" type="line"/>
      <point x="314" y="480" type="line"/>
      <point x="314" y="456" type="line"/>
      <point x="374" y="426" type="line"/>
      <point x="178" y="230" type="line"/>
      <point x="178" y="704" type="line"/>
      <point x="30" y="704" type="line"/>
      <point x="30" y="688" type="line"/>
      <point x="94" y="656" type="line"/>
      <point x="94" y="48" type="line"/>
      <point x="30" y="24" type="line"/>
      <point x="30" y="0" type="line"/>
      <point x="242" y="0" type="line"/>
    </contour>
  </outline>
</glyph>
<glyph name="l" format="1">
  <advance width="272"/>
  <unicode hex="006C"/>
  <outline>
    <contour>
      <point x="242" y="24" type="line"/>
      <point x="178" y="48" type="line"/>
      <point x="178" y="704" type="line"/>
      <point x="30" y="704" type="line"/>
      <point x="30" y="680" type="line"/>
      <point x="94" y="656" type="line"/>
      <point x="94" y="48" type="line"/>
      <point x="30" y="24" type="line"/>
      <point x="30" y="0" type="line"/>
      <point x="242" y="0" type="line"/>
    </contour>
  </outline>
</glyph>
<glyph name="m" format="1">
  <advance width="776"/>
  <unicode hex="006D"/>
  <outline>
    <contour>
      <point x="238" y="24" type="line"/>
      <point x="174" y="48" type="line"/>
      <point x="174" y="380" type="line"/>
      <point x="178" y="384" type="line" smooth="yes"/>
      <point x="218" y="424"/>
      <point x="258" y="440"/>
      <point x="288" y="440" type="curve" smooth="yes"/>
      <point x="330" y="440"/>
      <point x="346" y="400"/>
      <point x="346" y="352" type="curve" smooth="yes"/>
      <point x="346" y="0" type="line"/>
      <point x="494" y="0" type="line"/>
      <point x="494" y="24" type="line"/>
      <point x="430" y="48" type="line"/>
      <point x="430" y="336" type="line" smooth="yes"/>
      <point x="430" y="352"/>
      <point x="430" y="366"/>
      <point x="430" y="380" type="curve"/>
      <point x="434" y="384" type="line" smooth="yes"/>
      <point x="474" y="424"/>
      <point x="514" y="440"/>
      <point x="544" y="440" type="curve" smooth="yes"/>
      <point x="586" y="440"/>
      <point x="602" y="400"/>
      <point x="602" y="352" type="curve" smooth="yes"/>
      <point x="602" y="0" type="line"/>
      <point x="750" y="0" type="line"/>
      <point x="750" y="24" type="line"/>
      <point x="686" y="48" type="line"/>
      <point x="686" y="336" type="line" smooth="yes"/>
      <point x="686" y="416"/>
      <point x="682" y="496"/>
      <point x="576" y="496" type="curve" smooth="yes"/>
      <point x="538" y="496"/>
      <point x="482" y="480"/>
      <point x="434" y="432" type="curve" smooth="yes"/>
      <point x="424" y="422" type="line"/>
      <point x="414" y="466"/>
      <point x="386" y="496"/>
      <point x="320" y="496" type="curve" smooth="yes"/>
      <point x="282" y="496"/>
      <point x="226" y="480"/>
      <point x="178" y="432" type="curve" smooth="yes"/>
      <point x="162" y="416" type="line"/>
      <point x="162" y="480" type="line"/>
      <point x="26" y="480" type="line"/>
      <point x="26" y="456" type="line"/>
      <point x="90" y="432" type="line"/>
      <point x="90" y="48" type="line"/>
      <point x="26" y="24" type="line"/>
      <point x="26" y="0" type="line"/>
      <point x="238" y="0" type="line"/>
    </contour>
  </outline>
</glyph>
<glyph name="n" format="1">
  <advance width="556"/>
  <unicode hex="006E"/>
  <outline>
    <contour>
      <point x="242" y="24" type="line"/>
      <point x="178" y="48" type="line"/>
      <point x="178" y="380" type="line"/>
      <point x="182" y="384" type="line" smooth="yes"/>
      <point x="218" y="420"/>
      <point x="262" y="440"/>
      <point x="294" y="440" type="curve" smooth="yes"/>
      <point x="342" y="440"/>
      <point x="378" y="400"/>
      <point x="378" y="320" type="curve" smooth="yes"/>
      <point x="378" y="48" type="line"/>
      <point x="314" y="24" type="line"/>
      <point x="314" y="0" type="line"/>
      <point x="526" y="0" type="line"/>
      <point x="526" y="24" type="line"/>
      <point x="462" y="48" type="line"/>
      <point x="462" y="304" type="line" smooth="yes"/>
      <point x="462" y="416"/>
      <point x="438" y="496"/>
      <point x="326" y="496" type="curve" smooth="yes"/>
      <point x="286" y="496"/>
      <point x="230" y="480"/>
      <point x="182" y="432" type="curve" smooth="yes"/>
      <point x="166" y="416" type="line"/>
      <point x="166" y="480" type="line"/>
      <point x="30" y="480" type="line"/>
      <point x="30" y="456" type="line"/>
      <point x="94" y="432" type="line"/>
      <point x="94" y="48" type="line"/>
      <point x="30" y="24" type="line"/>
      <point x="30" y="0" type="line"/>
      <point x="242" y="0" type="line"/>
    </contour>
  </outline>
</glyph>
<glyph name="o" format="1">
  <advance width="528"/>
  <unicode hex="006F"/>
  <outline>
    <contour>
      <point x="488" y="240" type="curve" smooth="yes"/>
      <point x="488" y="384"/>
      <point x="400" y="496"/>
      <point x="264" y="496" type="curve" smooth="yes"/>
      <point x="128" y="496"/>
      <point x="40" y="384"/>
      <point x="40" y="240" type="curve" smooth="yes"/>
      <point x="40" y="96"/>
      <point x="128" y="-16"/>
      <point x="264" y="-16" type="curve" smooth="yes"/>
      <point x="400" y="-16"/>
      <point x="488" y="96"/>
    </contour>
    <contour>
      <point x="392" y="240" type="curve" smooth="yes"/>
      <point x="392" y="88"/>
      <point x="328" y="32"/>
      <point x="264" y="32" type="curve" smooth="yes"/>
      <point x="200" y="32"/>
      <point x="136" y="88"/>
      <point x="136" y="240" type="curve" smooth="yes"/>
      <point x="136" y="392"/>
      <point x="200" y="448"/>
      <point x="264" y="448" type="curve" smooth="yes"/>
      <point x="328" y="448"/>
      <point x="392" y="392"/>
    </contour>
  </outline>
</glyph>
<glyph name="p" format="1">
  <advance width="558"/>
  <unicode hex="0070"/>
  <outline>
    <contour>
      <point x="294" y="32" type="curve" smooth="yes"/>
      <point x="246" y="32"/>
      <point x="222" y="44"/>
      <point x="186" y="80" type="curve" smooth="yes"/>
      <point x="178" y="88" type="line"/>
      <point x="178" y="400" type="line"/>
      <point x="214" y="436"/>
      <point x="254" y="448"/>
      <point x="294" y="448" type="curve" smooth="yes"/>
      <point x="358" y="448"/>
      <point x="422" y="392"/>
      <point x="422" y="240" type="curve" smooth="yes"/>
      <point x="422" y="88"/>
      <point x="358" y="32"/>
    </contour>
    <contour>
      <point x="242" y="-168" type="line"/>
      <point x="178" y="-144" type="line"/>
      <point x="178" y="4" type="line"/>
      <point x="186" y="0" type="line" smooth="yes"/>
      <point x="210" y="-8"/>
      <point x="262" y="-16"/>
      <point x="294" y="-16" type="curve" smooth="yes"/>
      <point x="430" y="-16"/>
      <point x="518" y="96"/>
      <point x="518" y="240" type="curve" smooth="yes"/>
      <point x="518" y="384"/>
      <point x="430" y="496"/>
      <point x="294" y="496" type="curve" smooth="yes"/>
      <point x="262" y="496"/>
      <point x="214" y="484"/>
      <point x="178" y="448" type="curve" smooth="yes"/>
      <point x="166" y="436" type="line"/>
      <point x="166" y="480" type="line"/>
      <point x="30" y="480" type="line"/>
      <point x="30" y="456" type="line"/>
      <point x="94" y="432" type="line"/>
      <point x="94" y="-144" type="line"/>
      <point x="30" y="-168" type="line"/>
      <point x="30" y="-192" type="line"/>
      <point x="242" y="-192" type="line"/>
    </contour>
  </outline>
</glyph>
<glyph name="q" format="1">
  <advance width="550"/>
  <unicode hex="0071"/>
  <outline>
    <contour>
      <point x="520" y="-192" type="line"/>
      <point x="520" y="-168" type="line"/>
      <point x="456" y="-144" type="line"/>
      <point x="456" y="400" type="line"/>
      <point x="520" y="424" type="line"/>
      <point x="520" y="448" type="line"/>
      <point x="456" y="448" type="line"/>
      <point x="360" y="480" type="line" smooth="yes"/>
      <point x="336" y="488"/>
      <point x="280" y="496"/>
      <point x="248" y="496" type="curve" smooth="yes"/>
      <point x="104" y="496"/>
      <point x="40" y="376"/>
      <point x="40" y="240" type="curve" smooth="yes"/>
      <point x="40" y="104"/>
      <point x="104" y="-16"/>
      <point x="248" y="-16" type="curve" smooth="yes"/>
      <point x="288" y="-16"/>
      <point x="328" y="0"/>
      <point x="364" y="36" type="curve" smooth="yes"/>
      <point x="372" y="44" type="line"/>
      <point x="372" y="-144" type="line"/>
      <point x="308" y="-168" type="line"/>
      <point x="308" y="-192" type="line"/>
    </contour>
    <contour>
      <point x="248" y="32" type="curve" smooth="yes"/>
      <point x="168" y="32"/>
      <point x="144" y="136"/>
      <point x="144" y="240" type="curve" smooth="yes"/>
      <point x="144" y="344"/>
      <point x="168" y="448"/>
      <point x="248" y="448" type="curve" smooth="yes"/>
      <point x="296" y="448"/>
      <point x="344" y="424"/>
      <point x="364" y="404" type="curve" smooth="yes"/>
      <point x="372" y="396" type="line"/>
      <point x="372" y="92" type="line"/>
      <point x="364" y="84" type="line" smooth="yes"/>
      <point x="328" y="48"/>
      <point x="296" y="32"/>
    </contour>
  </outline>
</glyph>
<glyph name="r" format="1">
  <advance width="392"/>
  <unicode hex="0072"/>
  <outline>
    <contour>
      <point x="242" y="24" type="line"/>
      <point x="178" y="48" type="line"/>
      <point x="178" y="272" type="line" smooth="yes"/>
      <point x="178" y="370"/>
      <point x="236" y="418"/>
      <point x="272" y="430" type="curve"/>
      <point x="276" y="404"/>
      <point x="298" y="384"/>
      <point x="326" y="384" type="curve" smooth="yes"/>
      <point x="358" y="384"/>
      <point x="382" y="408"/>
      <point x="382" y="440" type="curve" smooth="yes"/>
      <point x="382" y="472"/>
      <point x="358" y="496"/>
      <point x="326" y="496" type="curve" smooth="yes"/>
      <point x="272" y="496"/>
      <point x="198" y="468"/>
      <point x="166" y="378" type="curve"/>
      <point x="166" y="480" type="line"/>
      <point x="30" y="480" type="line"/>
      <point x="30" y="456" type="line"/>
      <point x="94" y="432" type="line"/>
      <point x="94" y="48" type="line"/>
      <point x="30" y="24" type="line"/>
      <point x="30" y="0" type="line"/>
      <point x="242" y="0" type="line"/>
    </contour>
  </outline>
</glyph>
<glyph name="s" format="1">
  <advance width="408"/>
  <unicode hex="0073"/>
  <outline>
    <contour>
      <point x="216" y="-16" type="curve" smooth="yes"/>
      <point x="320" y="-16"/>
      <point x="368" y="72"/>
      <point x="368" y="128" type="curve" smooth="yes"/>
      <point x="368" y="184"/>
      <point x="338" y="240"/>
      <point x="256" y="276" type="curve" smooth="yes"/>
      <point x="184" y="308" type="line" smooth="yes"/>
      <point x="140" y="328"/>
      <point x="120" y="346"/>
      <point x="120" y="384" type="curve" smooth="yes"/>
      <point x="120" y="416"/>
      <point x="144" y="448"/>
      <point x="184" y="448" type="curve" smooth="yes"/>
      <point x="232" y="448"/>
      <point x="296" y="416"/>
      <point x="312" y="320" type="curve"/>
      <point x="344" y="320" type="line"/>
      <point x="344" y="480" type="line"/>
      <point x="320" y="480" type="line"/>
      <point x="294" y="454" type="line"/>
      <point x="258" y="486"/>
      <point x="218" y="496"/>
      <point x="184" y="496" type="curve" smooth="yes"/>
      <point x="120" y="496"/>
      <point x="48" y="448"/>
      <point x="48" y="352" type="curve" smooth="yes"/>
      <point x="48" y="296"/>
      <point x="88" y="250"/>
      <point x="152" y="222" type="curve" smooth="yes"/>
      <point x="224" y="190" type="line" smooth="yes"/>
      <point x="274" y="168"/>
      <point x="296" y="148"/>
      <point x="296" y="104" type="curve" smooth="yes"/>
      <point x="296" y="72"/>
      <point x="264" y="32"/>
      <point x="216" y="32" type="curve" smooth="yes"/>
      <point x="152" y="32"/>
      <point x="92" y="96"/>
      <point x="72" y="192" type="curve"/>
      <point x="40" y="192" type="line"/>
      <point x="40" y="0" type="line"/>
      <point x="64" y="0" type="line"/>
      <point x="100" y="36" type="line"/>
      <point x="140" y="-2"/>
      <point x="184" y="-16"/>
    </contour>
  </outline>
</glyph>
<glyph name="t" format="1">
  <advance width="338"/>
  <unicode hex="0074"/>
  <outline>
    <contour>
      <point x="206" y="-16" type="curve" smooth="yes"/>
      <point x="270" y="-16"/>
      <point x="318" y="32"/>
      <point x="318" y="96" type="curve"/>
      <point x="286" y="96" type="line"/>
      <point x="286" y="72"/>
      <point x="262" y="48"/>
      <point x="234" y="48" type="curve" smooth="yes"/>
      <point x="206" y="48"/>
      <point x="186" y="72"/>
      <point x="186" y="96" type="curve" smooth="yes"/>
      <point x="186" y="432" type="line"/>
      <point x="298" y="432" type="line"/>
      <point x="298" y="480" type="line"/>
      <point x="186" y="480" type="line"/>
      <point x="186" y="632" type="line"/>
      <point x="142" y="632" type="line"/>
      <point x="142" y="560"/>
      <point x="110" y="480"/>
      <point x="30" y="480" type="curve"/>
      <point x="30" y="432" type="line"/>
      <point x="102" y="432" type="line"/>
      <point x="102" y="96" type="line" smooth="yes"/>
      <point x="102" y="32"/>
      <point x="146" y="-16"/>
    </contour>
  </outline>
</glyph>
<glyph name="u" format="1">
  <advance width="512"/>
  <unicode hex="0075"/>
  <outline>
    <contour>
      <point x="352" y="48" type="curve" smooth="yes"/>
      <point x="368" y="64" type="line"/>
      <point x="368" y="0" type="line"/>
      <point x="504" y="0" type="line"/>
      <point x="504" y="24" type="line"/>
      <point x="440" y="48" type="line"/>
      <point x="440" y="480" type="line"/>
      <point x="292" y="480" type="line"/>
      <point x="292" y="456" type="line"/>
      <point x="356" y="432" type="line"/>
      <point x="356" y="100" type="line"/>
      <point x="320" y="64"/>
      <point x="272" y="40"/>
      <point x="240" y="40" type="curve" smooth="yes"/>
      <point x="192" y="40"/>
      <point x="156" y="80"/>
      <point x="156" y="160" type="curve" smooth="yes"/>
      <point x="156" y="480" type="line"/>
      <point x="8" y="480" type="line"/>
      <point x="8" y="456" type="line"/>
      <point x="72" y="432" type="line"/>
      <point x="72" y="176" type="line" smooth="yes"/>
      <point x="72" y="64"/>
      <point x="96" y="-16"/>
      <point x="208" y="-16" type="curve" smooth="yes"/>
      <point x="248" y="-16"/>
      <point x="308" y="4"/>
    </contour>
  </outline>
</glyph>
<glyph name="v" format="1">
  <advance width="540"/>
  <unicode hex="0076"/>
  <outline>
    <contour>
      <point x="250" y="0" type="line"/>
      <point x="290" y="0" type="line"/>
      <point x="466" y="432" type="line"/>
      <point x="530" y="456" type="line"/>
      <point x="530" y="480" type="line"/>
      <point x="352" y="480" type="line"/>
      <point x="352" y="456" type="line"/>
      <point x="416" y="432" type="line"/>
      <point x="288" y="122" type="line"/>
      <point x="162" y="432" type="line"/>
      <point x="226" y="456" type="line"/>
      <point x="226" y="480" type="line"/>
      <point x="10" y="480" type="line"/>
      <point x="10" y="456" type="line"/>
      <point x="74" y="432" type="line"/>
    </contour>
  </outline>
</glyph>
<glyph name="w" format="1">
  <advance width="752"/>
  <unicode hex="0077"/>
  <outline>
    <contour>
      <point x="248" y="0" type="line"/>
      <point x="288" y="0" type="line"/>
      <point x="376" y="264" type="line"/>
      <point x="464" y="0" type="line"/>
      <point x="504" y="0" type="line"/>
      <point x="680" y="432" type="line"/>
      <point x="744" y="456" type="line"/>
      <point x="744" y="480" type="line"/>
      <point x="566" y="480" type="line"/>
      <point x="566" y="456" type="line"/>
      <point x="630" y="432" type="line"/>
      <point x="502" y="124" type="line"/>
      <point x="408" y="432" type="line"/>
      <point x="472" y="456" type="line"/>
      <point x="472" y="480" type="line"/>
      <point x="256" y="480" type="line"/>
      <point x="256" y="456" type="line"/>
      <point x="320" y="432" type="line"/>
      <point x="352" y="336" type="line"/>
      <point x="284" y="124" type="line"/>
      <point x="160" y="432" type="line"/>
      <point x="224" y="456" type="line"/>
      <point x="224" y="480" type="line"/>
      <point x="8" y="480" type="line"/>
      <point x="8" y="456" type="line"/>
      <point x="72" y="432" type="line"/>
    </contour>
  </outline>
</glyph>
<glyph name="x" format="1">
  <advance width="516"/>
  <unicode hex="0078"/>
  <outline>
    <contour>
      <point x="198" y="24" type="line"/>
      <point x="134" y="56" type="line"/>
      <point x="238" y="206" type="line"/>
      <point x="342" y="56" type="line"/>
      <point x="278" y="24" type="line"/>
      <point x="278" y="0" type="line"/>
      <point x="502" y="0" type="line"/>
      <point x="502" y="24" type="line"/>
      <point x="438" y="56" type="line"/>
      <point x="298" y="258" type="line"/>
      <point x="414" y="424" type="line"/>
      <point x="478" y="456" type="line"/>
      <point x="478" y="480" type="line"/>
      <point x="294" y="480" type="line"/>
      <point x="294" y="456" type="line"/>
      <point x="358" y="424" type="line"/>
      <point x="270" y="298" type="line"/>
      <point x="182" y="424" type="line"/>
      <point x="246" y="456" type="line"/>
      <point x="246" y="480" type="line"/>
      <point x="22" y="480" type="line"/>
      <point x="22" y="456" type="line"/>
      <point x="86" y="424" type="line"/>
      <point x="210" y="246" type="line"/>
      <point x="78" y="56" type="line"/>
      <point x="14" y="24" type="line"/>
      <point x="14" y="0" type="line"/>
      <point x="198" y="0" type="line"/>
    </contour>
  </outline>
</glyph>
<glyph name="y" format="1">
  <advance width="516"/>
  <unicode hex="0079"/>
  <outline>
    <contour>
      <point x="106" y="-208" type="curve" smooth="yes"/>
      <point x="166" y="-208"/>
      <point x="202" y="-202"/>
      <point x="236" y="-112" type="curve" smooth="yes"/>
      <point x="438" y="432" type="line"/>
      <point x="502" y="456" type="line"/>
      <point x="502" y="480" type="line"/>
      <point x="324" y="480" type="line"/>
      <point x="324" y="456" type="line"/>
      <point x="388" y="432" type="line"/>
      <point x="278" y="132" type="line"/>
      <point x="166" y="432" type="line"/>
      <point x="230" y="456" type="line"/>
      <point x="230" y="480" type="line"/>
      <point x="14" y="480" type="line"/>
      <point x="14" y="456" type="line"/>
      <point x="78" y="432" type="line"/>
      <point x="234" y="14" type="line"/>
      <point x="186" y="-112" type="line" smooth="yes"/>
      <point x="174" y="-144"/>
      <point x="158" y="-160"/>
      <point x="142" y="-160" type="curve" smooth="yes"/>
      <point x="136" y="-160"/>
      <point x="128" y="-160"/>
      <point x="122" y="-158" type="curve"/>
      <point x="126" y="-150"/>
      <point x="126" y="-144"/>
      <point x="126" y="-136" type="curve" smooth="yes"/>
      <point x="126" y="-104"/>
      <point x="102" y="-80"/>
      <point x="70" y="-80" type="curve" smooth="yes"/>
      <point x="38" y="-80"/>
      <point x="14" y="-104"/>
      <point x="14" y="-136" type="curve" smooth="yes"/>
      <point x="14" y="-184"/>
      <point x="62" y="-208"/>
    </contour>
  </outline>
</glyph>
<glyph name="z" format="1">
  <advance width="408"/>
  <unicode hex="007A"/>
  <outline>
    <contour>
      <point x="368" y="0" type="line"/>
      <point x="400" y="176" type="line"/>
      <point x="368" y="176" type="line"/>
      <point x="292" y="48" type="line"/>
      <point x="119" y="48" type="line"/>
      <point x="376" y="456" type="line"/>
      <point x="376" y="480" type="line"/>
      <point x="48" y="480" type="line"/>
      <point x="16" y="304" type="line"/>
      <point x="48" y="304" type="line"/>
      <point x="124" y="432" type="line"/>
      <point x="265" y="432" type="line"/>
      <point x="8" y="24" type="line"/>
      <point x="8" y="0" type="line"/>
    </contour>
  </outline>
</glyph>
<glyph name="braceleft" format="1">
  <advance width="272"/>
  <unicode hex="007B"/>
  <outline>
    <contour>
      <point x="96" y="704" type="line"/>
      <point x="256" y="704" type="line"/>
      <point x="256" y="736" type="line"/>
      <point x="32" y="736" type="line"/>
      <point x="32" y="-32" type="line"/>
      <point x="256" y="-32" type="line"/>
      <point x="256" y="0" type="line"/>
      <point x="96" y="0" type="line"/>
    </contour>
  </outline>
</glyph>
<glyph name="braceright" format="1">
  <advance width="272"/>
  <unicode hex="007D"/>
  <outline>
    <contour>
      <point x="176" y="704" type="line"/>
      <point x="176" y="0" type="line"/>
      <point x="16" y="0" type="line"/>
      <point x="16" y="-32" type="line"/>
      <point x="240" y="-32" type="line"/>
      <point x="240" y="736" type="line"/>
      <point x="16" y="736" type="line"/>
      <point x="16" y="704" type="line"/>
    </contour>
  </outline>
</glyph>
<glyph name="asciitilde" format="1">
  <advance width="608"/>
  <unicode hex="007E"/>
  <outline>
    <contour>
      <point x="96" y="256" type="line"/>
      <point x="128" y="280"/>
      <point x="160" y="304"/>
      <point x="208" y="304" type="curve" smooth="yes"/>
      <point x="256" y="304"/>
      <point x="336" y="224"/>
      <point x="400" y="224" type="curve" smooth="yes"/>
      <point x="464" y="224"/>
      <point x="512" y="264"/>
      <point x="544" y="288" type="curve"/>
      <point x="512" y="352" type="line"/>
      <point x="480" y="328"/>
      <point x="448" y="304"/>
      <point x="400" y="304" type="curve" smooth="yes"/>
      <point x="352" y="304"/>
      <point x="272" y="384"/>
      <point x="208" y="384" type="curve" smooth="yes"/>
      <point x="144" y="384"/>
      <point x="96" y="344"/>
      <point x="64" y="320" type="curve"/>
    </contour>
  </outline>
</glyph>
<glyph name="cent" format="1">
  <advance width="440"/>
  <unicode hex="00A2"/>
  <outline>
    <contour>
      <point x="400" y="112" type="curve"/>
      <point x="368" y="128" type="line"/>
      <point x="352" y="96"/>
      <point x="328" y="48"/>
      <point x="256" y="48" type="curve" smooth="yes"/>
      <point x="253" y="48"/>
      <point x="251" y="48"/>
      <point x="248" y="48" type="curve"/>
      <point x="248" y="447" type="line"/>
      <point x="307" y="441"/>
      <point x="333" y="399"/>
      <point x="312" y="357" type="curve"/>
      <point x="311" y="356"/>
      <point x="311" y="355"/>
      <point x="310" y="354" type="curve"/>
      <point x="306" y="346"/>
      <point x="304" y="338"/>
      <point x="304" y="328" type="curve" smooth="yes"/>
      <point x="304" y="296"/>
      <point x="328" y="272"/>
      <point x="360" y="272" type="curve" smooth="yes"/>
      <point x="392" y="272"/>
      <point x="416" y="296"/>
      <point x="416" y="328" type="curve" smooth="yes"/>
      <point x="416" y="411"/>
      <point x="344" y="488"/>
      <point x="248" y="495" type="curve"/>
      <point x="248" y="576" type="line"/>
      <point x="216" y="576" type="line"/>
      <point x="216" y="495" type="line"/>
      <point x="90" y="486"/>
      <point x="24" y="371"/>
      <point x="24" y="240" type="curve" smooth="yes"/>
      <point x="24" y="109"/>
      <point x="90" y="-6"/>
      <point x="216" y="-15" type="curve"/>
      <point x="216" y="-96" type="line"/>
      <point x="248" y="-96" type="line"/>
      <point x="248" y="-15" type="line"/>
      <point x="362" y="-8"/>
      <point x="385" y="81"/>
    </contour>
    <contour>
      <point x="128" y="240" type="curve" smooth="yes"/>
      <point x="128" y="372"/>
      <point x="161" y="436"/>
      <point x="216" y="447" type="curve"/>
      <point x="216" y="55" type="line"/>
      <point x="168" y="73"/>
      <point x="128" y="126"/>
    </contour>
  </outline>
</glyph>
<glyph name="sterling" format="1">
  <advance width="602"/>
  <unicode hex="00A3"/>
  <outline>
    <contour>
      <point x="576" y="256" type="line"/>
      <point x="552" y="256" type="line"/>
      <point x="452" y="56" type="line"/>
      <point x="256" y="56" type="line"/>
      <point x="256" y="336" type="line"/>
      <point x="410" y="336" type="line"/>
      <point x="410" y="384" type="line"/>
      <point x="256" y="384" type="line"/>
      <point x="256" y="576" type="line" smooth="yes"/>
      <point x="256" y="640"/>
      <point x="286" y="672"/>
      <point x="318" y="672" type="curve" smooth="yes"/>
      <point x="334" y="672"/>
      <point x="350" y="672"/>
      <point x="350" y="632" type="curve" smooth="yes"/>
      <point x="350" y="600"/>
      <point x="374" y="576"/>
      <point x="406" y="576" type="curve" smooth="yes"/>
      <point x="438" y="576"/>
      <point x="462" y="600"/>
      <point x="462" y="632" type="curve" smooth="yes"/>
      <point x="462" y="704"/>
      <point x="374" y="718"/>
      <point x="334" y="720" type="curve" smooth="yes"/>
      <point x="218" y="720"/>
      <point x="160" y="642"/>
      <point x="160" y="544" type="curve" smooth="yes"/>
      <point x="160" y="384" type="line"/>
      <point x="96" y="384" type="line"/>
      <point x="96" y="328" type="line"/>
      <point x="160" y="328" type="line"/>
      <point x="160" y="56" type="line"/>
      <point x="96" y="24" type="line"/>
      <point x="96" y="0" type="line"/>
      <point x="544" y="0" type="line"/>
    </contour>
  </outline>
</glyph>
<glyph name="dieresis" format="1">
  <advance width="608"/>
  <unicode hex="00A8"/>
  <outline>
    <contour>
      <point x="192" y="704" type="curve" smooth="yes"/>
      <point x="156" y="704"/>
      <point x="128" y="676"/>
      <point x="128" y="640" type="curve" smooth="yes"/>
      <point x="128" y="604"/>
      <point x="156" y="576"/>
      <point x="192" y="576" type="curve" smooth="yes"/>
      <point x="228" y="576"/>
      <point x="256" y="604"/>
      <point x="256" y="640" type="curve" smooth="yes"/>
      <point x="256" y="676"/>
      <point x="228" y="704"/>
    </contour>
    <contour>
      <point x="416" y="704" type="curve" smooth="yes"/>
      <point x="380" y="704"/>
      <point x="352" y="676"/>
      <point x="352" y="640" type="curve" smooth="yes"/>
      <point x="352" y="604"/>
      <point x="380" y="576"/>
      <point x="416" y="576" type="curve" smooth="yes"/>
      <point x="452" y="576"/>
      <point x="480" y="604"/>
      <point x="480" y="640" type="curve" smooth="yes"/>
      <point x="480" y="676"/>
      <point x="452" y="704"/>
    </contour>
  </outline>
</glyph>
<glyph name="ordfeminine" format="1">
  <advance width="608"/>
  <unicode hex="00AA"/>
  <outline>
    <contour>
      <point x="272" y="318" type="curve" smooth="yes"/>
      <point x="220" y="318"/>
      <point x="210" y="366"/>
      <point x="210" y="392" type="curve" smooth="yes"/>
      <point x="210" y="442"/>
      <point x="236" y="482"/>
      <point x="324" y="482" type="curve" smooth="yes"/>
      <point x="352" y="482" type="line"/>
      <point x="352" y="372" type="line"/>
      <point x="324" y="344"/>
      <point x="294" y="318"/>
    </contour>
    <contour>
      <point x="354" y="328" type="curve" smooth="yes"/>
      <point x="362" y="336" type="line"/>
      <point x="362" y="288" type="line"/>
      <point x="478" y="288" type="line"/>
      <point x="478" y="308" type="line"/>
      <point x="426" y="332" type="line"/>
      <point x="426" y="546" type="line" smooth="yes"/>
      <point x="426" y="636"/>
      <point x="388" y="690"/>
      <point x="278" y="690" type="curve" smooth="yes"/>
      <point x="196" y="690"/>
      <point x="142" y="636"/>
      <point x="142" y="586" type="curve" smooth="yes"/>
      <point x="142" y="560"/>
      <point x="162" y="540"/>
      <point x="186" y="540" type="curve" smooth="yes"/>
      <point x="212" y="540"/>
      <point x="232" y="560"/>
      <point x="232" y="586" type="curve" smooth="yes"/>
      <point x="232" y="598"/>
      <point x="227" y="609"/>
      <point x="220" y="617" type="curve"/>
      <point x="220" y="618" type="line"/>
      <point x="212" y="632"/>
      <point x="232" y="652"/>
      <point x="278" y="652" type="curve" smooth="yes"/>
      <point x="336" y="652"/>
      <point x="352" y="612"/>
      <point x="352" y="572" type="curve" smooth="yes"/>
      <point x="352" y="522" type="line"/>
      <point x="324" y="522" type="line" smooth="yes"/>
      <point x="202" y="522"/>
      <point x="126" y="470"/>
      <point x="126" y="392" type="curve" smooth="yes"/>
      <point x="126" y="332"/>
      <point x="166" y="276"/>
      <point x="258" y="276" type="curve" smooth="yes"/>
      <point x="292" y="276"/>
      <point x="314" y="288"/>
    </contour>
    <contour>
      <point x="480" y="224" type="line"/>
      <point x="128" y="224" type="line"/>
      <point x="128" y="160" type="line"/>
      <point x="480" y="160" type="line"/>
    </contour>
  </outline>
</glyph>
<glyph name="logicalnot" format="1">
  <advance width="602"/>
  <unicode hex="00AC"/>
  <outline>
    <contour>
      <point x="544" y="176" type="line"/>
      <point x="544" y="448" type="line"/>
      <point x="64" y="448" type="line"/>
      <point x="64" y="384" type="line"/>
      <point x="480" y="384" type="line"/>
      <point x="480" y="176" type="line"/>
    </contour>
  </outline>
</glyph>
<glyph name="plusminus" format="1">
  <advance width="544"/>
  <unicode hex="00B1"/>
  <outline>
    <contour>
      <point x="288" y="272" type="line"/>
      <point x="288" y="384" type="line"/>
      <point x="224" y="384" type="line"/>
      <point x="224" y="272" type="line"/>
      <point x="32" y="272" type="line"/>
      <point x="32" y="208" type="line"/>
      <point x="224" y="208" type="line"/>
      <point x="224" y="96" type="line"/>
      <point x="288" y="96" type="line"/>
      <point x="288" y="208" type="line"/>
      <point x="480" y="208" type="line"/>
      <point x="480" y="272" type="line"/>
    </contour>
    <contour>
      <point x="512" y="0" type="line"/>
      <point x="512" y="64" type="line"/>
      <point x="32" y="64" type="line"/>
      <point x="32" y="0" type="line"/>
    </contour>
  </outline>
</glyph>
<glyph name="paragraph" format="1">
  <advance width="602"/>
  <unicode hex="00B6"/>
  <outline>
    <contour>
      <point x="528" y="656" type="line"/>
      <point x="528" y="704" type="line"/>
      <point x="272" y="704" type="line" smooth="yes"/>
      <point x="152" y="704"/>
      <point x="80" y="640"/>
      <point x="80" y="536" type="curve" smooth="yes"/>
      <point x="80" y="432"/>
      <point x="160" y="368"/>
      <point x="272" y="368" type="curve"/>
      <point x="272" y="0" type="line"/>
      <point x="336" y="0" type="line"/>
      <point x="336" y="656" type="line"/>
      <point x="416" y="656" type="line"/>
      <point x="416" y="0" type="line"/>
      <point x="480" y="0" type="line"/>
      <point x="480" y="656" type="line"/>
    </contour>
  </outline>
</glyph>
<glyph name="cedilla" format="1">
  <advance width="608"/>
  <unicode hex="00B8"/>
  <outline>
    <contour>
      <point x="286" y="-96" type="line"/>
      <point x="302" y="-94"/>
      <point x="312" y="-94"/>
      <point x="318" y="-94" type="curve" smooth="yes"/>
      <point x="350" y="-94"/>
      <point x="368" y="-110"/>
      <point x="368" y="-136" type="curve" smooth="yes"/>
      <point x="368" y="-164"/>
      <point x="352" y="-180"/>
      <point x="314" y="-180" type="curve" smooth="yes"/>
      <point x="284" y="-180"/>
      <point x="242" y="-168"/>
      <point x="200" y="-142" type="curve"/>
      <point x="182" y="-186" type="line"/>
      <point x="240" y="-208"/>
      <point x="288" y="-222"/>
      <point x="328" y="-222" type="curve" smooth="yes"/>
      <point x="400" y="-222"/>
      <point x="438" y="-188"/>
      <point x="438" y="-136" type="curve" smooth="yes"/>
      <point x="438" y="-88"/>
      <point x="404" y="-54"/>
      <point x="352" y="-54" type="curve" smooth="yes"/>
      <point x="344" y="-54"/>
      <point x="332" y="-54"/>
      <point x="316" y="-56" type="curve"/>
      <point x="316" y="0" type="line"/>
      <point x="286" y="0" type="line"/>
    </contour>
  </outline>
</glyph>
<glyph name="guillemotright" format="1">
  <advance width="608"/>
  <unicode hex="00BB"/>
  <outline>
    <contour>
      <point x="64" y="96" type="line"/>
      <point x="96" y="64" type="line"/>
      <point x="288" y="208" type="line"/>
      <point x="288" y="272" type="line"/>
      <point x="96" y="416" type="line"/>
      <point x="64" y="384" type="line"/>
      <point x="208" y="240" type="line"/>
    </contour>
    <contour>
      <point x="320" y="96" type="line"/>
      <point x="352" y="64" type="line"/>
      <point x="544" y="208" type="line"/>
      <point x="544" y="272" type="line"/>
      <point x="352" y="416" type="line"/>
      <point x="320" y="384" type="line"/>
      <point x="464" y="240" type="line"/>
    </contour>
  </outline>
</glyph>
<glyph name="onehalf" format="1">
  <advance width="602"/>
  <unicode hex="00BD"/>
  <outline>
    <contour>
      <point x="197" y="754" type="line"/>
      <point x="163" y="729"/>
      <point x="116" y="718"/>
      <point x="54" y="716" type="curve"/>
      <point x="54" y="687" type="line"/>
      <point x="121" y="687" type="line" smooth="yes"/>
      <point x="141" y="687"/>
      <point x="149" y="686"/>
      <point x="149" y="674" type="curve" smooth="yes"/>
      <point x="149" y="435" type="line" smooth="yes"/>
      <point x="149" y="418"/>
      <point x="139" y="414"/>
      <point x="114" y="414" type="curve" smooth="yes"/>
      <point x="58" y="414" type="line"/>
      <point x="58" y="382" type="line"/>
      <point x="304" y="382" type="line"/>
      <point x="304" y="414" type="line"/>
      <point x="261" y="414" type="line" smooth="yes"/>
      <point x="230" y="414"/>
      <point x="218" y="415"/>
      <point x="218" y="435" type="curve" smooth="yes"/>
      <point x="218" y="754" type="line"/>
    </contour>
    <contour>
      <point x="567" y="533" type="line"/>
      <point x="12" y="173" type="line"/>
      <point x="35" y="138" type="line"/>
      <point x="589" y="498" type="line"/>
    </contour>
    <contour>
      <point x="348" y="-18" type="line"/>
      <point x="481" y="87"/>
      <point x="576" y="106"/>
      <point x="576" y="197" type="curve" smooth="yes"/>
      <point x="576" y="254"/>
      <point x="523" y="297"/>
      <point x="435" y="297" type="curve" smooth="yes"/>
      <point x="334" y="297"/>
      <point x="279" y="254"/>
      <point x="279" y="194" type="curve" smooth="yes"/>
      <point x="279" y="163"/>
      <point x="301" y="141"/>
      <point x="334" y="141" type="curve" smooth="yes"/>
      <point x="362" y="141"/>
      <point x="378" y="159"/>
      <point x="378" y="176" type="curve" smooth="yes"/>
      <point x="378" y="215"/>
      <point x="325" y="203"/>
      <point x="325" y="221" type="curve" smooth="yes"/>
      <point x="325" y="240"/>
      <point x="355" y="267"/>
      <point x="416" y="267" type="curve" smooth="yes"/>
      <point x="470" y="267"/>
      <point x="499" y="245"/>
      <point x="499" y="205" type="curve" smooth="yes"/>
      <point x="499" y="127"/>
      <point x="400" y="83"/>
      <point x="267" y="-53" type="curve"/>
      <point x="267" y="-74" type="line"/>
      <point x="567" y="-74" type="line"/>
      <point x="580" y="47" type="line"/>
      <point x="548" y="47" type="line"/>
      <point x="534" y="-8"/>
      <point x="534" y="-18"/>
      <point x="503" y="-18" type="curve" smooth="yes"/>
    </contour>
  </outline>
</glyph>
<glyph name="Atilde" format="1">
  <advance width="608"/>
  <unicode hex="00C3"/>
  <outline>
    <contour>
      <point x="96" y="768" type="line"/>
      <point x="128" y="792"/>
      <point x="160" y="816"/>
      <point x="208" y="816" type="curve" smooth="yes"/>
      <point x="256" y="816"/>
      <point x="336" y="736"/>
      <point x="400" y="736" type="curve" smooth="yes"/>
      <point x="464" y="736"/>
      <point x="512" y="776"/>
      <point x="544" y="800" type="curve"/>
      <point x="512" y="864" type="line"/>
      <point x="480" y="840"/>
      <point x="448" y="816"/>
      <point x="400" y="816" type="curve" smooth="yes"/>
      <point x="352" y="816"/>
      <point x="272" y="896"/>
      <point x="208" y="896" type="curve" smooth="yes"/>
      <point x="144" y="896"/>
      <point x="96" y="856"/>
      <point x="64" y="832" type="curve"/>
    </contour>
    <contour>
      <point x="357" y="248" type="line"/>
      <point x="217" y="248" type="line"/>
      <point x="285" y="482" type="line"/>
    </contour>
    <contour>
      <point x="224" y="24" type="line"/>
      <point x="160" y="56" type="line"/>
      <point x="200" y="192" type="line"/>
      <point x="374" y="192" type="line"/>
      <point x="416" y="56" type="line"/>
      <point x="352" y="24" type="line"/>
      <point x="352" y="0" type="line"/>
      <point x="592" y="0" type="line"/>
      <point x="592" y="24" type="line"/>
      <point x="528" y="56" type="line"/>
      <point x="320" y="704" type="line"/>
      <point x="280" y="704" type="line"/>
      <point x="232" y="656" type="line"/>
      <point x="249" y="601" type="line"/>
      <point x="80" y="56" type="line"/>
      <point x="16" y="24" type="line"/>
      <point x="16" y="0" type="line"/>
      <point x="224" y="0" type="line"/>
    </contour>
  </outline>
</glyph>
<glyph name="Adieresis" format="1">
  <advance width="608"/>
  <unicode hex="00C4"/>
  <outline>
    <contour>
      <point x="416" y="864" type="curve" smooth="yes"/>
      <point x="380" y="864"/>
      <point x="352" y="836"/>
      <point x="352" y="800" type="curve" smooth="yes"/>
      <point x="352" y="764"/>
      <point x="380" y="736"/>
      <point x="416" y="736" type="curve" smooth="yes"/>
      <point x="452" y="736"/>
      <point x="480" y="764"/>
      <point x="480" y="800" type="curve" smooth="yes"/>
      <point x="480" y="836"/>
      <point x="452" y="864"/>
    </contour>
    <contour>
      <point x="192" y="864" type="curve" smooth="yes"/>
      <point x="156" y="864"/>
      <point x="128" y="836"/>
      <point x="128" y="800" type="curve" smooth="yes"/>
      <point x="128" y="764"/>
      <point x="156" y="736"/>
      <point x="192" y="736" type="curve" smooth="yes"/>
      <point x="228" y="736"/>
      <point x="256" y="764"/>
      <point x="256" y="800" type="curve" smooth="yes"/>
      <point x="256" y="836"/>
      <point x="228" y="864"/>
    </contour>
    <contour>
      <point x="357" y="248" type="line"/>
      <point x="217" y="248" type="line"/>
      <point x="285" y="482" type="line"/>
    </contour>
    <contour>
      <point x="224" y="24" type="line"/>
      <point x="160" y="56" type="line"/>
      <point x="200" y="192" type="line"/>
      <point x="374" y="192" type="line"/>
      <point x="416" y="56" type="line"/>
      <point x="352" y="24" type="line"/>
      <point x="352" y="0" type="line"/>
      <point x="592" y="0" type="line"/>
      <point x="592" y="24" type="line"/>
      <point x="528" y="56" type="line"/>
      <point x="320" y="704" type="line"/>
      <point x="280" y="704" type="line"/>
      <point x="232" y="656" type="line"/>
      <point x="249" y="601" type="line"/>
      <point x="80" y="56" type="line"/>
      <point x="16" y="24" type="line"/>
      <point x="16" y="0" type="line"/>
      <point x="224" y="0" type="line"/>
    </contour>
  </outline>
</glyph>
<glyph name="AE" format="1">
  <advance width="608"/>
  <unicode hex="00C6"/>
  <outline>
    <contour>
      <point x="260" y="648" type="line"/>
      <point x="260" y="248" type="line"/>
      <point x="181" y="248" type="line"/>
      <point x="254" y="652" type="line"/>
    </contour>
    <contour>
      <point x="198" y="24" type="line"/>
      <point x="146" y="56" type="line"/>
      <point x="171" y="192" type="line"/>
      <point x="260" y="192" type="line"/>
      <point x="260" y="0" type="line"/>
      <point x="566" y="0" type="line"/>
      <point x="592" y="256" type="line"/>
      <point x="566" y="256" type="line"/>
      <point x="486" y="56" type="line"/>
      <point x="336" y="56" type="line"/>
      <point x="336" y="352" type="line"/>
      <point x="420" y="352" type="line"/>
      <point x="452" y="272" type="line"/>
      <point x="476" y="272" type="line"/>
      <point x="476" y="488" type="line"/>
      <point x="452" y="488" type="line"/>
      <point x="420" y="408" type="line"/>
      <point x="336" y="408" type="line"/>
      <point x="336" y="648" type="line"/>
      <point x="486" y="648" type="line"/>
      <point x="540" y="512" type="line"/>
      <point x="566" y="512" type="line"/>
      <point x="540" y="704" type="line"/>
      <point x="208" y="704" type="line"/>
      <point x="82" y="56" type="line"/>
      <point x="32" y="24" type="line"/>
      <point x="32" y="0" type="line"/>
      <point x="198" y="0" type="line"/>
    </contour>
  </outline>
</glyph>
<glyph name="Eacute" format="1">
  <advance width="608"/>
  <unicode hex="00C9"/>
  <outline>
    <contour>
      <point x="192" y="736" type="line"/>
      <point x="375" y="821" type="line"/>
      <point x="395" y="829"/>
      <point x="408" y="848"/>
      <point x="408" y="872" type="curve" smooth="yes"/>
      <point x="408" y="904"/>
      <point x="384" y="928"/>
      <point x="352" y="928" type="curve" smooth="yes"/>
      <point x="336" y="928"/>
      <point x="322" y="922"/>
      <point x="312" y="912" type="curve" smooth="yes"/>
      <point x="168" y="768" type="line"/>
    </contour>
    <contour>
      <point x="560" y="256" type="line"/>
      <point x="528" y="256" type="line"/>
      <point x="428" y="56" type="line"/>
      <point x="240" y="56" type="line"/>
      <point x="240" y="352" type="line"/>
      <point x="344" y="352" type="line"/>
      <point x="384" y="272" type="line"/>
      <point x="416" y="272" type="line"/>
      <point x="416" y="488" type="line"/>
      <point x="384" y="488" type="line"/>
      <point x="344" y="408" type="line"/>
      <point x="240" y="408" type="line"/>
      <point x="240" y="648" type="line"/>
      <point x="428" y="648" type="line"/>
      <point x="496" y="512" type="line"/>
      <point x="528" y="512" type="line"/>
      <point x="496" y="704" type="line"/>
      <point x="80" y="704" type="line"/>
      <point x="80" y="680" type="line"/>
      <point x="144" y="648" type="line"/>
      <point x="144" y="56" type="line"/>
      <point x="80" y="24" type="line"/>
      <point x="80" y="0" type="line"/>
      <point x="528" y="0" type="line"/>
    </contour>
  </outline>
</glyph>
<glyph name="Icircumflex" format="1">
  <advance width="608"/>
  <unicode hex="00CE"/>
  <outline>
    <contour>
      <point x="160" y="736" type="line"/>
      <point x="304" y="880" type="line"/>
      <point x="448" y="736" type="line"/>
      <point x="480" y="768" type="line"/>
      <point x="336" y="960" type="line"/>
      <point x="272" y="960" type="line"/>
      <point x="128" y="768" type="line"/>
    </contour>
    <contour>
      <point x="448" y="24" type="line"/>
      <point x="352" y="56" type="line"/>
      <point x="352" y="648" type="line"/>
      <point x="448" y="680" type="line"/>
      <point x="448" y="704" type="line"/>
      <point x="160" y="704" type="line"/>
      <point x="160" y="680" type="line"/>
      <point x="256" y="648" type="line"/>
      <point x="256" y="56" type="line"/>
      <point x="160" y="24" type="line"/>
      <point x="160" y="0" type="line"/>
      <point x="448" y="0" type="line"/>
    </contour>
  </outline>
</glyph>
<glyph name="Oslash" format="1">
  <advance width="608"/>
  <unicode hex="00D8"/>
  <outline>
    <contour>
      <point x="304" y="-16" type="curve" smooth="yes"/>
      <point x="456" y="-16"/>
      <point x="544" y="128"/>
      <point x="544" y="352" type="curve" smooth="yes"/>
      <point x="544" y="392"/>
      <point x="541" y="430"/>
      <point x="536" y="465" type="curve"/>
      <point x="584" y="496" type="line"/>
      <point x="568" y="528" type="line"/>
      <point x="528" y="502" type="line"/>
      <point x="497" y="638"/>
      <point x="418" y="720"/>
      <point x="304" y="720" type="curve" smooth="yes"/>
      <point x="152" y="720"/>
      <point x="64" y="576"/>
      <point x="64" y="352" type="curve" smooth="yes"/>
      <point x="64" y="300"/>
      <point x="69" y="253"/>
      <point x="78" y="211" type="curve"/>
      <point x="24" y="176" type="line"/>
      <point x="40" y="144" type="line"/>
      <point x="87" y="174" type="line"/>
      <point x="122" y="55"/>
      <point x="197" y="-16"/>
    </contour>
    <contour>
      <point x="176" y="352" type="curve" smooth="yes"/>
      <point x="176" y="544"/>
      <point x="200" y="664"/>
      <point x="304" y="664" type="curve" smooth="yes"/>
      <point x="391" y="664"/>
      <point x="422" y="579"/>
      <point x="430" y="439" type="curve"/>
      <point x="178" y="275" type="line"/>
      <point x="176" y="299"/>
      <point x="176" y="325"/>
    </contour>
    <contour>
      <point x="304" y="40" type="curve" smooth="yes"/>
      <point x="223" y="40"/>
      <point x="191" y="112"/>
      <point x="180" y="235" type="curve"/>
      <point x="431" y="397" type="line"/>
      <point x="432" y="383"/>
      <point x="432" y="368"/>
      <point x="432" y="352" type="curve" smooth="yes"/>
      <point x="432" y="160"/>
      <point x="408" y="40"/>
    </contour>
  </outline>
</glyph>
<glyph name="Ugrave" format="1">
  <advance width="608"/>
  <unicode hex="00D9"/>
  <outline>
    <contour>
      <point x="408" y="768" type="line"/>
      <point x="264" y="912" type="line" smooth="yes"/>
      <point x="254" y="922"/>
      <point x="240" y="928"/>
      <point x="224" y="928" type="curve" smooth="yes"/>
      <point x="192" y="928"/>
      <point x="168" y="904"/>
      <point x="168" y="872" type="curve" smooth="yes"/>
      <point x="168" y="850"/>
      <point x="180" y="831"/>
      <point x="198" y="822" type="curve"/>
      <point x="205" y="819"/>
      <point x="213" y="816"/>
      <point x="221" y="816" type="curve"/>
    </contour>
    <contour>
      <point x="432" y="192" type="line" smooth="yes"/>
      <point x="432" y="96"/>
      <point x="384" y="48"/>
      <point x="320" y="48" type="curve" smooth="yes"/>
      <point x="256" y="48"/>
      <point x="208" y="104"/>
      <point x="208" y="160" type="curve" smooth="yes"/>
      <point x="208" y="648" type="line"/>
      <point x="272" y="680" type="line"/>
      <point x="272" y="704" type="line"/>
      <point x="48" y="704" type="line"/>
      <point x="48" y="680" type="line"/>
      <point x="112" y="648" type="line"/>
      <point x="112" y="192" type="line" smooth="yes"/>
      <point x="112" y="64"/>
      <point x="192" y="-16"/>
      <point x="304" y="-16" type="curve" smooth="yes"/>
      <point x="400" y="-16"/>
      <point x="496" y="40"/>
      <point x="496" y="192" type="curve" smooth="yes"/>
      <point x="496" y="648" type="line"/>
      <point x="560" y="680" type="line"/>
      <point x="560" y="704" type="line"/>
      <point x="368" y="704" type="line"/>
      <point x="368" y="680" type="line"/>
      <point x="432" y="648" type="line"/>
    </contour>
  </outline>
</glyph>
<glyph name="Ucircumflex" format="1">
  <advance width="608"/>
  <unicode hex="00DB"/>
  <outline>
    <contour>
      <point x="160" y="736" type="line"/>
      <point x="304" y="880" type="line"/>
      <point x="448" y="736" type="line"/>
      <point x="480" y="768" type="line"/>
      <point x="336" y="960" type="line"/>
      <point x="272" y="960" type="line"/>
      <point x="128" y="768" type="line"/>
    </contour>
    <contour>
      <point x="432" y="192" type="line" smooth="yes"/>
      <point x="432" y="96"/>
      <point x="384" y="48"/>
      <point x="320" y="48" type="curve" smooth="yes"/>
      <point x="256" y="48"/>
      <point x="208" y="104"/>
      <point x="208" y="160" type="curve" smooth="yes"/>
      <point x="208" y="648" type="line"/>
      <point x="272" y="680" type="line"/>
      <point x="272" y="704" type="line"/>
      <point x="48" y="704" type="line"/>
      <point x="48" y="680" type="line"/>
      <point x="112" y="648" type="line"/>
      <point x="112" y="192" type="line" smooth="yes"/>
      <point x="112" y="64"/>
      <point x="192" y="-16"/>
      <point x="304" y="-16" type="curve" smooth="yes"/>
      <point x="400" y="-16"/>
      <point x="496" y="40"/>
      <point x="496" y="192" type="curve" smooth="yes"/>
      <point x="496" y="648" type="line"/>
      <point x="560" y="680" type="line"/>
      <point x="560" y="704" type="line"/>
      <point x="368" y="704" type="line"/>
      <point x="368" y="680" type="line"/>
      <point x="432" y="648" type="line"/>
    </contour>
  </outline>
</glyph>
<glyph name="Udieresis" format="1">
  <advance width="608"/>
  <unicode hex="00DC"/>
  <outline>
    <contour>
      <point x="416" y="864" type="curve" smooth="yes"/>
      <point x="380" y="864"/>
      <point x="352" y="836"/>
      <point x="352" y="800" type="curve" smooth="yes"/>
      <point x="352" y="764"/>
      <point x="380" y="736"/>
      <point x="416" y="736" type="curve" smooth="yes"/>
      <point x="452" y="736"/>
      <point x="480" y="764"/>
      <point x="480" y="800" type="curve" smooth="yes"/>
      <point x="480" y="836"/>
      <point x="452" y="864"/>
    </contour>
    <contour>
      <point x="192" y="864" type="curve" smooth="yes"/>
      <point x="156" y="864"/>
      <point x="128" y="836"/>
      <point x="128" y="800" type="curve" smooth="yes"/>
      <point x="128" y="764"/>
      <point x="156" y="736"/>
      <point x="192" y="736" type="curve" smooth="yes"/>
      <point x="228" y="736"/>
      <point x="256" y="764"/>
      <point x="256" y="800" type="curve" smooth="yes"/>
      <point x="256" y="836"/>
      <point x="228" y="864"/>
    </contour>
    <contour>
      <point x="432" y="192" type="line" smooth="yes"/>
      <point x="432" y="96"/>
      <point x="384" y="48"/>
      <point x="320" y="48" type="curve" smooth="yes"/>
      <point x="256" y="48"/>
      <point x="208" y="104"/>
      <point x="208" y="160" type="curve" smooth="yes"/>
      <point x="208" y="648" type="line"/>
      <point x="272" y="680" type="line"/>
      <point x="272" y="704" type="line"/>
      <point x="48" y="704" type="line"/>
      <point x="48" y="680" type="line"/>
      <point x="112" y="648" type="line"/>
      <point x="112" y="192" type="line" smooth="yes"/>
      <point x="112" y="64"/>
      <point x="192" y="-16"/>
      <point x="304" y="-16" type="curve" smooth="yes"/>
      <point x="400" y="-16"/>
      <point x="496" y="40"/>
      <point x="496" y="192" type="curve" smooth="yes"/>
      <point x="496" y="648" type="line"/>
      <point x="560" y="680" type="line"/>
      <point x="560" y="704" type="line"/>
      <point x="368" y="704" type="line"/>
      <point x="368" y="680" type="line"/>
      <point x="432" y="648" type="line"/>
    </contour>
  </outline>
</glyph>
<glyph name="Yacute" format="1">
  <advance width="608"/>
  <unicode hex="00DD"/>
  <outline>
    <contour>
      <point x="192" y="736" type="line"/>
      <point x="375" y="821" type="line"/>
      <point x="395" y="829"/>
      <point x="408" y="848"/>
      <point x="408" y="872" type="curve" smooth="yes"/>
      <point x="408" y="904"/>
      <point x="384" y="928"/>
      <point x="352" y="928" type="curve" smooth="yes"/>
      <point x="336" y="928"/>
      <point x="322" y="922"/>
      <point x="312" y="912" type="curve" smooth="yes"/>
      <point x="168" y="768" type="line"/>
    </contour>
    <contour>
      <point x="256" y="328" type="line"/>
      <point x="256" y="56" type="line"/>
      <point x="192" y="24" type="line"/>
      <point x="192" y="0" type="line"/>
      <point x="416" y="0" type="line"/>
      <point x="416" y="24" type="line"/>
      <point x="352" y="56" type="line"/>
      <point x="352" y="328" type="line"/>
      <point x="512" y="648" type="line"/>
      <point x="576" y="680" type="line"/>
      <point x="576" y="704" type="line"/>
      <point x="384" y="704" type="line"/>
      <point x="384" y="680" type="line"/>
      <point x="448" y="648" type="line"/>
      <point x="324" y="400" type="line"/>
      <point x="200" y="648" type="line"/>
      <point x="264" y="680" type="line"/>
      <point x="264" y="704" type="line"/>
      <point x="32" y="704" type="line"/>
      <point x="32" y="680" type="line"/>
      <point x="96" y="648" type="line"/>
    </contour>
  </outline>
</glyph>
<glyph name="germandbls" format="1">
  <advance width="544"/>
  <unicode hex="00DF"/>
  <outline>
    <contour>
      <point x="338" y="-16" type="curve" smooth="yes"/>
      <point x="454" y="-16"/>
      <point x="528" y="62"/>
      <point x="528" y="160" type="curve" smooth="yes"/>
      <point x="528" y="275"/>
      <point x="447" y="362"/>
      <point x="345" y="386" type="curve"/>
      <point x="421" y="413"/>
      <point x="464" y="492"/>
      <point x="464" y="544" type="curve" smooth="yes"/>
      <point x="464" y="656"/>
      <point x="376" y="720"/>
      <point x="272" y="720" type="curve" smooth="yes"/>
      <point x="160" y="720"/>
      <point x="80" y="632"/>
      <point x="80" y="528" type="curve" smooth="yes"/>
      <point x="80" y="56" type="line"/>
      <point x="16" y="24" type="line"/>
      <point x="16" y="0" type="line"/>
      <point x="176" y="0" type="line"/>
      <point x="176" y="568" type="line" smooth="yes"/>
      <point x="176" y="608"/>
      <point x="192" y="672"/>
      <point x="272" y="672" type="curve" smooth="yes"/>
      <point x="352" y="672"/>
      <point x="368" y="608"/>
      <point x="368" y="568" type="curve" smooth="yes"/>
      <point x="368" y="480"/>
      <point x="320" y="416"/>
      <point x="272" y="416" type="curve" smooth="yes"/>
      <point x="240" y="416" type="line"/>
      <point x="240" y="360" type="line"/>
      <point x="256" y="360" type="line" smooth="yes"/>
      <point x="336" y="360"/>
      <point x="432" y="264"/>
      <point x="432" y="160" type="curve" smooth="yes"/>
      <point x="432" y="64"/>
      <point x="386" y="32"/>
      <point x="354" y="32" type="curve" smooth="yes"/>
      <point x="338" y="32"/>
      <point x="322" y="32"/>
      <point x="322" y="72" type="curve" smooth="yes"/>
      <point x="322" y="104"/>
      <point x="298" y="128"/>
      <point x="266" y="128" type="curve" smooth="yes"/>
      <point x="234" y="128"/>
      <point x="210" y="104"/>
      <point x="210" y="72" type="curve" smooth="yes"/>
      <point x="210" y="0"/>
      <point x="298" y="-14"/>
    </contour>
  </outline>
</glyph>
<glyph name="aacute" format="1">
  <advance width="608"/>
  <unicode hex="00E1"/>
  <outline>
    <contour>
      <point x="232" y="528" type="line"/>
      <point x="415" y="613" type="line"/>
      <point x="435" y="621"/>
      <point x="448" y="640"/>
      <point x="448" y="664" type="curve" smooth="yes"/>
      <point x="448" y="696"/>
      <point x="424" y="720"/>
      <point x="392" y="720" type="curve" smooth="yes"/>
      <point x="376" y="720"/>
      <point x="362" y="714"/>
      <point x="352" y="704" type="curve" smooth="yes"/>
      <point x="208" y="560" type="line"/>
    </contour>
    <contour>
      <point x="288" y="38" type="curve" smooth="yes"/>
      <point x="224" y="38"/>
      <point x="212" y="96"/>
      <point x="212" y="128" type="curve" smooth="yes"/>
      <point x="212" y="192"/>
      <point x="244" y="240"/>
      <point x="352" y="240" type="curve" smooth="yes"/>
      <point x="388" y="240" type="line"/>
      <point x="388" y="104" type="line"/>
      <point x="352" y="68"/>
      <point x="316" y="38"/>
    </contour>
    <contour>
      <point x="390" y="48" type="curve" smooth="yes"/>
      <point x="400" y="58" type="line"/>
      <point x="400" y="0" type="line"/>
      <point x="544" y="0" type="line"/>
      <point x="544" y="24" type="line"/>
      <point x="480" y="56" type="line"/>
      <point x="480" y="320" type="line" smooth="yes"/>
      <point x="480" y="432"/>
      <point x="432" y="496"/>
      <point x="296" y="496" type="curve" smooth="yes"/>
      <point x="196" y="496"/>
      <point x="128" y="432"/>
      <point x="128" y="368" type="curve" smooth="yes"/>
      <point x="128" y="336"/>
      <point x="152" y="312"/>
      <point x="184" y="312" type="curve" smooth="yes"/>
      <point x="216" y="312"/>
      <point x="240" y="336"/>
      <point x="240" y="368" type="curve" smooth="yes"/>
      <point x="240" y="384"/>
      <point x="234" y="398"/>
      <point x="224" y="408" type="curve"/>
      <point x="216" y="424"/>
      <point x="240" y="448"/>
      <point x="296" y="448" type="curve" smooth="yes"/>
      <point x="368" y="448"/>
      <point x="388" y="400"/>
      <point x="388" y="352" type="curve" smooth="yes"/>
      <point x="388" y="288" type="line"/>
      <point x="352" y="288" type="line" smooth="yes"/>
      <point x="204" y="288"/>
      <point x="108" y="224"/>
      <point x="108" y="128" type="curve" smooth="yes"/>
      <point x="108" y="56"/>
      <point x="160" y="-16"/>
      <point x="272" y="-16" type="curve" smooth="yes"/>
      <point x="312" y="-16"/>
      <point x="342" y="0"/>
    </contour>
  </outline>
</glyph>
<glyph name="ccedilla" format="1">
  <advance width="608"/>
  <unicode hex="00E7"/>
  <outline>
    <contour>
      <point x="328" y="-222" type="curve" smooth="yes"/>
      <point x="400" y="-222"/>
      <point x="438" y="-188"/>
      <point x="438" y="-136" type="curve" smooth="yes"/>
      <point x="438" y="-88"/>
      <point x="404" y="-54"/>
      <point x="352" y="-54" type="curve" smooth="yes"/>
      <point x="344" y="-54"/>
      <point x="332" y="-54"/>
      <point x="316" y="-56" type="curve"/>
      <point x="316" y="-15" type="line"/>
      <point x="430" y="-8"/>
      <point x="453" y="81"/>
      <point x="468" y="112" type="curve"/>
      <point x="436" y="128" type="line"/>
      <point x="420" y="96"/>
      <point x="396" y="48"/>
      <point x="324" y="48" type="curve" smooth="yes"/>
      <point x="260" y="48"/>
      <point x="196" y="96"/>
      <point x="196" y="240" type="curve" smooth="yes"/>
      <point x="196" y="384"/>
      <point x="236" y="448"/>
      <point x="300" y="448" type="curve" smooth="yes"/>
      <point x="370" y="448"/>
      <point x="402" y="402"/>
      <point x="380" y="357" type="curve"/>
      <point x="379" y="356"/>
      <point x="379" y="355"/>
      <point x="378" y="354" type="curve"/>
      <point x="374" y="346"/>
      <point x="372" y="338"/>
      <point x="372" y="328" type="curve" smooth="yes"/>
      <point x="372" y="296"/>
      <point x="396" y="272"/>
      <point x="428" y="272" type="curve" smooth="yes"/>
      <point x="460" y="272"/>
      <point x="484" y="296"/>
      <point x="484" y="328" type="curve" smooth="yes"/>
      <point x="484" y="416"/>
      <point x="404" y="496"/>
      <point x="300" y="496" type="curve" smooth="yes"/>
      <point x="164" y="496"/>
      <point x="92" y="376"/>
      <point x="92" y="240" type="curve" smooth="yes"/>
      <point x="92" y="109"/>
      <point x="159" y="-8"/>
      <point x="286" y="-16" type="curve"/>
      <point x="286" y="-96" type="line"/>
      <point x="302" y="-94"/>
      <point x="312" y="-94"/>
      <point x="318" y="-94" type="curve" smooth="yes"/>
      <point x="350" y="-94"/>
      <point x="368" y="-110"/>
      <point x="368" y="-136" type="curve" smooth="yes"/>
      <point x="368" y="-164"/>
      <point x="352" y="-180"/>
      <point x="314" y="-180" type="curve" smooth="yes"/>
      <point x="284" y="-180"/>
      <point x="242" y="-168"/>
      <point x="200" y="-142" type="curve"/>
      <point x="182" y="-186" type="line"/>
      <point x="240" y="-208"/>
      <point x="288" y="-222"/>
    </contour>
  </outline>
</glyph>
<glyph name="eacute" format="1">
  <advance width="608"/>
  <unicode hex="00E9"/>
  <outline>
    <contour>
      <point x="232" y="528" type="line"/>
      <point x="415" y="613" type="line"/>
      <point x="435" y="621"/>
      <point x="448" y="640"/>
      <point x="448" y="664" type="curve" smooth="yes"/>
      <point x="448" y="696"/>
      <point x="424" y="720"/>
      <point x="392" y="720" type="curve" smooth="yes"/>
      <point x="376" y="720"/>
      <point x="362" y="714"/>
      <point x="352" y="704" type="curve" smooth="yes"/>
      <point x="208" y="560" type="line"/>
    </contour>
    <contour>
      <point x="312" y="448" type="curve" smooth="yes"/>
      <point x="376" y="448"/>
      <point x="408" y="368"/>
      <point x="408" y="304" type="curve"/>
      <point x="211" y="304" type="line"/>
      <point x="222" y="403"/>
      <point x="258" y="448"/>
    </contour>
    <contour>
      <point x="488" y="112" type="curve"/>
      <point x="456" y="128" type="line"/>
      <point x="440" y="96"/>
      <point x="408" y="48"/>
      <point x="336" y="48" type="curve" smooth="yes"/>
      <point x="272" y="48"/>
      <point x="208" y="96"/>
      <point x="208" y="240" type="curve" smooth="yes"/>
      <point x="208" y="246"/>
      <point x="208" y="251"/>
      <point x="208" y="256" type="curve"/>
      <point x="504" y="256" type="line"/>
      <point x="504" y="376"/>
      <point x="456" y="496"/>
      <point x="312" y="496" type="curve" smooth="yes"/>
      <point x="176" y="496"/>
      <point x="104" y="376"/>
      <point x="104" y="240" type="curve" smooth="yes"/>
      <point x="104" y="104"/>
      <point x="176" y="-16"/>
      <point x="312" y="-16" type="curve" smooth="yes"/>
      <point x="440" y="-16"/>
      <point x="472" y="80"/>
    </contour>
  </outline>
</glyph>
<glyph name="idieresis" format="1">
  <advance width="608"/>
  <unicode hex="00EF"/>
  <outline>
    <contour>
      <point x="192" y="704" type="curve" smooth="yes"/>
      <point x="156" y="704"/>
      <point x="128" y="676"/>
      <point x="128" y="640" type="curve" smooth="yes"/>
      <point x="128" y="604"/>
      <point x="156" y="576"/>
      <point x="192" y="576" type="curve" smooth="yes"/>
      <point x="228" y="576"/>
      <point x="256" y="604"/>
      <point x="256" y="640" type="curve" smooth="yes"/>
      <point x="256" y="676"/>
      <point x="228" y="704"/>
    </contour>
    <contour>
      <point x="416" y="704" type="curve" smooth="yes"/>
      <point x="380" y="704"/>
      <point x="352" y="676"/>
      <point x="352" y="640" type="curve" smooth="yes"/>
      <point x="352" y="604"/>
      <point x="380" y="576"/>
      <point x="416" y="576" type="curve" smooth="yes"/>
      <point x="452" y="576"/>
      <point x="480" y="604"/>
      <point x="480" y="640" type="curve" smooth="yes"/>
      <point x="480" y="676"/>
      <point x="452" y="704"/>
    </contour>
    <contour>
      <point x="446" y="24" type="line"/>
      <point x="382" y="56" type="line"/>
      <point x="382" y="480" type="line"/>
      <point x="226" y="480" type="line"/>
      <point x="226" y="456" type="line"/>
      <point x="290" y="424" type="line"/>
      <point x="290" y="56" type="line"/>
      <point x="226" y="24" type="line"/>
      <point x="226" y="0" type="line"/>
      <point x="446" y="0" type="line"/>
    </contour>
  </outline>
</glyph>
<glyph name="eth" format="1">
  <advance width="536"/>
  <unicode hex="00F0"/>
  <outline>
    <contour>
      <point x="330" y="471" type="curve"/>
      <point x="312" y="476"/>
      <point x="295" y="479"/>
      <point x="279" y="479" type="curve" smooth="yes"/>
      <point x="127" y="479"/>
      <point x="32" y="381"/>
      <point x="32" y="231" type="curve" smooth="yes"/>
      <point x="32" y="81"/>
      <point x="130" y="-16"/>
      <point x="268" y="-16" type="curve" smooth="yes"/>
      <point x="406" y="-16"/>
      <point x="504" y="84"/>
      <point x="504" y="231" type="curve" smooth="yes"/>
      <point x="504" y="365"/>
      <point x="446" y="473"/>
      <point x="321" y="583" type="curve"/>
      <point x="482" y="656" type="line"/>
      <point x="467" y="687" type="line"/>
      <point x="290" y="608" type="line"/>
      <point x="248" y="640"/>
      <point x="203" y="671"/>
      <point x="155" y="703" type="curve"/>
      <point x="132" y="672" type="line"/>
      <point x="164" y="644"/>
      <point x="198" y="614"/>
      <point x="233" y="581" type="curve"/>
      <point x="55" y="501" type="line"/>
      <point x="70" y="470" type="line"/>
      <point x="259" y="555" type="line"/>
      <point x="282" y="532"/>
      <point x="306" y="504"/>
    </contour>
    <contour>
      <point x="268" y="438" type="curve" smooth="yes"/>
      <point x="363" y="438"/>
      <point x="402" y="372"/>
      <point x="402" y="231" type="curve" smooth="yes"/>
      <point x="402" y="90"/>
      <point x="363" y="25"/>
      <point x="268" y="25" type="curve" smooth="yes"/>
      <point x="174" y="25"/>
      <point x="135" y="91"/>
      <point x="135" y="231" type="curve" smooth="yes"/>
      <point x="135" y="371"/>
      <point x="174" y="438"/>
    </contour>
  </outline>
</glyph>
<glyph name="ograve" format="1">
  <advance width="608"/>
  <unicode hex="00F2"/>
  <outline>
    <contour>
      <point x="376" y="528" type="line"/>
      <point x="400" y="560" type="line"/>
      <point x="256" y="704" type="line" smooth="yes"/>
      <point x="246" y="714"/>
      <point x="232" y="720"/>
      <point x="216" y="720" type="curve" smooth="yes"/>
      <point x="184" y="720"/>
      <point x="160" y="696"/>
      <point x="160" y="664" type="curve" smooth="yes"/>
      <point x="160" y="642"/>
      <point x="172" y="623"/>
      <point x="190" y="614" type="curve"/>
      <point x="191" y="613"/>
      <point x="192" y="613"/>
      <point x="193" y="613" type="curve"/>
    </contour>
    <contour>
      <point x="544" y="240" type="curve" smooth="yes"/>
      <point x="544" y="376"/>
      <point x="456" y="496"/>
      <point x="304" y="496" type="curve" smooth="yes"/>
      <point x="152" y="496"/>
      <point x="64" y="376"/>
      <point x="64" y="240" type="curve" smooth="yes"/>
      <point x="64" y="104"/>
      <point x="152" y="-16"/>
      <point x="304" y="-16" type="curve" smooth="yes"/>
      <point x="456" y="-16"/>
      <point x="544" y="104"/>
    </contour>
    <contour>
      <point x="440" y="240" type="curve" smooth="yes"/>
      <point x="440" y="96"/>
      <point x="384" y="32"/>
      <point x="304" y="32" type="curve" smooth="yes"/>
      <point x="224" y="32"/>
      <point x="168" y="96"/>
      <point x="168" y="240" type="curve" smooth="yes"/>
      <point x="168" y="384"/>
      <point x="224" y="448"/>
      <point x="304" y="448" type="curve" smooth="yes"/>
      <point x="384" y="448"/>
      <point x="440" y="384"/>
    </contour>
  </outline>
</glyph>
<glyph name="oacute" format="1">
  <advance width="608"/>
  <unicode hex="00F3"/>
  <outline>
    <contour>
      <point x="232" y="528" type="line"/>
      <point x="415" y="613" type="line"/>
      <point x="435" y="621"/>
      <point x="448" y="640"/>
      <point x="448" y="664" type="curve" smooth="yes"/>
      <point x="448" y="696"/>
      <point x="424" y="720"/>
      <point x="392" y="720" type="curve" smooth="yes"/>
      <point x="376" y="720"/>
      <point x="362" y="714"/>
      <point x="352" y="704" type="curve" smooth="yes"/>
      <point x="208" y="560" type="line"/>
    </contour>
    <contour>
      <point x="544" y="240" type="curve" smooth="yes"/>
      <point x="544" y="376"/>
      <point x="456" y="496"/>
      <point x="304" y="496" type="curve" smooth="yes"/>
      <point x="152" y="496"/>
      <point x="64" y="376"/>
      <point x="64" y="240" type="curve" smooth="yes"/>
      <point x="64" y="104"/>
      <point x="152" y="-16"/>
      <point x="304" y="-16" type="curve" smooth="yes"/>
      <point x="456" y="-16"/>
      <point x="544" y="104"/>
    </contour>
    <contour>
      <point x="440" y="240" type="curve" smooth="yes"/>
      <point x="440" y="96"/>
      <point x="384" y="32"/>
      <point x="304" y="32" type="curve" smooth="yes"/>
      <point x="224" y="32"/>
      <point x="168" y="96"/>
      <point x="168" y="240" type="curve" smooth="yes"/>
      <point x="168" y="384"/>
      <point x="224" y="448"/>
      <point x="304" y="448" type="curve" smooth="yes"/>
      <point x="384" y="448"/>
      <point x="440" y="384"/>
    </contour>
  </outline>
</glyph>
<glyph name="otilde" format="1">
  <advance width="608"/>
  <unicode hex="00F5"/>
  <outline>
    <contour>
      <point x="96" y="608" type="line"/>
      <point x="128" y="632"/>
      <point x="160" y="656"/>
      <point x="208" y="656" type="curve" smooth="yes"/>
      <point x="256" y="656"/>
      <point x="336" y="576"/>
      <point x="400" y="576" type="curve" smooth="yes"/>
      <point x="464" y="576"/>
      <point x="512" y="616"/>
      <point x="544" y="640" type="curve"/>
      <point x="512" y="704" type="line"/>
      <point x="480" y="680"/>
      <point x="448" y="656"/>
      <point x="400" y="656" type="curve" smooth="yes"/>
      <point x="352" y="656"/>
      <point x="272" y="736"/>
      <point x="208" y="736" type="curve" smooth="yes"/>
      <point x="144" y="736"/>
      <point x="96" y="696"/>
      <point x="64" y="672" type="curve"/>
    </contour>
    <contour>
      <point x="544" y="240" type="curve" smooth="yes"/>
      <point x="544" y="376"/>
      <point x="456" y="496"/>
      <point x="304" y="496" type="curve" smooth="yes"/>
      <point x="152" y="496"/>
      <point x="64" y="376"/>
      <point x="64" y="240" type="curve" smooth="yes"/>
      <point x="64" y="104"/>
      <point x="152" y="-16"/>
      <point x="304" y="-16" type="curve" smooth="yes"/>
      <point x="456" y="-16"/>
      <point x="544" y="104"/>
    </contour>
    <contour>
      <point x="440" y="240" type="curve" smooth="yes"/>
      <point x="440" y="96"/>
      <point x="384" y="32"/>
      <point x="304" y="32" type="curve" smooth="yes"/>
      <point x="224" y="32"/>
      <point x="168" y="96"/>
      <point x="168" y="240" type="curve" smooth="yes"/>
      <point x="168" y="384"/>
      <point x="224" y="448"/>
      <point x="304" y="448" type="curve" smooth="yes"/>
      <point x="384" y="448"/>
      <point x="440" y="384"/>
    </contour>
  </outline>
</glyph>
<glyph name="Lslash" format="1">
  <advance width="608"/>
  <unicode hex="0141"/>
  <outline>
    <contour>
      <point x="512" y="0" type="line"/>
      <point x="544" y="256" type="line"/>
      <point x="520" y="256" type="line"/>
      <point x="420" y="56" type="line"/>
      <point x="224" y="56" type="line"/>
      <point x="224" y="263" type="line"/>
      <point x="584" y="496" type="line"/>
      <point x="568" y="528" type="line"/>
      <point x="224" y="305" type="line"/>
      <point x="224" y="648" type="line"/>
      <point x="288" y="680" type="line"/>
      <point x="288" y="704" type="line"/>
      <point x="64" y="704" type="line"/>
      <point x="64" y="680" type="line"/>
      <point x="128" y="648" type="line"/>
      <point x="128" y="243" type="line"/>
      <point x="24" y="176" type="line"/>
      <point x="40" y="144" type="line"/>
      <point x="128" y="201" type="line"/>
      <point x="128" y="56" type="line"/>
      <point x="64" y="24" type="line"/>
      <point x="64" y="0" type="line"/>
    </contour>
  </outline>
</glyph>
<glyph name="OE" format="1">
  <advance width="608"/>
  <unicode hex="0152"/>
  <outline>
    <contour>
      <point x="592" y="256" type="line"/>
      <point x="566" y="256" type="line"/>
      <point x="486" y="56" type="line"/>
      <point x="336" y="56" type="line"/>
      <point x="336" y="352" type="line"/>
      <point x="420" y="352" type="line"/>
      <point x="452" y="272" type="line"/>
      <point x="476" y="272" type="line"/>
      <point x="476" y="488" type="line"/>
      <point x="452" y="488" type="line"/>
      <point x="420" y="408" type="line"/>
      <point x="336" y="408" type="line"/>
      <point x="336" y="648" type="line"/>
      <point x="486" y="648" type="line"/>
      <point x="540" y="512" type="line"/>
      <point x="566" y="512" type="line"/>
      <point x="540" y="704" type="line"/>
      <point x="236" y="704" type="line" smooth="yes"/>
      <point x="114" y="704"/>
      <point x="32" y="576"/>
      <point x="32" y="352" type="curve" smooth="yes"/>
      <point x="32" y="128"/>
      <point x="114" y="0"/>
      <point x="236" y="0" type="curve"/>
      <point x="236" y="56" type="line"/>
      <point x="154" y="56"/>
      <point x="122" y="160"/>
      <point x="122" y="352" type="curve" smooth="yes"/>
      <point x="122" y="544"/>
      <point x="154" y="648"/>
      <point x="236" y="648" type="curve" smooth="yes"/>
      <point x="260" y="648" type="line"/>
      <point x="260" y="56" type="line"/>
      <point x="236" y="56" type="line"/>
      <point x="236" y="0" type="line"/>
      <point x="566" y="0" type="line"/>
    </contour>
  </outline>
</glyph>
<glyph name="oe" format="1">
  <advance width="608"/>
  <unicode hex="0153"/>
  <outline>
    <contour>
      <point x="422" y="448" type="curve" smooth="yes"/>
      <point x="474" y="448"/>
      <point x="500" y="368"/>
      <point x="500" y="304" type="curve"/>
      <point x="342" y="304" type="line"/>
      <point x="351" y="403"/>
      <point x="380" y="448"/>
    </contour>
    <contour>
      <point x="256" y="240" type="curve" smooth="yes"/>
      <point x="256" y="96"/>
      <point x="224" y="32"/>
      <point x="172" y="32" type="curve" smooth="yes"/>
      <point x="120" y="32"/>
      <point x="88" y="96"/>
      <point x="88" y="240" type="curve" smooth="yes"/>
      <point x="88" y="384"/>
      <point x="120" y="448"/>
      <point x="172" y="448" type="curve" smooth="yes"/>
      <point x="224" y="448"/>
      <point x="256" y="384"/>
    </contour>
    <contour>
      <point x="564" y="112" type="curve"/>
      <point x="538" y="128" type="line"/>
      <point x="524" y="96"/>
      <point x="500" y="48"/>
      <point x="442" y="48" type="curve" smooth="yes"/>
      <point x="390" y="48"/>
      <point x="340" y="96"/>
      <point x="340" y="240" type="curve" smooth="yes"/>
      <point x="340" y="246"/>
      <point x="340" y="251"/>
      <point x="340" y="256" type="curve"/>
      <point x="576" y="256" type="line"/>
      <point x="576" y="376"/>
      <point x="538" y="496"/>
      <point x="422" y="496" type="curve" smooth="yes"/>
      <point x="367" y="496"/>
      <point x="325" y="465"/>
      <point x="297" y="416" type="curve"/>
      <point x="269" y="465"/>
      <point x="227" y="496"/>
      <point x="172" y="496" type="curve" smooth="yes"/>
      <point x="64" y="496"/>
      <point x="6" y="376"/>
      <point x="6" y="240" type="curve" smooth="yes"/>
      <point x="6" y="104"/>
      <point x="64" y="-16"/>
      <point x="172" y="-16" type="curve" smooth="yes"/>
      <point x="227" y="-16"/>
      <point x="269" y="15"/>
      <point x="297" y="64" type="curve"/>
      <point x="325" y="15"/>
      <point x="367" y="-16"/>
      <point x="422" y="-16" type="curve" smooth="yes"/>
      <point x="524" y="-16"/>
      <point x="550" y="80"/>
    </contour>
  </outline>
</glyph>
<glyph name="Zcaron" format="1">
  <advance width="608"/>
  <unicode hex="017D"/>
  <outline>
    <contour>
      <point x="160" y="976" type="line"/>
      <point x="128" y="944" type="line"/>
      <point x="272" y="752" type="line"/>
      <point x="336" y="752" type="line"/>
      <point x="480" y="944" type="line"/>
      <point x="448" y="976" type="line"/>
      <point x="304" y="832" type="line"/>
    </contour>
    <contour>
      <point x="512" y="0" type="line"/>
      <point x="544" y="256" type="line"/>
      <point x="512" y="256" type="line"/>
      <point x="412" y="56" type="line"/>
      <point x="200" y="56" type="line"/>
      <point x="512" y="680" type="line"/>
      <point x="512" y="704" type="line"/>
      <point x="96" y="704" type="line"/>
      <point x="64" y="480" type="line"/>
      <point x="96" y="480" type="line"/>
      <point x="180" y="648" type="line"/>
      <point x="384" y="648" type="line"/>
      <point x="72" y="24" type="line"/>
      <point x="72" y="0" type="line"/>
    </contour>
  </outline>
</glyph>
<glyph name="caron" format="1">
  <advance width="608"/>
  <unicode hex="02C7"/>
  <outline>
    <contour>
      <point x="160" y="704" type="line"/>
      <point x="128" y="672" type="line"/>
      <point x="272" y="480" type="line"/>
      <point x="336" y="480" type="line"/>
      <point x="480" y="672" type="line"/>
      <point x="448" y="704" type="line"/>
      <point x="304" y="560" type="line"/>
    </contour>
  </outline>
</glyph>
<glyph name="breve" format="1">
  <advance width="608"/>
  <unicode hex="02D8"/>
  <outline>
    <contour>
      <point x="384" y="704" type="line"/>
      <point x="384" y="660"/>
      <point x="348" y="624"/>
      <point x="304" y="624" type="curve" smooth="yes"/>
      <point x="260" y="624"/>
      <point x="224" y="660"/>
      <point x="224" y="704" type="curve"/>
      <point x="160" y="704" type="line"/>
      <point x="160" y="626"/>
      <point x="226" y="560"/>
      <point x="304" y="560" type="curve" smooth="yes"/>
      <point x="384" y="560"/>
      <point x="448" y="626"/>
      <point x="448" y="704" type="curve"/>
    </contour>
  </outline>
</glyph>
<glyph name="dotaccent" format="1">
  <advance width="608"/>
  <unicode hex="02D9"/>
  <outline>
    <contour>
      <point x="304" y="704" type="curve" smooth="yes"/>
      <point x="268" y="704"/>
      <point x="240" y="676"/>
      <point x="240" y="640" type="curve" smooth="yes"/>
      <point x="240" y="604"/>
      <point x="268" y="576"/>
      <point x="304" y="576" type="curve" smooth="yes"/>
      <point x="340" y="576"/>
      <point x="368" y="604"/>
      <point x="368" y="640" type="curve" smooth="yes"/>
      <point x="368" y="676"/>
      <point x="340" y="704"/>
    </contour>
  </outline>
</glyph>
<glyph name="quoteleft" format="1">
  <advance width="200"/>
  <unicode hex="2018"/>
  <outline>
    <contour>
      <point x="160" y="456" type="line"/>
      <point x="122" y="494"/>
      <point x="98" y="533"/>
      <point x="96" y="593" type="curve"/>
      <point x="99" y="592"/>
      <point x="101" y="592"/>
      <point x="104" y="592" type="curve" smooth="yes"/>
      <point x="140" y="592"/>
      <point x="168" y="620"/>
      <point x="168" y="656" type="curve" smooth="yes"/>
      <point x="168" y="692"/>
      <point x="140" y="720"/>
      <point x="104" y="720" type="curve" smooth="yes"/>
      <point x="102" y="720"/>
      <point x="100" y="720"/>
      <point x="99" y="720" type="curve"/>
      <point x="102" y="720"/>
      <point x="100" y="720"/>
      <point x="98" y="720" type="curve"/>
      <point x="61" y="717"/>
      <point x="32" y="685"/>
      <point x="32" y="624" type="curve" smooth="yes"/>
      <point x="32" y="544"/>
      <point x="72" y="480"/>
      <point x="136" y="432" type="curve"/>
    </contour>
  </outline>
</glyph>
<glyph name="quotesinglbase" format="1">
  <advance width="200"/>
  <unicode hex="201A"/>
  <outline>
    <contour>
      <point x="64" y="-176" type="line"/>
      <point x="128" y="-128"/>
      <point x="168" y="-64"/>
      <point x="168" y="16" type="curve" smooth="yes"/>
      <point x="168" y="77"/>
      <point x="139" y="109"/>
      <point x="102" y="112" type="curve"/>
      <point x="102" y="112"/>
      <point x="101" y="112"/>
      <point x="101" y="112" type="curve"/>
      <point x="96" y="112"/>
      <point x="96" y="112"/>
      <point x="96" y="112" type="curve"/>
      <point x="60" y="112"/>
      <point x="32" y="84"/>
      <point x="32" y="48" type="curve" smooth="yes"/>
      <point x="32" y="12"/>
      <point x="60" y="-16"/>
      <point x="96" y="-16" type="curve" smooth="yes"/>
      <point x="99" y="-16"/>
      <point x="101" y="-16"/>
      <point x="104" y="-15" type="curve"/>
      <point x="102" y="-75"/>
      <point x="78" y="-114"/>
      <point x="40" y="-152" type="curve"/>
    </contour>
  </outline>
</glyph>
<glyph name="quotedblleft" format="1">
  <advance width="400"/>
  <unicode hex="201C"/>
  <outline>
    <contour>
      <point x="104" y="432" type="curve"/>
      <point x="140" y="432"/>
      <point x="168" y="460"/>
      <point x="168" y="496" type="curve" smooth="yes"/>
      <point x="168" y="532"/>
      <point x="140" y="560"/>
      <point x="104" y="560" type="curve" smooth="yes"/>
      <point x="101" y="560"/>
      <point x="99" y="560"/>
      <point x="96" y="559" type="curve"/>
      <point x="98" y="619"/>
      <point x="122" y="658"/>
      <point x="160" y="696" type="curve"/>
      <point x="136" y="720" type="line"/>
      <point x="72" y="672"/>
      <point x="32" y="608"/>
      <point x="32" y="528" type="curve" smooth="yes"/>
      <point x="32" y="467"/>
      <point x="61" y="435"/>
      <point x="98" y="432" type="curve"/>
      <point x="98" y="432"/>
      <point x="99" y="432"/>
      <point x="99" y="432" type="curve"/>
      <point x="104" y="432"/>
      <point x="104" y="432"/>
    </contour>
    <contour>
      <point x="312" y="432" type="curve"/>
      <point x="348" y="432"/>
      <point x="376" y="460"/>
      <point x="376" y="496" type="curve" smooth="yes"/>
      <point x="376" y="532"/>
      <point x="348" y="560"/>
      <point x="312" y="560" type="curve" smooth="yes"/>
      <point x="309" y="560"/>
      <point x="307" y="560"/>
      <point x="304" y="559" type="curve"/>
      <point x="306" y="619"/>
      <point x="330" y="658"/>
      <point x="368" y="696" type="curve"/>
      <point x="344" y="720" type="line"/>
      <point x="280" y="672"/>
      <point x="240" y="608"/>
      <point x="240" y="528" type="curve" smooth="yes"/>
      <point x="240" y="467"/>
      <point x="269" y="435"/>
      <point x="306" y="432" type="curve"/>
      <point x="306" y="432"/>
      <point x="307" y="432"/>
      <point x="307" y="432" type="curve"/>
      <point x="312" y="432"/>
      <point x="312" y="432"/>
    </contour>
  </outline>
</glyph>
<glyph name="quotedblbase" format="1">
  <advance width="408"/>
  <unicode hex="201E"/>
  <outline>
    <contour>
      <point x="64" y="-176" type="line"/>
      <point x="128" y="-128"/>
      <point x="168" y="-64"/>
      <point x="168" y="16" type="curve" smooth="yes"/>
      <point x="168" y="77"/>
      <point x="139" y="109"/>
      <point x="102" y="112" type="curve"/>
      <point x="102" y="112"/>
      <point x="101" y="112"/>
      <point x="101" y="112" type="curve"/>
      <point x="96" y="112"/>
      <point x="96" y="112"/>
      <point x="96" y="112" type="curve"/>
      <point x="60" y="112"/>
      <point x="32" y="84"/>
      <point x="32" y="48" type="curve" smooth="yes"/>
      <point x="32" y="12"/>
      <point x="60" y="-16"/>
      <point x="96" y="-16" type="curve" smooth="yes"/>
      <point x="99" y="-16"/>
      <point x="101" y="-16"/>
      <point x="104" y="-15" type="curve"/>
      <point x="102" y="-75"/>
      <point x="78" y="-114"/>
      <point x="40" y="-152" type="curve"/>
    </contour>
    <contour>
      <point x="272" y="-176" type="line"/>
      <point x="336" y="-128"/>
      <point x="376" y="-64"/>
      <point x="376" y="16" type="curve" smooth="yes"/>
      <point x="376" y="77"/>
      <point x="347" y="109"/>
      <point x="310" y="112" type="curve"/>
      <point x="310" y="112"/>
      <point x="309" y="112"/>
      <point x="309" y="112" type="curve"/>
      <point x="304" y="112"/>
      <point x="304" y="112"/>
      <point x="304" y="112" type="curve"/>
      <point x="268" y="112"/>
      <point x="240" y="84"/>
      <point x="240" y="48" type="curve" smooth="yes"/>
      <point x="240" y="12"/>
      <point x="268" y="-16"/>
      <point x="304" y="-16" type="curve" smooth="yes"/>
      <point x="307" y="-16"/>
      <point x="309" y="-16"/>
      <point x="312" y="-15" type="curve"/>
      <point x="310" y="-75"/>
      <point x="286" y="-114"/>
      <point x="248" y="-152" type="curve"/>
    </contour>
  </outline>
</glyph>
<glyph name="daggerdbl" format="1">
  <advance width="608"/>
  <unicode hex="2021"/>
  <outline>
    <contour>
      <point x="328" y="-192" type="line"/>
      <point x="336" y="96" type="line"/>
      <point x="544" y="64" type="line"/>
      <point x="544" y="192" type="line"/>
      <point x="336" y="160" type="line"/>
      <point x="336" y="416" type="line"/>
      <point x="544" y="384" type="line"/>
      <point x="544" y="512" type="line"/>
      <point x="336" y="480" type="line"/>
      <point x="368" y="704" type="line"/>
      <point x="240" y="704" type="line"/>
      <point x="272" y="480" type="line"/>
      <point x="64" y="512" type="line"/>
      <point x="64" y="384" type="line"/>
      <point x="272" y="416" type="line"/>
      <point x="272" y="160" type="line"/>
      <point x="64" y="192" type="line"/>
      <point x="64" y="64" type="line"/>
      <point x="272" y="96" type="line"/>
      <point x="280" y="-192" type="line"/>
    </contour>
  </outline>
</glyph>
<glyph name="bullet" format="1">
  <advance width="288"/>
  <unicode hex="2022"/>
  <outline>
    <contour>
      <point x="32" y="336" type="curve" smooth="yes"/>
      <point x="32" y="272"/>
      <point x="84" y="224"/>
      <point x="144" y="224" type="curve" smooth="yes"/>
      <point x="204" y="224"/>
      <point x="256" y="272"/>
      <point x="256" y="336" type="curve" smooth="yes"/>
      <point x="256" y="400"/>
      <point x="204" y="448"/>
      <point x="144" y="448" type="curve" smooth="yes"/>
      <point x="84" y="448"/>
      <point x="32" y="400"/>
    </contour>
  </outline>
</glyph>
<glyph name="guilsinglright" format="1">
  <advance width="608"/>
  <unicode hex="203A"/>
  <outline>
    <contour>
      <point x="192" y="96" type="line"/>
      <point x="224" y="64" type="line"/>
      <point x="416" y="208" type="line"/>
      <point x="416" y="272" type="line"/>
      <point x="224" y="416" type="line"/>
      <point x="192" y="384" type="line"/>
      <point x="336" y="240" type="line"/>
    </contour>
  </outline>
</glyph>
<glyph name="minus" format="1">
  <advance width="544"/>
  <unicode hex="2212"/>
  <outline>
    <contour>
      <point x="512" y="208" type="line"/>
      <point x="512" y="272" type="line"/>
      <point x="32" y="272" type="line"/>
      <point x="32" y="208" type="line"/>
    </contour>
  </outline>
</glyph>
<glyph name=".notdef" format="1">
  <advance width="608"/>
  <outline>
    <contour>
      <point x="608" y="704" type="line"/>
      <point x="0" y="704" type="line"/>
      <point x="0" y="0" type="line"/>
      <point x="608" y="0" type="line"/>
    </contour>
    <contour>
      <point x="432" y="240" type="line"/>
      <point x="304" y="368" type="line"/>
      <point x="176" y="240" type="line"/>
      <point x="112" y="304" type="line"/>
      <point x="240" y="432" type="line"/>
      <point x="112" y="560" type="line"/>
      <point x="176" y="624" type="line"/>
      <point x="304" y="496" type="line"/>
      <point x="432" y="624" type="line"/>
      <point x="496" y="560" type="line"/>
      <point x="368" y="432" type="line"/>
      <point x="496" y="304" type="line"/>
    </contour>
  </outline>
</glyph>
<glyph name="clocktower" format="1">
  <advance width="1024"/>
  <outline>
    <contour>
      <point x="390" y="756" type="line"/>
      <point x="294" y="922" type="line"/>
      <point x="299" y="942" type="line"/>
      <point x="355" y="970"/>
      <point x="416" y="987"/>
      <point x="481" y="991" type="curve"/>
      <point x="496" y="976" type="line"/>
      <point x="496" y="784" type="line"/>
      <point x="478" y="766" type="line"/>
      <point x="456" y="763"/>
      <point x="435" y="757"/>
      <point x="415" y="749" type="curve"/>
    </contour>
    <contour>
      <point x="528" y="784" type="line"/>
      <point x="528" y="976" type="line"/>
      <point x="543" y="991" type="line"/>
      <point x="608" y="987"/>
      <point x="669" y="970"/>
      <point x="725" y="942" type="curve"/>
      <point x="730" y="922" type="line"/>
      <point x="634" y="756" type="line"/>
      <point x="608" y="749" type="line"/>
      <point x="589" y="757"/>
      <point x="568" y="763"/>
      <point x="546" y="766" type="curve"/>
    </contour>
    <contour>
      <point x="284" y="662" type="line"/>
      <point x="118" y="758" type="line"/>
      <point x="113" y="778" type="line"/>
      <point x="148" y="830"/>
      <point x="194" y="876"/>
      <point x="246" y="911" type="curve"/>
      <point x="266" y="906" type="line"/>
      <point x="362" y="740" type="line"/>
      <point x="355" y="714" type="line"/>
      <point x="338" y="701"/>
      <point x="323" y="686"/>
      <point x="310" y="669" type="curve"/>
    </contour>
    <contour>
      <point x="740" y="662" type="line"/>
      <point x="714" y="669" type="line"/>
      <point x="701" y="686"/>
      <point x="686" y="701"/>
      <point x="669" y="714" type="curve"/>
      <point x="662" y="740" type="line"/>
      <point x="758" y="906" type="line"/>
      <point x="777" y="911" type="line"/>
      <point x="830" y="876"/>
      <point x="876" y="830"/>
      <point x="911" y="777" type="curve"/>
      <point x="906" y="758" type="line"/>
    </contour>
    <contour>
      <point x="48" y="528" type="line"/>
      <point x="33" y="543" type="line"/>
      <point x="37" y="608"/>
      <point x="54" y="669"/>
      <point x="82" y="725" type="curve"/>
      <point x="102" y="730" type="line"/>
      <point x="268" y="634" type="line"/>
      <point x="275" y="609" type="line"/>
      <point x="267" y="589"/>
      <point x="261" y="568"/>
      <point x="258" y="546" type="curve"/>
      <point x="240" y="528" type="line"/>
    </contour>
    <contour>
      <point x="0" y="512" type="curve" smooth="yes"/>
      <point x="0" y="230"/>
      <point x="230" y="0"/>
      <point x="512" y="0" type="curve" smooth="yes"/>
      <point x="716" y="0"/>
      <point x="891" y="119"/>
      <point x="974" y="292" type="curve"/>
      <point x="955" y="303" type="line"/>
      <point x="922" y="294" type="line"/>
      <point x="756" y="390" type="line"/>
      <point x="747" y="423" type="line"/>
      <point x="723" y="437" type="line"/>
      <point x="718" y="425" type="line" smooth="yes"/>
      <point x="684" y="345"/>
      <point x="604" y="288"/>
      <point x="512" y="288" type="curve" smooth="yes"/>
      <point x="389" y="288"/>
      <point x="288" y="389"/>
      <point x="288" y="512" type="curve" smooth="yes"/>
      <point x="288" y="635"/>
      <point x="389" y="736"/>
      <point x="512" y="736" type="curve" smooth="yes"/>
      <point x="604" y="736"/>
      <point x="684" y="679"/>
      <point x="718" y="599" type="curve" smooth="yes"/>
      <point x="723" y="587" type="line"/>
      <point x="747" y="601" type="line"/>
      <point x="756" y="634" type="line"/>
      <point x="922" y="730" type="line"/>
      <point x="955" y="721" type="line"/>
      <point x="974" y="732" type="line"/>
      <point x="891" y="905"/>
      <point x="716" y="1024"/>
      <point x="512" y="1024" type="curve" smooth="yes"/>
      <point x="230" y="1024"/>
      <point x="0" y="794"/>
    </contour>
    <contour>
      <point x="102" y="294" type="line"/>
      <point x="82" y="299" type="line"/>
      <point x="54" y="355"/>
      <point x="37" y="416"/>
      <point x="33" y="481" type="curve"/>
      <point x="48" y="496" type="line"/>
      <point x="240" y="496" type="line"/>
      <point x="258" y="478" type="line"/>
      <point x="261" y="456"/>
      <point x="267" y="435"/>
      <point x="275" y="415" type="curve"/>
      <point x="268" y="390" type="line"/>
    </contour>
    <contour>
      <point x="758" y="118" type="line"/>
      <point x="662" y="284" type="line"/>
      <point x="669" y="310" type="line"/>
      <point x="686" y="323"/>
      <point x="701" y="338"/>
      <point x="714" y="355" type="curve"/>
      <point x="740" y="362" type="line"/>
      <point x="906" y="266" type="line"/>
      <point x="911" y="247" type="line"/>
      <point x="876" y="194"/>
      <point x="830" y="148"/>
      <point x="777" y="113" type="curve"/>
    </contour>
    <contour>
      <point x="118" y="266" type="line"/>
      <point x="284" y="362" type="line"/>
      <point x="310" y="355" type="line"/>
      <point x="323" y="338"/>
      <point x="338" y="323"/>
      <point x="355" y="310" type="curve"/>
      <point x="362" y="284" type="line"/>
      <point x="266" y="118" type="line"/>
      <point x="246" y="113" type="line"/>
      <point x="194" y="148"/>
      <point x="148" y="194"/>
      <point x="113" y="246" type="curve"/>
    </contour>
    <contour>
      <point x="528" y="48" type="line"/>
      <point x="528" y="240" type="line"/>
      <point x="546" y="258" type="line"/>
      <point x="568" y="261"/>
      <point x="589" y="267"/>
      <point x="608" y="275" type="curve"/>
      <point x="634" y="268" type="line"/>
      <point x="730" y="102" type="line"/>
      <point x="725" y="82" type="line"/>
      <point x="669" y="54"/>
      <point x="608" y="37"/>
      <point x="543" y="33" type="curve"/>
    </contour>
    <contour>
      <point x="294" y="102" type="line"/>
      <point x="390" y="268" type="line"/>
      <point x="415" y="275" type="line"/>
      <point x="435" y="267"/>
      <point x="456" y="261"/>
      <point x="478" y="258" type="curve"/>
      <point x="496" y="240" type="line"/>
      <point x="496" y="48" type="line"/>
      <point x="481" y="33" type="line"/>
      <point x="416" y="37"/>
      <point x="355" y="54"/>
      <point x="299" y="82" type="curve"/>
    </contour>
  </outline>
</glyph>
<glyph name="clocktower003," format="1">
  <advance width="528"/>
  <outline>
    <contour>
      <point x="398" y="741" type="curve"/>
      <point x="286" y="935" type="line"/>
      <point x="349" y="969"/>
      <point x="420" y="989"/>
      <point x="496" y="992" type="curve"/>
      <point x="496" y="767" type="line"/>
      <point x="461" y="765"/>
      <point x="428" y="756"/>
    </contour>
    <contour>
      <point x="299" y="654" type="curve"/>
      <point x="105" y="766" type="line"/>
      <point x="144" y="828"/>
      <point x="196" y="880"/>
      <point x="258" y="919" type="curve"/>
      <point x="370" y="725" type="line"/>
      <point x="342" y="706"/>
      <point x="318" y="682"/>
    </contour>
    <contour>
      <point x="257" y="528" type="curve"/>
      <point x="32" y="528" type="line"/>
      <point x="35" y="604"/>
      <point x="55" y="675"/>
      <point x="89" y="738" type="curve"/>
      <point x="283" y="626" type="line"/>
      <point x="268" y="596"/>
      <point x="259" y="563"/>
    </contour>
    <contour>
      <point x="528" y="0" type="line"/>
      <point x="528" y="288" type="line"/>
      <point x="512" y="288" type="line" smooth="yes"/>
      <point x="389" y="288"/>
      <point x="288" y="389"/>
      <point x="288" y="512" type="curve" smooth="yes"/>
      <point x="288" y="635"/>
      <point x="389" y="736"/>
      <point x="512" y="736" type="curve" smooth="yes"/>
      <point x="528" y="736" type="line"/>
      <point x="528" y="1024" type="line"/>
      <point x="496" y="1024" type="line" smooth="yes"/>
      <point x="221" y="1015"/>
      <point x="0" y="789"/>
      <point x="0" y="512" type="curve" smooth="yes"/>
      <point x="0" y="235"/>
      <point x="221" y="9"/>
      <point x="496" y="0" type="curve" smooth="yes"/>
    </contour>
    <contour>
      <point x="89" y="286" type="line"/>
      <point x="55" y="349"/>
      <point x="35" y="420"/>
      <point x="32" y="496" type="curve"/>
      <point x="257" y="496" type="line"/>
      <point x="259" y="461"/>
      <point x="268" y="428"/>
      <point x="283" y="398" type="curve"/>
    </contour>
    <contour>
      <point x="258" y="105" type="line"/>
      <point x="196" y="144"/>
      <point x="144" y="196"/>
      <point x="105" y="258" type="curve"/>
      <point x="299" y="370" type="line"/>
      <point x="318" y="342"/>
      <point x="342" y="318"/>
      <point x="370" y="299" type="curve"/>
    </contour>
    <contour>
      <point x="496" y="32" type="line"/>
      <point x="420" y="35"/>
      <point x="349" y="55"/>
      <point x="286" y="89" type="curve"/>
      <point x="398" y="283" type="line"/>
      <point x="428" y="268"/>
      <point x="461" y="259"/>
      <point x="496" y="257" type="curve"/>
    </contour>
  </outline>
</glyph>
<glyph name="clocktower007" format="1">
  <advance width="1024"/>
  <outline>
    <contour>
      <point x="630" y="749" type="line"/>
      <point x="605" y="750" type="line"/>
      <point x="588" y="757"/>
      <point x="569" y="762"/>
      <point x="550" y="765" type="curve"/>
      <point x="528" y="776" type="line"/>
      <point x="528" y="984" type="line"/>
      <point x="542" y="991" type="line"/>
      <point x="608" y="987"/>
      <point x="670" y="970"/>
      <point x="726" y="941" type="curve"/>
      <point x="734" y="929" type="line"/>
    </contour>
    <contour>
      <point x="394" y="749" type="line"/>
      <point x="290" y="929" type="line"/>
      <point x="298" y="942" type="line"/>
      <point x="354" y="970"/>
      <point x="416" y="987"/>
      <point x="482" y="991" type="curve"/>
      <point x="496" y="984" type="line"/>
      <point x="496" y="776" type="line"/>
      <point x="474" y="765" type="line"/>
      <point x="455" y="762"/>
      <point x="436" y="757"/>
      <point x="419" y="750" type="curve"/>
    </contour>
    <contour>
      <point x="291" y="658" type="line"/>
      <point x="111" y="762" type="line"/>
      <point x="112" y="776" type="line"/>
      <point x="148" y="830"/>
      <point x="194" y="876"/>
      <point x="248" y="912" type="curve"/>
      <point x="262" y="913" type="line"/>
      <point x="366" y="733" type="line"/>
      <point x="351" y="711" type="line"/>
      <point x="337" y="700"/>
      <point x="324" y="687"/>
      <point x="313" y="673" type="curve"/>
    </contour>
    <contour>
      <point x="762" y="913" type="line"/>
      <point x="776" y="912" type="line"/>
      <point x="783" y="907"/>
      <point x="790" y="902"/>
      <point x="797" y="897" type="curve"/>
      <point x="823" y="918" type="line"/>
      <point x="737" y="984"/>
      <point x="629" y="1024"/>
      <point x="512" y="1024" type="curve" smooth="yes"/>
      <point x="230" y="1024"/>
      <point x="0" y="794"/>
      <point x="0" y="512" type="curve" smooth="yes"/>
      <point x="0" y="230"/>
      <point x="230" y="0"/>
      <point x="512" y="0" type="curve" smooth="yes"/>
      <point x="629" y="0"/>
      <point x="737" y="40"/>
      <point x="823" y="106" type="curve"/>
      <point x="812" y="138" type="line"/>
      <point x="800" y="129"/>
      <point x="788" y="120"/>
      <point x="776" y="112" type="curve"/>
      <point x="762" y="111" type="line"/>
      <point x="658" y="291" type="line"/>
      <point x="673" y="313" type="line"/>
      <point x="678" y="317"/>
      <point x="683" y="321"/>
      <point x="688" y="326" type="curve"/>
      <point x="671" y="355" type="line"/>
      <point x="630" y="314"/>
      <point x="574" y="288"/>
      <point x="512" y="288" type="curve" smooth="yes"/>
      <point x="389" y="288"/>
      <point x="288" y="389"/>
      <point x="288" y="512" type="curve" smooth="yes"/>
      <point x="288" y="635"/>
      <point x="389" y="736"/>
      <point x="512" y="736" type="curve" smooth="yes"/>
      <point x="558" y="736"/>
      <point x="604" y="721"/>
      <point x="637" y="697" type="curve"/>
    </contour>
    <contour>
      <point x="40" y="528" type="line"/>
      <point x="33" y="542" type="line"/>
      <point x="37" y="608"/>
      <point x="54" y="670"/>
      <point x="83" y="726" type="curve"/>
      <point x="95" y="734" type="line"/>
      <point x="275" y="630" type="line"/>
      <point x="274" y="605" type="line"/>
      <point x="267" y="588"/>
      <point x="262" y="569"/>
      <point x="259" y="550" type="curve"/>
      <point x="248" y="528" type="line"/>
    </contour>
    <contour>
      <point x="95" y="290" type="line"/>
      <point x="82" y="298" type="line"/>
      <point x="54" y="354"/>
      <point x="37" y="416"/>
      <point x="33" y="482" type="curve"/>
      <point x="40" y="496" type="line"/>
      <point x="248" y="496" type="line"/>
      <point x="259" y="474" type="line"/>
      <point x="262" y="455"/>
      <point x="267" y="436"/>
      <point x="274" y="419" type="curve"/>
      <point x="275" y="394" type="line"/>
    </contour>
    <contour>
      <point x="262" y="111" type="line"/>
      <point x="248" y="112" type="line"/>
      <point x="194" y="148"/>
      <point x="148" y="194"/>
      <point x="112" y="248" type="curve"/>
      <point x="111" y="262" type="line"/>
      <point x="291" y="366" type="line"/>
      <point x="313" y="351" type="line"/>
      <point x="324" y="337"/>
      <point x="337" y="324"/>
      <point x="351" y="313" type="curve"/>
      <point x="366" y="291" type="line"/>
    </contour>
    <contour>
      <point x="290" y="95" type="line"/>
      <point x="394" y="275" type="line"/>
      <point x="419" y="274" type="line"/>
      <point x="436" y="267"/>
      <point x="455" y="262"/>
      <point x="474" y="259" type="curve"/>
      <point x="496" y="248" type="line"/>
      <point x="496" y="40" type="line"/>
      <point x="482" y="33" type="line"/>
      <point x="416" y="37"/>
      <point x="354" y="54"/>
      <point x="298" y="83" type="curve"/>
    </contour>
    <contour>
      <point x="528" y="40" type="line"/>
      <point x="528" y="248" type="line"/>
      <point x="550" y="259" type="line"/>
      <point x="569" y="262"/>
      <point x="588" y="267"/>
      <point x="605" y="274" type="curve"/>
      <point x="630" y="275" type="line"/>
      <point x="734" y="95" type="line"/>
      <point x="726" y="82" type="line"/>
      <point x="670" y="54"/>
      <point x="608" y="37"/>
      <point x="542" y="33" type="curve"/>
    </contour>
  </outline>
</glyph>
<glyph name="clocktower008" format="1">
  <advance width="1024"/>
  <outline>
    <contour>
      <point x="563" y="957" type="line"/>
      <point x="549" y="959"/>
      <point x="534" y="960"/>
      <point x="519" y="960" type="curve"/>
      <point x="519" y="1009" type="line"/>
      <point x="536" y="1009"/>
      <point x="553" y="1008"/>
      <point x="570" y="1006" type="curve"/>
    </contour>
    <contour>
      <point x="461" y="957" type="curve"/>
      <point x="454" y="1006" type="line"/>
      <point x="471" y="1008"/>
      <point x="488" y="1009"/>
      <point x="505" y="1009" type="curve"/>
      <point x="505" y="960" type="line"/>
      <point x="490" y="960"/>
      <point x="475" y="959"/>
    </contour>
    <contour>
      <point x="621" y="946" type="line"/>
      <point x="607" y="950"/>
      <point x="592" y="953"/>
      <point x="577" y="955" type="curve"/>
      <point x="584" y="1004" type="line"/>
      <point x="601" y="1001"/>
      <point x="618" y="998"/>
      <point x="634" y="993" type="curve"/>
    </contour>
    <contour>
      <point x="403" y="947" type="curve"/>
      <point x="390" y="993" type="line"/>
      <point x="406" y="998"/>
      <point x="423" y="1001"/>
      <point x="440" y="1004" type="curve"/>
      <point x="447" y="955" type="line"/>
      <point x="432" y="953"/>
      <point x="417" y="950"/>
    </contour>
    <contour>
      <point x="677" y="928" type="line"/>
      <point x="663" y="934"/>
      <point x="649" y="939"/>
      <point x="635" y="943" type="curve"/>
      <point x="647" y="990" type="line"/>
      <point x="663" y="985"/>
      <point x="680" y="979"/>
      <point x="695" y="973" type="curve"/>
    </contour>
    <contour>
      <point x="347" y="928" type="curve"/>
      <point x="329" y="973" type="line"/>
      <point x="345" y="979"/>
      <point x="361" y="985"/>
      <point x="377" y="990" type="curve"/>
      <point x="389" y="943" type="line"/>
      <point x="375" y="939"/>
      <point x="361" y="934"/>
    </contour>
    <contour>
      <point x="729" y="903" type="line"/>
      <point x="717" y="910"/>
      <point x="704" y="917"/>
      <point x="690" y="923" type="curve"/>
      <point x="708" y="968" type="line"/>
      <point x="724" y="961"/>
      <point x="739" y="953"/>
      <point x="754" y="944" type="curve"/>
    </contour>
    <contour>
      <point x="295" y="903" type="curve"/>
      <point x="270" y="945" type="line"/>
      <point x="285" y="953"/>
      <point x="300" y="961"/>
      <point x="316" y="968" type="curve"/>
      <point x="334" y="923" type="line"/>
      <point x="320" y="917"/>
      <point x="307" y="910"/>
    </contour>
    <contour>
      <point x="634" y="737" type="line"/>
      <point x="599" y="756"/>
      <point x="561" y="767"/>
      <point x="519" y="768" type="curve"/>
      <point x="519" y="945" type="line"/>
      <point x="592" y="944"/>
      <point x="661" y="924"/>
      <point x="722" y="889" type="curve"/>
    </contour>
    <contour>
      <point x="390" y="737" type="curve"/>
      <point x="302" y="890" type="line"/>
      <point x="363" y="924"/>
      <point x="432" y="944"/>
      <point x="505" y="945" type="curve"/>
      <point x="505" y="768" type="line"/>
      <point x="464" y="767"/>
      <point x="425" y="756"/>
    </contour>
    <contour>
      <point x="245" y="871" type="curve"/>
      <point x="216" y="909" type="line"/>
      <point x="230" y="919"/>
      <point x="244" y="929"/>
      <point x="258" y="937" type="curve"/>
      <point x="282" y="896" type="line"/>
      <point x="269" y="888"/>
      <point x="257" y="880"/>
    </contour>
    <contour>
      <point x="201" y="833" type="curve"/>
      <point x="167" y="867" type="line"/>
      <point x="179" y="879"/>
      <point x="192" y="890"/>
      <point x="206" y="901" type="curve"/>
      <point x="235" y="863" type="line"/>
      <point x="223" y="854"/>
      <point x="212" y="844"/>
    </contour>
    <contour>
      <point x="294" y="646" type="curve"/>
      <point x="142" y="734" type="line"/>
      <point x="179" y="794"/>
      <point x="230" y="846"/>
      <point x="290" y="882" type="curve"/>
      <point x="378" y="730" type="line"/>
      <point x="344" y="709"/>
      <point x="315" y="680"/>
    </contour>
    <contour>
      <point x="161" y="789" type="curve"/>
      <point x="123" y="818" type="line"/>
      <point x="134" y="832"/>
      <point x="145" y="845"/>
      <point x="157" y="857" type="curve"/>
      <point x="191" y="823" type="line"/>
      <point x="180" y="812"/>
      <point x="170" y="801"/>
    </contour>
    <contour>
      <point x="128" y="742" type="curve"/>
      <point x="87" y="766" type="line"/>
      <point x="96" y="780"/>
      <point x="105" y="794"/>
      <point x="115" y="808" type="curve"/>
      <point x="153" y="779" type="line"/>
      <point x="144" y="767"/>
      <point x="136" y="755"/>
    </contour>
    <contour>
      <point x="101" y="690" type="curve"/>
      <point x="57" y="708" type="line"/>
      <point x="64" y="723"/>
      <point x="71" y="739"/>
      <point x="80" y="753" type="curve"/>
      <point x="121" y="729" type="line"/>
      <point x="114" y="717"/>
      <point x="107" y="704"/>
    </contour>
    <contour>
      <point x="778" y="75" type="curve"/>
      <point x="770" y="88" type="line"/>
      <point x="766" y="86" type="line"/>
      <point x="742" y="128" type="line"/>
      <point x="743" y="129"/>
      <point x="745" y="130"/>
      <point x="746" y="131" type="curve"/>
      <point x="737" y="145" type="line"/>
      <point x="733" y="143" type="line"/>
      <point x="646" y="294" type="line"/>
      <point x="648" y="295"/>
      <point x="649" y="296"/>
      <point x="651" y="297" type="curve"/>
      <point x="642" y="312" type="line"/>
      <point x="604" y="286"/>
      <point x="559" y="271"/>
      <point x="512" y="271" type="curve" smooth="yes"/>
      <point x="386" y="271"/>
      <point x="272" y="380"/>
      <point x="272" y="512" type="curve" smooth="yes"/>
      <point x="272" y="644"/>
      <point x="382" y="753"/>
      <point x="512" y="753" type="curve" smooth="yes"/>
      <point x="559" y="753"/>
      <point x="604" y="739"/>
      <point x="641" y="714" type="curve"/>
      <point x="650" y="728" type="line"/>
      <point x="647" y="730" type="line"/>
      <point x="734" y="882" type="line"/>
      <point x="735" y="881"/>
      <point x="737" y="880"/>
      <point x="739" y="879" type="curve"/>
      <point x="747" y="893" type="line"/>
      <point x="745" y="894"/>
      <point x="744" y="895"/>
      <point x="742" y="896" type="curve"/>
      <point x="766" y="937" type="line"/>
      <point x="767" y="936"/>
      <point x="769" y="935"/>
      <point x="771" y="934" type="curve"/>
      <point x="779" y="948" type="line"/>
      <point x="701" y="996"/>
      <point x="610" y="1024"/>
      <point x="512" y="1024" type="curve" smooth="yes"/>
      <point x="230" y="1024"/>
      <point x="0" y="794"/>
      <point x="0" y="512" type="curve" smooth="yes"/>
      <point x="0" y="230"/>
      <point x="230" y="0"/>
      <point x="512" y="0" type="curve" smooth="yes"/>
      <point x="610" y="0"/>
      <point x="700" y="27"/>
    </contour>
    <contour>
      <point x="256" y="519" type="curve"/>
      <point x="80" y="519" type="line"/>
      <point x="81" y="592"/>
      <point x="101" y="661"/>
      <point x="135" y="721" type="curve"/>
      <point x="287" y="634" type="line"/>
      <point x="268" y="599"/>
      <point x="257" y="561"/>
    </contour>
    <contour>
      <point x="81" y="635" type="curve"/>
      <point x="35" y="647" type="line"/>
      <point x="40" y="663"/>
      <point x="45" y="679"/>
      <point x="52" y="695" type="curve"/>
      <point x="96" y="677" type="line"/>
      <point x="90" y="663"/>
      <point x="85" y="649"/>
    </contour>
    <contour>
      <point x="69" y="577" type="curve"/>
      <point x="21" y="584" type="line"/>
      <point x="24" y="601"/>
      <point x="27" y="617"/>
      <point x="31" y="634" type="curve"/>
      <point x="77" y="621" type="line"/>
      <point x="74" y="607"/>
      <point x="71" y="592"/>
    </contour>
    <contour>
      <point x="64" y="519" type="curve"/>
      <point x="16" y="519" type="line"/>
      <point x="16" y="536"/>
      <point x="17" y="553"/>
      <point x="19" y="570" type="curve"/>
      <point x="67" y="563" type="line"/>
      <point x="65" y="549"/>
      <point x="64" y="534"/>
    </contour>
    <contour>
      <point x="135" y="303" type="line"/>
      <point x="101" y="363"/>
      <point x="81" y="431"/>
      <point x="80" y="505" type="curve"/>
      <point x="256" y="505" type="line"/>
      <point x="257" y="463"/>
      <point x="268" y="425"/>
      <point x="287" y="390" type="curve"/>
    </contour>
    <contour>
      <point x="19" y="454" type="line"/>
      <point x="17" y="471"/>
      <point x="16" y="487"/>
      <point x="16" y="505" type="curve"/>
      <point x="64" y="505" type="line"/>
      <point x="64" y="490"/>
      <point x="65" y="475"/>
      <point x="67" y="461" type="curve"/>
    </contour>
    <contour>
      <point x="31" y="390" type="line"/>
      <point x="27" y="407"/>
      <point x="24" y="423"/>
      <point x="21" y="440" type="curve"/>
      <point x="69" y="447" type="line"/>
      <point x="71" y="432"/>
      <point x="74" y="417"/>
      <point x="77" y="403" type="curve"/>
    </contour>
    <contour>
      <point x="52" y="329" type="line"/>
      <point x="45" y="345"/>
      <point x="40" y="361"/>
      <point x="35" y="377" type="curve"/>
      <point x="81" y="389" type="line"/>
      <point x="85" y="375"/>
      <point x="90" y="361"/>
      <point x="96" y="347" type="curve"/>
    </contour>
    <contour>
      <point x="290" y="142" type="line"/>
      <point x="230" y="178"/>
      <point x="179" y="230"/>
      <point x="142" y="290" type="curve"/>
      <point x="294" y="378" type="line"/>
      <point x="315" y="344"/>
      <point x="344" y="315"/>
      <point x="378" y="294" type="curve"/>
    </contour>
    <contour>
      <point x="80" y="271" type="line"/>
      <point x="71" y="285"/>
      <point x="64" y="301"/>
      <point x="57" y="316" type="curve"/>
      <point x="101" y="334" type="line"/>
      <point x="107" y="320"/>
      <point x="114" y="307"/>
      <point x="121" y="295" type="curve"/>
    </contour>
    <contour>
      <point x="505" y="79" type="line"/>
      <point x="432" y="80"/>
      <point x="363" y="100"/>
      <point x="302" y="134" type="curve"/>
      <point x="390" y="287" type="line"/>
      <point x="425" y="268"/>
      <point x="464" y="257"/>
      <point x="505" y="256" type="curve"/>
    </contour>
    <contour>
      <point x="519" y="79" type="curve"/>
      <point x="519" y="256" type="line"/>
      <point x="560" y="257"/>
      <point x="599" y="268"/>
      <point x="634" y="287" type="curve"/>
      <point x="721" y="135" type="line"/>
      <point x="661" y="100"/>
      <point x="593" y="80"/>
    </contour>
    <contour>
      <point x="115" y="216" type="line"/>
      <point x="105" y="230"/>
      <point x="96" y="244"/>
      <point x="87" y="258" type="curve"/>
      <point x="128" y="282" type="line"/>
      <point x="136" y="269"/>
      <point x="144" y="257"/>
      <point x="153" y="245" type="curve"/>
    </contour>
    <contour>
      <point x="157" y="167" type="line"/>
      <point x="145" y="179"/>
      <point x="134" y="192"/>
      <point x="123" y="206" type="curve"/>
      <point x="161" y="235" type="line"/>
      <point x="170" y="223"/>
      <point x="180" y="212"/>
      <point x="191" y="201" type="curve"/>
    </contour>
    <contour>
      <point x="206" y="123" type="line"/>
      <point x="192" y="134"/>
      <point x="179" y="145"/>
      <point x="167" y="157" type="curve"/>
      <point x="201" y="191" type="line"/>
      <point x="212" y="180"/>
      <point x="223" y="170"/>
      <point x="235" y="161" type="curve"/>
    </contour>
    <contour>
      <point x="258" y="87" type="line"/>
      <point x="244" y="95"/>
      <point x="230" y="105"/>
      <point x="216" y="115" type="curve"/>
      <point x="245" y="153" type="line"/>
      <point x="257" y="144"/>
      <point x="269" y="136"/>
      <point x="282" y="128" type="curve"/>
    </contour>
    <contour>
      <point x="708" y="55" type="curve"/>
      <point x="690" y="102" type="line"/>
      <point x="703" y="107"/>
      <point x="716" y="114"/>
      <point x="729" y="121" type="curve"/>
      <point x="754" y="78" type="line"/>
      <point x="739" y="70"/>
      <point x="724" y="62"/>
    </contour>
    <contour>
      <point x="316" y="56" type="line"/>
      <point x="300" y="63"/>
      <point x="285" y="71"/>
      <point x="270" y="79" type="curve"/>
      <point x="295" y="121" type="line"/>
      <point x="307" y="114"/>
      <point x="320" y="107"/>
      <point x="334" y="101" type="curve"/>
    </contour>
    <contour>
      <point x="647" y="33" type="curve"/>
      <point x="635" y="81" type="line"/>
      <point x="649" y="86"/>
      <point x="663" y="90"/>
      <point x="677" y="96" type="curve"/>
      <point x="696" y="50" type="line"/>
      <point x="680" y="44"/>
      <point x="664" y="38"/>
    </contour>
    <contour>
      <point x="377" y="34" type="line"/>
      <point x="361" y="39"/>
      <point x="345" y="45"/>
      <point x="329" y="51" type="curve"/>
      <point x="347" y="96" type="line"/>
      <point x="361" y="90"/>
      <point x="375" y="85"/>
      <point x="389" y="81" type="curve"/>
    </contour>
    <contour>
      <point x="584" y="20" type="curve"/>
      <point x="577" y="69" type="line"/>
      <point x="592" y="71"/>
      <point x="607" y="74"/>
      <point x="621" y="78" type="curve"/>
      <point x="634" y="30" type="line"/>
      <point x="618" y="26"/>
      <point x="601" y="22"/>
    </contour>
    <contour>
      <point x="440" y="20" type="line"/>
      <point x="423" y="23"/>
      <point x="406" y="26"/>
      <point x="390" y="31" type="curve"/>
      <point x="403" y="77" type="line"/>
      <point x="417" y="74"/>
      <point x="432" y="71"/>
      <point x="447" y="69" type="curve"/>
    </contour>
    <contour>
      <point x="519" y="15" type="line"/>
      <point x="519" y="64" type="line"/>
      <point x="534" y="64"/>
      <point x="549" y="65"/>
      <point x="563" y="67" type="curve"/>
      <point x="570" y="18" type="line"/>
      <point x="555" y="17"/>
      <point x="540" y="16"/>
      <point x="524" y="15" type="curve"/>
    </contour>
    <contour>
      <point x="505" y="15" type="line"/>
      <point x="488" y="15"/>
      <point x="471" y="16"/>
      <point x="454" y="18" type="curve"/>
      <point x="461" y="67" type="line"/>
      <point x="475" y="65"/>
      <point x="490" y="64"/>
      <point x="505" y="64" type="curve"/>
    </contour>
  </outline>
</glyph>
<glyph name="clocktower014" format="1">
  <advance width="1024"/>
  <outline>
    <contour>
      <point x="512" y="0" type="curve" smooth="yes"/>
      <point x="794" y="0"/>
      <point x="1024" y="230"/>
      <point x="1024" y="512" type="curve" smooth="yes"/>
      <point x="1024" y="794"/>
      <point x="794" y="1024"/>
      <point x="512" y="1024" type="curve" smooth="yes"/>
      <point x="230" y="1024"/>
      <point x="0" y="794"/>
      <point x="0" y="512" type="curve" smooth="yes"/>
      <point x="0" y="230"/>
      <point x="230" y="0"/>
    </contour>
    <contour>
      <point x="512" y="768" type="curve"/>
      <point x="512" y="992" type="line"/>
      <point x="517" y="992"/>
      <point x="523" y="992"/>
      <point x="528" y="992" type="curve"/>
      <point x="528" y="767" type="line"/>
      <point x="523" y="768"/>
      <point x="517" y="768"/>
    </contour>
    <contour>
      <point x="512" y="32" type="curve" smooth="yes"/>
      <point x="248" y="32"/>
      <point x="32" y="248"/>
      <point x="32" y="512" type="curve" smooth="yes"/>
      <point x="32" y="765"/>
      <point x="231" y="974"/>
      <point x="480" y="991" type="curve"/>
      <point x="480" y="766" type="line"/>
      <point x="354" y="750"/>
      <point x="256" y="642"/>
      <point x="256" y="512" type="curve" smooth="yes"/>
      <point x="256" y="371"/>
      <point x="371" y="256"/>
      <point x="512" y="256" type="curve" smooth="yes"/>
      <point x="653" y="256"/>
      <point x="768" y="371"/>
      <point x="768" y="512" type="curve" smooth="yes"/>
      <point x="768" y="637"/>
      <point x="678" y="741"/>
      <point x="560" y="763" type="curve"/>
      <point x="560" y="990" type="line"/>
      <point x="802" y="965"/>
      <point x="992" y="760"/>
      <point x="992" y="512" type="curve" smooth="yes"/>
      <point x="992" y="248"/>
      <point x="776" y="32"/>
    </contour>
    <contour>
      <point x="512" y="288" type="curve" smooth="yes"/>
      <point x="389" y="288"/>
      <point x="288" y="389"/>
      <point x="288" y="512" type="curve" smooth="yes"/>
      <point x="288" y="635"/>
      <point x="389" y="736"/>
      <point x="512" y="736" type="curve" smooth="yes"/>
      <point x="635" y="736"/>
      <point x="736" y="635"/>
      <point x="736" y="512" type="curve" smooth="yes"/>
      <point x="736" y="389"/>
      <point x="635" y="288"/>
    </contour>
  </outline>
</glyph>
